<svg width="152" height="152" version="1.1" xmlns="http://www.w3.org/2000/svg" desc="Created with imagetracer.js version 1.2.6" ><path fill="rgb(172,113,56)" stroke="rgb(172,113,56)" stroke-width="1" opacity="0.9019607843137255" d="M 64.5 28 L 69.5 29 L 84.5 29 L 85.5 28 L 93 28 L 93.5 30 L 96.5 29 L 111.5 37 L 113 36.5 L 114.5 39 L 117.5 41 L 132.5 29 L 140.5 28 L 143.5 32 L 142 31.5 L 143 35.5 L 141 39.5 L 140 41.5 Q 142.8 43.3 138.5 45 L 136.5 45 L 134 46.5 L 133 49.5 L 123.5 59 L 122.5 58 L 118 62.5 L 118.5 64 L 120 63.5 L 113 68.5 Q 112.6 74.1 108.5 76 L 105 77 L 105 79.5 L 99.5 86 L 88.5 93 L 88 91 Q 90.7 92.1 90 89.5 L 98 83.5 Q 101.7 80.8 101 75 L 103.5 74 L 104.5 75 L 107.5 72 L 116 64.5 Q 126.8 48.3 141 35.5 L 141 33.5 L 140 31.5 L 142 30.5 Q 140.3 28.3 135.5 29 L 133 30.5 Q 135.3 31.7 132.5 33 L 132.5 31 L 130 32.5 L 126.5 38 Q 124.3 33.8 122 38.5 Q 124.8 40.3 120.5 42 L 118 43.5 L 118.5 45 L 116.5 45 L 113.5 47 L 114 45.5 Q 112.5 41.1 115.5 42 L 112.5 38 L 109.5 36 L 108.5 38 L 99.5 33 L 91.5 31 L 78.5 31 L 77.5 30 L 76.5 31 L 59.5 32 L 33 43 L 31.5 46 L 30 45.5 L 25.5 51 L 23 50.5 Q 22.5 45.5 26.5 45 L 37.5 37 L 39 37.5 L 39.5 36 L 41.5 36 L 57.5 30 L 59 30.5 Q 58.1 27.1 63.5 29 L 64.5 28 Z M 104 75 L 102 79 L 104 78 L 104 75 Z " /><path fill="rgb(172,113,56)" stroke="rgb(172,113,56)" stroke-width="1" opacity="0.9019607843137255" d="M 145.5 33 L 146 37 Q 143.3 38.1 144 35.5 L 145.5 33 Z " /><path fill="rgb(172,113,56)" stroke="rgb(172,113,56)" stroke-width="1" opacity="0.9019607843137255" d="M 78.5 38 L 87 39 L 86.5 41 L 78.5 39 L 78.5 38 Z " /><path fill="rgb(172,113,56)" stroke="rgb(172,113,56)" stroke-width="1" opacity="0.9019607843137255" d="M 74.5 39 L 77 39.5 L 71.5 43 L 71 41.5 L 74.5 39 Z " /><path fill="rgb(172,113,56)" stroke="rgb(172,113,56)" stroke-width="1" opacity="0.9019607843137255" d="M 88.5 40 L 90 42.5 L 88 41.5 L 88.5 40 Z " /><path fill="rgb(172,113,56)" stroke="rgb(172,113,56)" stroke-width="1" opacity="0.9019607843137255" d="M 143.5 41 L 143 42.5 L 142.5 44 L 142 42.5 L 143.5 41 Z " /><path fill="rgb(172,113,56)" stroke="rgb(172,113,56)" stroke-width="1" opacity="0.9019607843137255" d="M 73.5 43 L 74 45.5 L 73 45.5 L 73.5 43 Z " /><path fill="rgb(172,113,56)" stroke="rgb(172,113,56)" stroke-width="1" opacity="0.9019607843137255" d="M 89.5 47 L 90.5 49 L 89.5 47 Z " /><path fill="rgb(172,113,56)" stroke="rgb(172,113,56)" stroke-width="1" opacity="0.9019607843137255" d="M 138.5 47 L 136 50.5 L 134.5 53 L 129.5 57 L 138.5 47 Z " /><path fill="rgb(172,113,56)" stroke="rgb(172,113,56)" stroke-width="1" opacity="0.9019607843137255" d="M 43.5 48 L 53 48.5 L 43.5 49 L 42.5 50 L 43.5 48 Z " /><path fill="rgb(172,113,56)" stroke="rgb(172,113,56)" stroke-width="1" opacity="0.9019607843137255" d="M 69.5 48 L 74 48.5 L 73.5 51 L 71.5 51 L 69.5 48 Z " /><path fill="rgb(172,113,56)" stroke="rgb(172,113,56)" stroke-width="1" opacity="0.9019607843137255" d="M 113.5 48 L 112.5 50 L 113.5 48 Z " /><path fill="rgb(172,113,56)" stroke="rgb(172,113,56)" stroke-width="1" opacity="0.9019607843137255" d="M 54.5 49 Q 57.8 47.9 57 50.5 L 60 52.5 L 58.5 53 L 54.5 49 Z " /><path fill="rgb(172,113,56)" stroke="rgb(172,113,56)" stroke-width="1" opacity="0.9019607843137255" d="M 77.5 51 Q 84.3 49.3 86 52.5 L 84.5 52 L 77.5 52 L 77.5 51 Z " /><path fill="rgb(172,113,56)" stroke="rgb(172,113,56)" stroke-width="1" opacity="0.9019607843137255" d="M 19.5 52 Q 21.3 55.1 23 53.5 L 19 59 Q 16 57.8 17 61.5 L 16 64 L 14 64.5 L 14.5 66 L 13 65.5 L 14 67.5 L 12 68 L 13 70.5 L 11 71 L 12 73.5 L 10 76.5 L 10 78.5 L 11 83.5 L 9 87.5 L 12.5 95 L 14 94.5 L 13 96.5 L 15 96.5 L 14 98.5 L 16 98.5 L 15 100.5 L 18 101.5 L 17 103.5 L 21 109 Q 23.7 107.9 23 110.5 L 27.5 114 L 29 113.5 L 28.5 115 L 30.5 116 L 32 115.5 L 31.5 117 L 34 118.5 L 32.5 119 L 30.5 118 L 30.5 120 L 26.5 114 L 24.5 113 L 22.5 114 L 20.5 111 L 22.5 112 L 20.5 109 Q 19.2 111.2 18 108.5 L 19 106.5 L 16 105.5 Q 18.3 104.3 15.5 103 L 14 103.5 L 15 101.5 L 13.5 99 L 12.5 101 L 12 99.5 L 13 97.5 L 10.5 94 Q 7.5 94.9 9 90.5 L 8 87.5 Q 5.3 83.7 7 75.5 L 10 66 L 12 65.5 L 11.5 64 L 15 62.5 L 14.5 61 L 16 61.5 L 17 57.5 Q 14.5 56 18 54.5 L 19.5 52 Z M 9 77 L 8 82 L 9 82 L 9 77 Z " /><path fill="rgb(172,113,56)" stroke="rgb(172,113,56)" stroke-width="1" opacity="0.9019607843137255" d="M 37 54 L 39 54.5 L 37 55.5 L 37 54 Z " /><path fill="rgb(172,113,56)" stroke="rgb(172,113,56)" stroke-width="1" opacity="0.9019607843137255" d="M 59.5 54 L 61 57.5 L 56 59.5 L 56.5 61 Q 53.5 59.5 56.5 58 L 59 56.5 L 59.5 54 Z " /><path fill="rgb(172,113,56)" stroke="rgb(172,113,56)" stroke-width="1" opacity="0.9019607843137255" d="M 104.5 56 L 103.5 58 L 104.5 56 Z " /><path fill="rgb(172,113,56)" stroke="rgb(172,113,56)" stroke-width="1" opacity="0.9019607843137255" d="M 127.5 59 L 126.5 61 L 127.5 59 Z " /><path fill="rgb(172,113,56)" stroke="rgb(172,113,56)" stroke-width="1" opacity="0.9019607843137255" d="M 45.5 61 L 44.5 63 L 45.5 61 Z " /><path fill="rgb(172,113,56)" stroke="rgb(172,113,56)" stroke-width="1" opacity="0.9019607843137255" d="M 52.5 61 L 55 62.5 L 53.5 62 L 52.5 61 Z " /><path fill="rgb(172,113,56)" stroke="rgb(172,113,56)" stroke-width="1" opacity="0.9019607843137255" d="M 123.5 62 L 122.5 64 L 123.5 62 Z " /><path fill="rgb(172,113,56)" stroke="rgb(172,113,56)" stroke-width="1" opacity="0.9019607843137255" d="M 119.5 66 L 119 67.5 L 116.5 71 L 115 71.5 L 122 75 L 122.5 77 L 123 75 L 130.5 80 L 133 80 L 136 85.5 L 136 87.5 L 138 94.5 L 136.5 98 L 135.5 94 L 135 99.5 L 131 107.5 L 122 116.5 Q 124.8 118.2 120.5 120 L 121.5 117 L 118.5 119 L 119.5 116 L 116 118.5 L 116.5 120 L 114.5 119 L 114.5 121 L 112.5 120 L 112.5 122 L 109.5 121 L 107.5 122 L 107.5 121 Q 122.1 116.1 130 104.5 Q 129.3 102.3 131.5 103 L 131.5 101 L 133 100.5 L 133 98.5 L 135 90 Q 132.3 91.1 133 88.5 L 133.5 87 Q 131.3 87.8 132 85.5 L 131 82 L 121 78 L 120.5 76 L 119 76.5 Q 119.9 73.1 114.5 75 L 115 73.5 L 114 71.5 L 119.5 66 Z " /><path fill="rgb(172,113,56)" stroke="rgb(172,113,56)" stroke-width="1" opacity="0.9019607843137255" d="M 29.5 67 Q 36.4 65 35 69 L 27 68.5 L 29.5 67 Z " /><path fill="rgb(172,113,56)" stroke="rgb(172,113,56)" stroke-width="1" opacity="0.9019607843137255" d="M 89.5 67 L 87.5 70 L 89.5 67 Z " /><path fill="rgb(172,113,56)" stroke="rgb(172,113,56)" stroke-width="1" opacity="0.9019607843137255" d="M 92.5 67 Q 96.7 65.7 95 70.5 L 94 70.5 L 92.5 68 L 90 69.5 L 92.5 67 Z " /><path fill="rgb(172,113,56)" stroke="rgb(172,113,56)" stroke-width="1" opacity="0.9019607843137255" d="M 96.5 69 L 98.5 69 Q 101.1 68.2 100 71.5 L 101 74 L 98 72.5 L 97.5 71 L 96 71.5 L 96.5 69 Z " /><path fill="rgb(172,113,56)" stroke="rgb(172,113,56)" stroke-width="1" opacity="0.9019607843137255" d="M 88.5 71 L 83.5 77 L 88.5 71 Z " /><path fill="rgb(172,113,56)" stroke="rgb(172,113,56)" stroke-width="1" opacity="0.9019607843137255" d="M 41.5 72 L 40.5 74 L 41.5 72 Z " /><path fill="rgb(172,113,56)" stroke="rgb(172,113,56)" stroke-width="1" opacity="0.9019607843137255" d="M 21.5 73 L 20.5 75 L 21.5 73 Z " /><path fill="rgb(172,113,56)" stroke="rgb(172,113,56)" stroke-width="1" opacity="0.9019607843137255" d="M 110.5 77 L 109.5 79 L 110.5 77 Z " /><path fill="rgb(172,113,56)" stroke="rgb(172,113,56)" stroke-width="1" opacity="0.9019607843137255" d="M 72.5 84 L 71 86.5 L 69.5 89 L 69.5 87 L 68 86.5 L 72.5 84 Z " /><path fill="rgb(172,113,56)" stroke="rgb(172,113,56)" stroke-width="1" opacity="0.9019607843137255" d="M 73.5 87 L 76 87.5 L 73.5 88 L 73.5 87 Z " /><path fill="rgb(172,113,56)" stroke="rgb(172,113,56)" stroke-width="1" opacity="0.9019607843137255" d="M 81.5 87 L 83.5 90 L 82 89.5 L 84.5 95 L 87 93.5 L 81.5 99 L 79 99 L 74.5 105 L 63.5 110 L 57.5 110 L 57.5 109 L 68.5 106 L 77.5 98 L 81 97 L 83 93.5 L 80.5 93 L 71.5 100 L 72.5 97 L 69 99.5 Q 71.3 100.8 68.5 102 L 66.5 101 L 66.5 103 L 64.5 102 L 63.5 105 L 63.5 103 L 59 104 L 59.5 106 L 61.5 105 L 61.5 106 L 57.5 107 Q 59.1 105.3 56 103.5 L 56 100.5 L 59.5 96 L 59 97.5 L 58 102.5 L 59 102.5 L 60.5 100 L 63.5 98 L 66 96.5 L 66.5 99 L 72.5 95 L 79 94 L 80 90.5 L 77 88.5 L 79.5 88 L 81.5 89 L 81.5 87 Z " /><path fill="rgb(172,113,56)" stroke="rgb(172,113,56)" stroke-width="1" opacity="0.9019607843137255" d="M 36.5 90 L 37 92 L 35 91.5 L 36.5 90 Z " /><path fill="rgb(172,113,56)" stroke="rgb(172,113,56)" stroke-width="1" opacity="0.9019607843137255" d="M 65.5 90 L 67 90.5 L 61.5 94 L 63.5 91 L 65.5 90 Z " /><path fill="rgb(172,113,56)" stroke="rgb(172,113,56)" stroke-width="1" opacity="0.9019607843137255" d="M 46.5 91 L 48 93.5 L 46 92.5 L 46.5 91 Z " /><path fill="rgb(172,113,56)" stroke="rgb(172,113,56)" stroke-width="1" opacity="0.9019607843137255" d="M 32 92 L 34 92.5 Q 31 93.5 32 98.5 L 32.5 100 Q 29.8 100.6 31 94.5 L 32 92 Z " /><path fill="rgb(172,113,56)" stroke="rgb(172,113,56)" stroke-width="1" opacity="0.9019607843137255" d="M 89.5 95 L 85.5 100 L 89.5 95 Z " /><path fill="rgb(172,113,56)" stroke="rgb(172,113,56)" stroke-width="1" opacity="0.9019607843137255" d="M 100.5 95 L 103 95.5 L 100 97.5 L 100.5 99 L 103 97.5 L 98 101 L 99 97.5 L 98.5 96 L 100.5 95 Z " /><path fill="rgb(172,113,56)" stroke="rgb(172,113,56)" stroke-width="1" opacity="0.9019607843137255" d="M 56.5 96 L 55.5 98 L 56.5 96 Z " /><path fill="rgb(172,113,56)" stroke="rgb(172,113,56)" stroke-width="1" opacity="0.9019607843137255" d="M 48 100 L 50 100.5 L 48 101.5 L 48 100 Z " /><path fill="rgb(172,113,56)" stroke="rgb(172,113,56)" stroke-width="1" opacity="0.9019607843137255" d="M 32.5 101 L 35 101.5 Q 32.9 104.8 32.5 101 Z " /><path fill="rgb(172,113,56)" stroke="rgb(172,113,56)" stroke-width="1" opacity="0.9019607843137255" d="M 37 102 L 44 102.5 L 40.5 104 L 38.5 104 Q 35.9 104.7 37 102 Z " /><path fill="rgb(172,113,56)" stroke="rgb(172,113,56)" stroke-width="1" opacity="0.9019607843137255" d="M 97.5 104 L 98.5 106 L 97.5 104 Z " /><path fill="rgb(172,113,56)" stroke="rgb(172,113,56)" stroke-width="1" opacity="0.9019607843137255" d="M 115.5 104 L 114.5 106 L 115.5 104 Z " /><path fill="rgb(172,113,56)" stroke="rgb(172,113,56)" stroke-width="1" opacity="0.9019607843137255" d="M 55.5 105 L 56 107.5 L 55 107.5 L 55.5 105 Z " /><path fill="rgb(172,113,56)" stroke="rgb(172,113,56)" stroke-width="1" opacity="0.9019607843137255" d="M 102.5 107 L 101.5 109 L 102.5 107 Z " /><path fill="rgb(172,113,56)" stroke="rgb(172,113,56)" stroke-width="1" opacity="0.9019607843137255" d="M 128.5 112 L 126.5 115 L 128.5 112 Z " /><path fill="rgb(172,113,56)" stroke="rgb(172,113,56)" stroke-width="1" opacity="0.9019607843137255" d="M 36.5 118 L 36.5 120 L 38.5 119 L 39.5 121 L 41 120.5 L 38.5 124 L 32 120.5 L 33.5 121 Q 35.8 121.8 35 119.5 L 36.5 118 Z M 39 121 L 37 123 L 39 123 L 39 121 Z " /><path fill="rgb(172,113,56)" stroke="rgb(172,113,56)" stroke-width="1" opacity="0.9019607843137255" d="M 42.5 122 L 40.5 125 L 42.5 122 Z " /><path fill="rgb(172,113,56)" stroke="rgb(172,113,56)" stroke-width="1" opacity="0.9019607843137255" d="M 44 122 L 60.5 127 L 78.5 128 L 80.5 127 L 82.5 127 L 94.5 126 L 105.5 122 L 105.5 123 L 99 125.5 L 101 126.5 L 99.5 127 L 96.5 126 L 96.5 127 L 98 127.5 L 95.5 128 L 92.5 127 L 92.5 128 L 98 129.5 L 93.5 131 L 93.5 129 L 86.5 128 L 86.5 129 L 88 129.5 L 85.5 130 L 84.5 129 L 74.5 129 Q 72.8 131.8 66.5 130 L 64.5 130 L 61 130.5 L 61.5 132 L 55 129.5 L 58 127.5 L 54.5 127 L 52 128 Q 53.1 125.3 50.5 126 L 49 126.5 L 49.5 125 L 46.5 126 L 46.5 124 L 42.5 126 L 44 123.5 L 44 122 Z M 59 128 L 57 129 L 57 130 Q 61 131 63 129 L 59 128 Z " /><path fill="rgb(172,113,56)" stroke="rgb(172,113,56)" stroke-width="1" opacity="0.9019607843137255" d="M 114.5 122 L 116 122.5 L 112.5 124 L 112.5 123 L 114.5 122 Z " /><path fill="rgb(172,113,56)" stroke="rgb(172,113,56)" stroke-width="1" opacity="0.9019607843137255" d="M 107.5 123 L 109 123.5 L 105.5 125 L 105.5 124 L 107.5 123 Z " /><path fill="rgb(172,113,56)" stroke="rgb(172,113,56)" stroke-width="1" opacity="0.9019607843137255" d="M 90.5 130 L 92 130.5 L 89.5 132 L 90.5 130 Z " /><path fill="rgb(172,113,56)" stroke="rgb(172,113,56)" stroke-width="1" opacity="0.9019607843137255" d="M 63.5 131 L 70.5 131 L 71 133 Q 68.9 131.4 63.5 132 L 63.5 131 Z " /><path fill="rgb(172,113,56)" stroke="rgb(172,113,56)" stroke-width="1" opacity="0.9019607843137255" d="M 80.5 131 L 88 131.5 L 75.5 133 L 75.5 132 L 80.5 131 Z " /><path fill="rgb(0,0,0)" stroke="rgb(0,0,0)" stroke-width="1" opacity="0" d="M 0 0 L 84.5 0 L 85.5 1 L 86.5 0 L 152 0 L 152 152 L 0 152 L 0 0 Z M 85 26 L 84 27 L 63 28 Q 50 30 42 36 L 39 35 L 38 37 L 28 44 Q 13 55 7 74 L 7 89 L 14 105 L 14 107 L 33 122 L 36 124 L 38 124 L 52 130 Q 55 129 54 132 L 56 131 Q 59 130 58 133 L 61 132 L 68 134 L 71 134 Q 70 131 73 132 Q 74 135 76 133 L 84 134 L 86 134 L 86 132 L 93 131 L 95 132 L 97 130 L 103 129 L 115 124 L 127 115 L 129 115 L 131 110 L 136 106 L 135 105 L 137 104 L 136 103 L 138 98 L 138 90 L 134 82 L 132 80 L 128 77 Q 130 75 128 74 L 127 76 L 117 72 L 123 64 Q 125 65 124 63 L 127 61 L 131 56 L 135 53 L 141 46 Q 140 43 143 44 L 146 39 L 145 32 L 140 27 L 134 28 L 124 35 L 118 40 Q 119 36 117 37 L 117 39 L 114 36 L 101 30 Q 95 27 85 28 L 85 26 Z M 144 28 L 145 30 Q 146 27 144 28 Z M 107 31 L 108 33 L 110 33 L 107 31 Z M 128 61 L 126 63 L 128 64 L 128 61 Z M 10 99 L 9 103 L 11 102 L 10 99 Z M 13 103 L 12 106 L 14 106 L 13 103 Z " /><path fill="rgb(254,253,248)" stroke="rgb(254,253,248)" stroke-width="1" opacity="0.8235294117647058" d="M 85.5 25 L 85 26.5 L 84.5 28 L 84 26.5 L 85.5 25 Z " /><path fill="rgb(254,253,248)" stroke="rgb(254,253,248)" stroke-width="1" opacity="0.8235294117647058" d="M 100.5 28 L 101.5 30 L 100.5 28 Z " /><path fill="rgb(254,253,248)" stroke="rgb(254,253,248)" stroke-width="1" opacity="0.8235294117647058" d="M 108.5 28 L 107.5 30 L 108.5 28 Z " /><path fill="rgb(254,253,248)" stroke="rgb(254,253,248)" stroke-width="1" opacity="0.8235294117647058" d="M 106.5 31 L 110 32.5 L 107.5 33 L 106.5 31 Z " /><path fill="rgb(254,253,248)" stroke="rgb(254,253,248)" stroke-width="1" opacity="0.8235294117647058" d="M 31.5 37 Q 34.5 38.5 31.5 40 Q 28.5 38.5 31.5 37 Z " /><path fill="rgb(254,253,248)" stroke="rgb(254,253,248)" stroke-width="1" opacity="0.8235294117647058" d="M 116.5 37 Q 119.1 36.2 118 39.5 L 117 39.5 L 116.5 37 Z " /><path fill="rgb(254,253,248)" stroke="rgb(254,253,248)" stroke-width="1" opacity="0.8235294117647058" d="M 115.5 71 L 114.5 73 L 115.5 71 Z " /><path fill="rgb(254,253,248)" stroke="rgb(254,253,248)" stroke-width="1" opacity="0.8235294117647058" d="M 9.5 99 L 11 101.5 L 9 102.5 L 9.5 99 Z " /><path fill="rgb(254,253,248)" stroke="rgb(254,253,248)" stroke-width="1" opacity="0.8235294117647058" d="M 129.5 116 L 130.5 118 L 129.5 116 Z " /><path fill="rgb(254,253,248)" stroke="rgb(254,253,248)" stroke-width="1" opacity="0.8235294117647058" d="M 36.5 124 L 37.5 126 L 36.5 124 Z " /><path fill="rgb(254,253,248)" stroke="rgb(254,253,248)" stroke-width="1" opacity="0.8235294117647058" d="M 59.5 132 L 60.5 134 L 59.5 132 Z " /><path fill="rgb(252,249,233)" stroke="rgb(252,249,233)" stroke-width="1" opacity="0.9921568627450981" d="M 74.5 31 L 91.5 32 L 103.5 35 L 110 39.5 L 108.5 40 L 101.5 36 L 100.5 39 L 98 38.5 Q 100.3 37.3 97.5 36 Q 95.3 35.3 96 37.5 L 96.5 39 L 95 36.5 Q 97.3 35.3 94.5 34 L 91.5 38 L 89 38.5 L 93 41.5 L 94 48.5 L 91.5 52 Q 87 56.1 77.5 55 L 73.5 54 L 71.5 55 L 68 53 Q 69.3 49.7 64.5 51 L 63 50.5 L 65 53.5 L 63 54 L 63 58.5 L 61 62 Q 56.3 66.1 45.5 65 L 44 64.5 L 44 66 L 49 66 L 49 67.5 L 47.5 67 L 44 67.5 L 45 70.5 L 43 70.5 L 44 76.5 L 42 79.5 L 43.5 82 L 39.5 82 Q 36.2 84.7 29.5 84 L 25.5 83 L 25.5 84 L 27 84.5 L 24 85 L 23 82.5 L 23.5 81 L 19 77.5 L 17 72.5 L 18 70.5 L 17 68.5 L 18 64.5 L 17 64.5 L 15 72.5 L 16 74.5 L 13 75.5 L 12.5 87 L 12 73.5 Q 16 59.5 25.5 51 L 33.5 44 L 51.5 35 L 74.5 31 Z M 79 37 L 72 40 L 68 46 L 69 49 Q 72 53 79 54 L 90 52 L 93 49 L 92 43 L 86 38 L 79 37 Z M 62 44 L 62 47 L 64 46 Q 65 43 62 44 Z M 67 44 L 65 50 L 68 50 L 67 44 Z M 45 47 L 42 48 L 37 53 L 37 58 Q 40 63 48 64 L 56 63 L 61 59 L 61 54 L 59 50 L 53 47 L 45 47 Z M 27 67 L 25 68 L 20 73 L 20 77 L 28 82 Q 37 84 41 80 Q 44 78 42 72 Q 38 65 27 67 Z " /><path fill="rgb(252,249,233)" stroke="rgb(252,249,233)" stroke-width="1" opacity="0.9921568627450981" d="M 131.5 34 L 125.5 41 L 120.5 45 L 128.5 36 L 131.5 34 Z " /><path fill="rgb(252,249,233)" stroke="rgb(252,249,233)" stroke-width="1" opacity="0.9921568627450981" d="M 118.5 45 L 114.5 50 L 118.5 45 Z " /><path fill="rgb(252,249,233)" stroke="rgb(252,249,233)" stroke-width="1" opacity="0.9921568627450981" d="M 110.5 46 L 101.5 56 L 97 59.5 L 94.5 63 L 72 83.5 Q 72.8 85.8 70.5 85 Q 61.2 88.2 56 95.5 Q 52.3 98.3 53 105.5 L 50.5 109 L 47 111.5 L 48 113.5 L 47 113.5 L 46 111.5 L 47 109 L 51 108 L 52 101.5 L 48.5 104 L 47 103.5 L 50 102 L 51 96.5 L 47.5 91 Q 44.2 88.3 37.5 89 L 31 92.5 L 30 98.5 L 32 103 L 34 103.5 L 32.5 104 Q 27.7 101.8 29 93.5 Q 34.4 90.8 32.5 88 L 35.5 89 L 36.5 88 L 44.5 88 L 50 91.5 Q 53.2 94.3 52.5 101 L 53 97.5 L 59 89 L 72 82.5 L 74 79.5 L 77 78 L 78.5 75 L 89 65.5 L 88.5 64 L 90.5 64 L 110.5 46 Z " /><path fill="rgb(252,249,233)" stroke="rgb(252,249,233)" stroke-width="1" opacity="0.9921568627450981" d="M 112.5 50 L 105.5 58 L 98.5 64 L 104.5 57 L 112.5 50 Z " /><path fill="rgb(252,249,233)" stroke="rgb(252,249,233)" stroke-width="1" opacity="0.9921568627450981" d="M 50 66 L 52 66.5 L 50.5 72 Q 47.8 70.7 50 69.5 L 50 66 Z " /><path fill="rgb(252,249,233)" stroke="rgb(252,249,233)" stroke-width="1" opacity="0.9921568627450981" d="M 89.5 71 L 78 83.5 Q 78.8 85.8 76.5 85 L 89.5 71 Z " /><path fill="rgb(252,249,233)" stroke="rgb(252,249,233)" stroke-width="1" opacity="0.9921568627450981" d="M 68.5 73 L 67.5 75 L 68.5 73 Z " /><path fill="rgb(252,249,233)" stroke="rgb(252,249,233)" stroke-width="1" opacity="0.9921568627450981" d="M 122.5 79 L 124.5 79 L 131 84.5 L 132 87.5 L 131 87.5 L 129 83 L 122.5 80 L 122.5 79 Z " /><path fill="rgb(252,249,233)" stroke="rgb(252,249,233)" stroke-width="1" opacity="0.9921568627450981" d="M 31.5 85 L 34 85.5 L 31.5 86 L 31.5 85 Z " /><path fill="rgb(252,249,233)" stroke="rgb(252,249,233)" stroke-width="1" opacity="0.9921568627450981" d="M 43.5 85 L 47 86.5 L 41.5 87 L 41.5 86 L 43.5 85 Z " /><path fill="rgb(252,249,233)" stroke="rgb(252,249,233)" stroke-width="1" opacity="0.9921568627450981" d="M 104.5 85 L 103.5 87 L 104.5 85 Z " /><path fill="rgb(252,249,233)" stroke="rgb(252,249,233)" stroke-width="1" opacity="0.9921568627450981" d="M 35.5 86 L 39 86.5 L 34.5 88 L 35.5 86 Z " /><path fill="rgb(252,249,233)" stroke="rgb(252,249,233)" stroke-width="1" opacity="0.9921568627450981" d="M 52.5 87 L 53.5 89 L 52.5 87 Z " /><path fill="rgb(252,249,233)" stroke="rgb(252,249,233)" stroke-width="1" opacity="0.9921568627450981" d="M 100.5 88 L 96.5 93 L 91.5 96 L 93.5 93 L 100.5 88 Z " /><path fill="rgb(252,249,233)" stroke="rgb(252,249,233)" stroke-width="1" opacity="0.9921568627450981" d="M 13.5 89 Q 15 97.5 20 102.5 L 18 101.5 Q 13.1 96.6 13.5 89 Z " /><path fill="rgb(252,249,233)" stroke="rgb(252,249,233)" stroke-width="1" opacity="0.9921568627450981" d="M 132.5 90 L 133 95.5 L 132 95.5 L 132.5 90 Z " /><path fill="rgb(252,249,233)" stroke="rgb(252,249,233)" stroke-width="1" opacity="0.9921568627450981" d="M 106.5 92 L 114.5 93 L 118 96.5 L 119 98.5 L 117 97.5 L 115.5 95 Q 112.6 92.4 106.5 93 L 106.5 92 Z " /><path fill="rgb(252,249,233)" stroke="rgb(252,249,233)" stroke-width="1" opacity="0.9921568627450981" d="M 100.5 93 L 104 93.5 L 100.5 94 L 95.5 98 L 97.5 95 L 100.5 93 Z " /><path fill="rgb(252,249,233)" stroke="rgb(252,249,233)" stroke-width="1" opacity="0.9921568627450981" d="M 89.5 96 L 88 98.5 L 84.5 104 L 84 102.5 L 89.5 96 Z " /><path fill="rgb(252,249,233)" stroke="rgb(252,249,233)" stroke-width="1" opacity="0.9921568627450981" d="M 93.5 100 L 94 102.5 L 93 102.5 L 93.5 100 Z " /><path fill="rgb(252,249,233)" stroke="rgb(252,249,233)" stroke-width="1" opacity="0.9921568627450981" d="M 119.5 100 L 120 102.5 L 119 102.5 L 119.5 100 Z " /><path fill="rgb(252,249,233)" stroke="rgb(252,249,233)" stroke-width="1" opacity="0.9921568627450981" d="M 130.5 100 L 131 101.5 L 129 102.5 L 130.5 100 Z " /><path fill="rgb(252,249,233)" stroke="rgb(252,249,233)" stroke-width="1" opacity="0.9921568627450981" d="M 20.5 104 L 31 113.5 L 29.5 113 L 20.5 104 Z " /><path fill="rgb(252,249,233)" stroke="rgb(252,249,233)" stroke-width="1" opacity="0.9921568627450981" d="M 35.5 104 L 38 104.5 L 35.5 105 L 35.5 104 Z " /><path fill="rgb(252,249,233)" stroke="rgb(252,249,233)" stroke-width="1" opacity="0.9921568627450981" d="M 42.5 104 L 46 104.5 L 42.5 105 L 42.5 104 Z " /><path fill="rgb(252,249,233)" stroke="rgb(252,249,233)" stroke-width="1" opacity="0.9921568627450981" d="M 94.5 104 Q 98.3 110.7 109.5 110 L 114.5 108 L 113.5 110 L 103.5 111 Q 96.3 109.3 94.5 104 Z " /><path fill="rgb(252,249,233)" stroke="rgb(252,249,233)" stroke-width="1" opacity="0.9921568627450981" d="M 128.5 104 L 127.5 106 L 128.5 104 Z " /><path fill="rgb(252,249,233)" stroke="rgb(252,249,233)" stroke-width="1" opacity="0.9921568627450981" d="M 83.5 105 L 83 106.5 L 79.5 111 L 69.5 116 L 59.5 117 L 59.5 116 L 65.5 116 L 72.5 114 L 82 107.5 L 83.5 105 Z " /><path fill="rgb(252,249,233)" stroke="rgb(252,249,233)" stroke-width="1" opacity="0.9921568627450981" d="M 117.5 106 L 116.5 108 L 117.5 106 Z " /><path fill="rgb(252,249,233)" stroke="rgb(252,249,233)" stroke-width="1" opacity="0.9921568627450981" d="M 125.5 107 L 124.5 109 L 125.5 107 Z " /><path fill="rgb(252,249,233)" stroke="rgb(252,249,233)" stroke-width="1" opacity="0.9921568627450981" d="M 122.5 110 L 119.5 114 L 122.5 110 Z " /><path fill="rgb(252,249,233)" stroke="rgb(252,249,233)" stroke-width="1" opacity="0.9921568627450981" d="M 49.5 114 L 58 116.5 L 54.5 117 L 49.5 115 L 49.5 114 Z " /><path fill="rgb(252,249,233)" stroke="rgb(252,249,233)" stroke-width="1" opacity="0.9921568627450981" d="M 117.5 114 L 116.5 116 L 117.5 114 Z " /><path fill="rgb(252,249,233)" stroke="rgb(252,249,233)" stroke-width="1" opacity="0.9921568627450981" d="M 93.5 124 L 96 124.5 L 93.5 125 L 93.5 124 Z " /><path fill="rgb(253,245,222)" stroke="rgb(253,245,222)" stroke-width="1" opacity="0.9921568627450981" d="M 134.5 32 L 135 34 L 131.5 36 L 134.5 32 Z " /><path fill="rgb(253,245,222)" stroke="rgb(253,245,222)" stroke-width="1" opacity="0.9921568627450981" d="M 94.5 34 L 97.5 36 L 100.5 34 L 99.5 36 L 98 36.5 L 98.5 39 L 102 37.5 L 101.5 36 L 111 40.5 L 109 44.5 L 106 48.5 L 106 51 L 103 52.5 L 101.5 55 L 100 54.5 L 97 58.5 L 97.5 60 L 96.5 59 L 93 62.5 L 93.5 64 L 91.5 64 L 84 69.5 L 82 72.5 Q 84.3 73.8 81.5 75 L 79.5 75 L 77 76.5 Q 77.8 78.8 75.5 78 L 74 81 Q 71.3 79.9 72 82.5 L 72.5 84 L 70.5 84 L 59 89 L 53 97.5 L 52 105.5 L 52.5 107 L 51 106.5 L 50.5 108 L 48.5 107 L 48.5 109 L 44.5 107 L 38 108.5 L 38.5 110 L 36.5 109 L 34.5 110 L 31 108 L 28.5 104 L 26.5 104 L 21 102 Q 22.5 98.2 19.5 99 L 17 98.5 L 18 96.5 L 15 97.5 L 16 95.5 L 14 91.5 L 15 90.5 L 12 87.5 L 13 86.5 L 13 75.5 L 14.5 74 L 16 74.5 L 15 72.5 L 17.5 64 L 19.5 70 L 22 68.5 Q 20 72.2 18 70.5 L 19 72.5 L 17 72.5 L 19 77.5 L 22.5 81 L 25.5 83 L 34.5 84 Q 40.3 82.8 43 78.5 L 44 74.5 L 42 68.5 L 43 68.5 L 44.5 71 L 45 68.5 L 44.5 67 L 48.5 68 L 49 66 L 44 66 L 44 64.5 L 45.5 65 Q 56.3 66.1 61 62 L 63 58.5 L 63 54 L 65 53.5 L 61 51.5 L 63 51.5 L 63.5 50 L 67.5 51 L 66.5 49 L 65 49.5 L 66 44.5 L 65.5 43 L 69 50.5 L 68 53 L 70.5 54 L 72 53.5 L 71.5 55 L 76.5 54 Q 78.3 56.7 84.5 55 L 90 52.5 L 89.5 51 L 91.5 52 L 95 45.5 L 90.5 39 L 89 38.5 L 93 36.5 L 94.5 34 Z M 50 66 L 51 70 L 52 67 L 50 66 Z M 25 83 L 24 85 L 27 85 L 25 83 Z M 32 85 L 32 86 L 34 86 L 32 85 Z M 44 85 L 42 86 L 42 87 L 47 87 L 44 85 Z M 36 86 L 36 87 L 39 87 L 36 86 Z M 37 88 L 29 94 L 30 102 Q 31 104 33 102 L 33 104 Q 36 103 35 106 L 32 107 L 37 107 L 39 104 Q 43 103 45 106 L 46 104 L 48 104 L 52 101 Q 53 94 50 92 Q 47 86 37 88 Z " /><path fill="rgb(253,245,222)" stroke="rgb(253,245,222)" stroke-width="1" opacity="0.9921568627450981" d="M 71.5 40 L 70.5 42 L 71.5 40 Z " /><path fill="rgb(253,245,222)" stroke="rgb(253,245,222)" stroke-width="1" opacity="0.9921568627450981" d="M 124.5 41 L 123.5 43 L 124.5 41 Z " /><path fill="rgb(253,245,222)" stroke="rgb(253,245,222)" stroke-width="1" opacity="0.9921568627450981" d="M 62 44 Q 64.7 42.9 64 45.5 L 62 46.5 L 62 44 Z " /><path fill="rgb(253,245,222)" stroke="rgb(253,245,222)" stroke-width="1" opacity="0.9921568627450981" d="M 112.5 44 L 111.5 46 L 112.5 44 Z " /><path fill="rgb(253,245,222)" stroke="rgb(253,245,222)" stroke-width="1" opacity="0.9921568627450981" d="M 119.5 44 L 120 45.5 L 117 47.5 L 119.5 44 Z " /><path fill="rgb(253,245,222)" stroke="rgb(253,245,222)" stroke-width="1" opacity="0.9921568627450981" d="M 114.5 48 L 114 49.5 L 113.5 51 L 113 49.5 L 114.5 48 Z " /><path fill="rgb(253,245,222)" stroke="rgb(253,245,222)" stroke-width="1" opacity="0.9921568627450981" d="M 105.5 52 L 104.5 54 L 105.5 52 Z " /><path fill="rgb(253,245,222)" stroke="rgb(253,245,222)" stroke-width="1" opacity="0.9921568627450981" d="M 96 64 L 98 64.5 L 96.5 67 L 96 64 Z " /><path fill="rgb(253,245,222)" stroke="rgb(253,245,222)" stroke-width="1" opacity="0.9921568627450981" d="M 90.5 71 L 83.5 79 L 90.5 71 Z " /><path fill="rgb(253,245,222)" stroke="rgb(253,245,222)" stroke-width="1" opacity="0.9921568627450981" d="M 94.5 71 L 95.5 73 L 94.5 71 Z " /><path fill="rgb(253,245,222)" stroke="rgb(253,245,222)" stroke-width="1" opacity="0.9921568627450981" d="M 115.5 79 L 112.5 83 L 110.5 84 L 113.5 80 L 115.5 79 Z " /><path fill="rgb(253,245,222)" stroke="rgb(253,245,222)" stroke-width="1" opacity="0.9921568627450981" d="M 78.5 85 L 81 85.5 L 78.5 86 L 78.5 85 Z " /><path fill="rgb(253,245,222)" stroke="rgb(253,245,222)" stroke-width="1" opacity="0.9921568627450981" d="M 101.5 88 L 100.5 90 L 101.5 88 Z " /><path fill="rgb(253,245,222)" stroke="rgb(253,245,222)" stroke-width="1" opacity="0.9921568627450981" d="M 131.5 88 L 132.5 90 Q 129.7 90.7 131.5 88 Z " /><path fill="rgb(253,245,222)" stroke="rgb(253,245,222)" stroke-width="1" opacity="0.9921568627450981" d="M 103.5 92 L 106 92.5 Q 103.9 95.8 103.5 92 Z " /><path fill="rgb(253,245,222)" stroke="rgb(253,245,222)" stroke-width="1" opacity="0.9921568627450981" d="M 90.5 95 L 91.5 97 L 93 96.5 Q 94.3 100.3 90.5 99 L 88 98.5 L 90.5 95 Z " /><path fill="rgb(253,245,222)" stroke="rgb(253,245,222)" stroke-width="1" opacity="0.9921568627450981" d="M 96.5 95 L 95.5 97 L 96.5 95 Z " /><path fill="rgb(253,245,222)" stroke="rgb(253,245,222)" stroke-width="1" opacity="0.9921568627450981" d="M 94 98 L 96 98.5 L 94 99.5 L 94 98 Z " /><path fill="rgb(253,245,222)" stroke="rgb(253,245,222)" stroke-width="1" opacity="0.9921568627450981" d="M 86.5 102 L 88 104.5 L 86 103.5 L 86.5 102 Z " /><path fill="rgb(253,245,222)" stroke="rgb(253,245,222)" stroke-width="1" opacity="0.9921568627450981" d="M 93 103 L 95 103.5 L 94 104.5 L 97 107.5 L 95.5 109 Q 97.2 106.7 93 104.5 L 93 103 Z " /><path fill="rgb(253,245,222)" stroke="rgb(253,245,222)" stroke-width="1" opacity="0.9921568627450981" d="M 46.5 110 Q 49.5 111.5 46.5 113 L 46.5 110 Z " /><path fill="rgb(253,245,222)" stroke="rgb(253,245,222)" stroke-width="1" opacity="0.9921568627450981" d="M 43.5 111 L 44.5 113 L 43.5 111 Z " /><path fill="rgb(253,245,222)" stroke="rgb(253,245,222)" stroke-width="1" opacity="0.9921568627450981" d="M 78.5 111 L 77.5 113 L 75.5 114 L 76.5 112 L 78.5 111 Z " /><path fill="rgb(253,245,222)" stroke="rgb(253,245,222)" stroke-width="1" opacity="0.9921568627450981" d="M 48.5 113 L 49 114.5 L 46.5 116 L 46.5 115 Q 49 115.7 48.5 113 Z " /><path fill="rgb(253,245,222)" stroke="rgb(253,245,222)" stroke-width="1" opacity="0.9921568627450981" d="M 35.5 114 Q 37.8 113.3 37 115.5 L 35.5 114 Z " /><path fill="rgb(253,245,222)" stroke="rgb(253,245,222)" stroke-width="1" opacity="0.9921568627450981" d="M 69.5 114 L 70.5 116 L 69.5 114 Z " /><path fill="rgb(253,245,222)" stroke="rgb(253,245,222)" stroke-width="1" opacity="0.9921568627450981" d="M 58.5 116 L 62 117.5 L 58 118 L 58.5 116 Z " /><path fill="rgb(253,245,222)" stroke="rgb(253,245,222)" stroke-width="1" opacity="0.9921568627450981" d="M 36.5 117 L 40 118.5 L 38.5 119 L 36.5 117 Z " /><path fill="rgb(253,245,222)" stroke="rgb(253,245,222)" stroke-width="1" opacity="0.9921568627450981" d="M 41.5 119 L 44 120.5 L 42.5 120 L 41.5 119 Z " /><path fill="rgb(253,245,222)" stroke="rgb(253,245,222)" stroke-width="1" opacity="0.9921568627450981" d="M 45.5 121 L 54 123.5 L 52.5 124 L 45.5 122 L 45.5 121 Z " /><path fill="rgb(253,245,222)" stroke="rgb(253,245,222)" stroke-width="1" opacity="0.9921568627450981" d="M 67.5 126 L 75 126.5 L 67.5 127 L 67.5 126 Z " /><path fill="rgb(224,173,103)" stroke="rgb(224,173,103)" stroke-width="1" opacity="0.9333333333333333" d="M 71.5 27 L 74.5 28 Q 75.8 25.7 80.5 27 L 85 28.5 L 69.5 29 L 69.5 28 L 71.5 27 Z " /><path fill="rgb(224,173,103)" stroke="rgb(224,173,103)" stroke-width="1" opacity="0.9333333333333333" d="M 64.5 31 L 68 31.5 L 64.5 32 L 64.5 31 Z " /><path fill="rgb(224,173,103)" stroke="rgb(224,173,103)" stroke-width="1" opacity="0.9333333333333333" d="M 89.5 31 L 92 31.5 L 89.5 32 L 89.5 31 Z " /><path fill="rgb(224,173,103)" stroke="rgb(224,173,103)" stroke-width="1" opacity="0.9333333333333333" d="M 134.5 31 L 137 31.5 L 133.5 33 L 134.5 31 Z " /><path fill="rgb(224,173,103)" stroke="rgb(224,173,103)" stroke-width="1" opacity="0.9333333333333333" d="M 139.5 31 L 141 33.5 L 141 35.5 L 108.5 72 L 104 75.5 L 103.5 78 L 103 75.5 L 103 73.5 L 100 69.5 L 102 69.5 Q 101.3 67.3 103.5 68 L 116 57.5 L 137 35.5 L 137 34 Q 140.8 35.5 140 32.5 L 139.5 31 Z " /><path fill="rgb(224,173,103)" stroke="rgb(224,173,103)" stroke-width="1" opacity="0.9333333333333333" d="M 47.5 33 L 48.5 35 L 47.5 33 Z " /><path fill="rgb(224,173,103)" stroke="rgb(224,173,103)" stroke-width="1" opacity="0.9333333333333333" d="M 110.5 35 L 111.5 38 L 113.5 37 L 115.5 41 L 117 40.5 L 113.5 42 L 109 39 L 110.5 35 Z " /><path fill="rgb(224,173,103)" stroke="rgb(224,173,103)" stroke-width="1" opacity="0.9333333333333333" d="M 38.5 37 L 39.5 39 L 38.5 37 Z " /><path fill="rgb(224,173,103)" stroke="rgb(224,173,103)" stroke-width="1" opacity="0.9333333333333333" d="M 35.5 38 L 35.5 40 L 37.5 39 L 37.5 42 L 35.5 41 L 34 41.5 L 35.5 38 Z " /><path fill="rgb(224,173,103)" stroke="rgb(224,173,103)" stroke-width="1" opacity="0.9333333333333333" d="M 76.5 38 L 82 39.5 L 81.5 41 L 85.5 40 L 91 44.5 Q 91.8 49.3 88.5 50 L 86.5 51 L 74.5 51 L 70 45 Q 72.7 46.1 72 43.5 L 75 41.5 L 73.5 39 Q 74.5 42 79.5 41 L 79.5 40 Q 75.7 40.5 76.5 38 Z M 83 42 L 82 43 Q 78 42 79 45 Q 80 47 84 46 L 83 48 L 87 48 L 87 46 L 83 42 Z M 74 43 L 73 46 L 74 46 L 74 43 Z " /><path fill="rgb(224,173,103)" stroke="rgb(224,173,103)" stroke-width="1" opacity="0.9333333333333333" d="M 125.5 38 L 123.5 41 L 125.5 38 Z " /><path fill="rgb(224,173,103)" stroke="rgb(224,173,103)" stroke-width="1" opacity="0.9333333333333333" d="M 113.5 43 L 114 44.5 L 110 47.5 L 113.5 43 Z " /><path fill="rgb(224,173,103)" stroke="rgb(224,173,103)" stroke-width="1" opacity="0.9333333333333333" d="M 46.5 47 L 51 47.5 L 46.5 48 L 46.5 47 Z " /><path fill="rgb(224,173,103)" stroke="rgb(224,173,103)" stroke-width="1" opacity="0.9333333333333333" d="M 42.5 48 L 43.5 49 L 50 49 L 51 52.5 L 49.5 56 L 46 58.5 L 49.5 59 L 51.5 58 L 53.5 59 L 57 54.5 L 56 52.5 L 57 52.5 L 59 56.5 L 58 57.5 L 59.5 60 L 57.5 60 L 51.5 62 L 46.5 62 L 43 61 L 42.5 59 L 40 60.5 L 40 58.5 L 38 51.5 L 40.5 49 L 43 50.5 L 42.5 48 Z " /><path fill="rgb(224,173,103)" stroke="rgb(224,173,103)" stroke-width="1" opacity="0.9333333333333333" d="M 53.5 48 L 55 48.5 L 52.5 50 L 53.5 48 Z " /><path fill="rgb(224,173,103)" stroke="rgb(224,173,103)" stroke-width="1" opacity="0.9333333333333333" d="M 91.5 49 L 90.5 51 L 91.5 49 Z " /><path fill="rgb(224,173,103)" stroke="rgb(224,173,103)" stroke-width="1" opacity="0.9333333333333333" d="M 111.5 50 L 106.5 56 L 111.5 50 Z " /><path fill="rgb(224,173,103)" stroke="rgb(224,173,103)" stroke-width="1" opacity="0.9333333333333333" d="M 22.5 51 L 25 51.5 L 23.5 53 L 21 52.5 L 22.5 51 Z " /><path fill="rgb(224,173,103)" stroke="rgb(224,173,103)" stroke-width="1" opacity="0.9333333333333333" d="M 15.5 60 L 16 61.5 L 14 62.5 L 15.5 60 Z " /><path fill="rgb(224,173,103)" stroke="rgb(224,173,103)" stroke-width="1" opacity="0.9333333333333333" d="M 12.5 62 L 11.5 64 L 12.5 62 Z " /><path fill="rgb(224,173,103)" stroke="rgb(224,173,103)" stroke-width="1" opacity="0.9333333333333333" d="M 91.5 65 L 90.5 67 L 91.5 65 Z " /><path fill="rgb(224,173,103)" stroke="rgb(224,173,103)" stroke-width="1" opacity="0.9333333333333333" d="M 26.5 69 L 28.5 70 Q 30 67.5 31.5 71 L 36.5 69 L 36.5 71 L 38.5 72 L 41 70.5 L 39 74 Q 42.3 72.9 41 77 L 39 77.5 L 39.5 79 L 38 78.5 L 37.5 80 L 35 79 L 35 81 L 29 81 Q 30.3 78 26.5 79 L 24 78.5 Q 26.2 77.3 23.5 76 L 21 77.5 L 24 71 Q 26.8 72 26.5 69 Z " /><path fill="rgb(224,173,103)" stroke="rgb(224,173,103)" stroke-width="1" opacity="0.9333333333333333" d="M 97.5 72 L 101 74 L 101 78.5 L 96.5 85 L 90 89.5 L 90 91 L 88 91 Q 89.1 93.7 86.5 93 L 83 95.5 Q 85.3 94.3 84 89.5 Q 79.7 87.3 84.5 85 L 94 78.5 Q 93.3 76.3 95.5 77 L 99 74.5 L 97.5 72 Z " /><path fill="rgb(224,173,103)" stroke="rgb(224,173,103)" stroke-width="1" opacity="0.9333333333333333" d="M 113.5 73 L 115 73.5 L 114.5 75 Q 119.9 73.1 119 76.5 L 121 76.5 L 120.5 78 L 114 78 Q 115.1 80.7 112.5 80 L 108 83 Q 109.1 85.7 106.5 85 L 110 80.5 L 113.5 73 Z " /><path fill="rgb(224,173,103)" stroke="rgb(224,173,103)" stroke-width="1" opacity="0.9333333333333333" d="M 119.5 73 L 123 74 L 122.5 77 L 122 75 L 119.5 73 Z " /><path fill="rgb(224,173,103)" stroke="rgb(224,173,103)" stroke-width="1" opacity="0.9333333333333333" d="M 11.5 74 L 12 77.5 L 11 77.5 L 11.5 74 Z " /><path fill="rgb(224,173,103)" stroke="rgb(224,173,103)" stroke-width="1" opacity="0.9333333333333333" d="M 82.5 77 L 81.5 79 L 82.5 77 Z " /><path fill="rgb(224,173,103)" stroke="rgb(224,173,103)" stroke-width="1" opacity="0.9333333333333333" d="M 129.5 78 L 130.5 80 L 129.5 78 Z " /><path fill="rgb(224,173,103)" stroke="rgb(224,173,103)" stroke-width="1" opacity="0.9333333333333333" d="M 76.5 79 L 75.5 81 L 76.5 79 Z " /><path fill="rgb(224,173,103)" stroke="rgb(224,173,103)" stroke-width="1" opacity="0.9333333333333333" d="M 79.5 80 L 76.5 84 L 79.5 80 Z " /><path fill="rgb(224,173,103)" stroke="rgb(224,173,103)" stroke-width="1" opacity="0.9333333333333333" d="M 127.5 80 L 130.5 84 L 127.5 80 Z " /><path fill="rgb(224,173,103)" stroke="rgb(224,173,103)" stroke-width="1" opacity="0.9333333333333333" d="M 11.5 82 L 12 85.5 L 11 85.5 L 11.5 82 Z " /><path fill="rgb(224,173,103)" stroke="rgb(224,173,103)" stroke-width="1" opacity="0.9333333333333333" d="M 71.5 87 Q 77.3 87.3 80 90.5 L 79 94 L 72.5 95 L 66.5 99 L 65.5 96 L 62 98 Q 63.1 100.7 60.5 100 L 58.5 103 L 58 99.5 L 62.5 93 L 71.5 87 Z " /><path fill="rgb(224,173,103)" stroke="rgb(224,173,103)" stroke-width="1" opacity="0.9333333333333333" d="M 61.5 90 L 57.5 95 L 61.5 90 Z " /><path fill="rgb(224,173,103)" stroke="rgb(224,173,103)" stroke-width="1" opacity="0.9333333333333333" d="M 133.5 90 L 134 94.5 L 133 94.5 L 133.5 90 Z " /><path fill="rgb(224,173,103)" stroke="rgb(224,173,103)" stroke-width="1" opacity="0.9333333333333333" d="M 33.5 91 L 36.5 92 L 38.5 91 L 40.5 91 L 44 91.5 L 43.5 93 L 45.5 92 L 45.5 94 L 49 95 Q 50.3 99.6 47.5 101 Q 43.7 103.7 35.5 102 Q 31.5 101.5 32 96.5 L 34 92.5 L 33.5 91 Z " /><path fill="rgb(224,173,103)" stroke="rgb(224,173,103)" stroke-width="1" opacity="0.9333333333333333" d="M 30.5 94 L 31 97.5 L 30 97.5 L 30.5 94 Z " /><path fill="rgb(224,173,103)" stroke="rgb(224,173,103)" stroke-width="1" opacity="0.9333333333333333" d="M 101.5 94 L 104 94.5 L 101.5 95 L 101.5 94 Z " /><path fill="rgb(224,173,103)" stroke="rgb(224,173,103)" stroke-width="1" opacity="0.9333333333333333" d="M 71.5 97 L 73 97.5 L 69.5 100 L 71.5 97 Z " /><path fill="rgb(224,173,103)" stroke="rgb(224,173,103)" stroke-width="1" opacity="0.9333333333333333" d="M 109.5 98 L 112 98.5 L 109.5 99 L 109.5 98 Z " /><path fill="rgb(224,173,103)" stroke="rgb(224,173,103)" stroke-width="1" opacity="0.9333333333333333" d="M 114.5 98 L 114.5 100 Q 117.5 99.1 116 103.5 L 111.5 107 L 107 105.5 L 109 104.5 L 108 100.5 L 109 100.5 L 109.5 103 L 112 102.5 L 114.5 98 Z " /><path fill="rgb(224,173,103)" stroke="rgb(224,173,103)" stroke-width="1" opacity="0.9333333333333333" d="M 97.5 99 L 98 101 L 100.5 100 L 102 102.5 L 102 104.5 Q 103.1 107.8 100.5 107 L 96 101.5 L 97.5 99 Z " /><path fill="rgb(224,173,103)" stroke="rgb(224,173,103)" stroke-width="1" opacity="0.9333333333333333" d="M 118.5 100 L 119 102.5 L 118 102.5 L 118.5 100 Z " /><path fill="rgb(224,173,103)" stroke="rgb(224,173,103)" stroke-width="1" opacity="0.9333333333333333" d="M 66.5 101 L 68 101.5 L 59.5 106 L 59 104 L 66.5 101 Z " /><path fill="rgb(224,173,103)" stroke="rgb(224,173,103)" stroke-width="1" opacity="0.9333333333333333" d="M 19.5 104 L 20.5 106 L 19.5 104 Z " /><path fill="rgb(224,173,103)" stroke="rgb(224,173,103)" stroke-width="1" opacity="0.9333333333333333" d="M 56.5 104 Q 59.5 105.5 56.5 107 L 56.5 104 Z " /><path fill="rgb(224,173,103)" stroke="rgb(224,173,103)" stroke-width="1" opacity="0.9333333333333333" d="M 129.5 104 L 125.5 109 L 129.5 104 Z " /><path fill="rgb(224,173,103)" stroke="rgb(224,173,103)" stroke-width="1" opacity="0.9333333333333333" d="M 15.5 105 L 20 110.5 L 17 108.5 L 15.5 105 Z " /><path fill="rgb(224,173,103)" stroke="rgb(224,173,103)" stroke-width="1" opacity="0.9333333333333333" d="M 52.5 107 L 51.5 109 L 52.5 107 Z " /><path fill="rgb(224,173,103)" stroke="rgb(224,173,103)" stroke-width="1" opacity="0.9333333333333333" d="M 103.5 107 L 109 107.5 L 103.5 108 L 103.5 107 Z " /><path fill="rgb(224,173,103)" stroke="rgb(224,173,103)" stroke-width="1" opacity="0.9333333333333333" d="M 25.5 110 L 27.5 113 L 25.5 110 Z " /><path fill="rgb(224,173,103)" stroke="rgb(224,173,103)" stroke-width="1" opacity="0.9333333333333333" d="M 120.5 113 L 122 114.5 L 117.5 119 L 110.5 123 L 96.5 127 L 96.5 126 L 104 123.5 L 103.5 122 L 105.5 123 L 105.5 121 L 108.5 122 L 108.5 120 L 111.5 121 L 111.5 119 L 113.5 120 L 117 117.5 L 116.5 116 L 118.5 116 L 121 114.5 L 120.5 113 Z " /><path fill="rgb(224,173,103)" stroke="rgb(224,173,103)" stroke-width="1" opacity="0.9333333333333333" d="M 128.5 113 L 127.5 115 L 128.5 113 Z " /><path fill="rgb(224,173,103)" stroke="rgb(224,173,103)" stroke-width="1" opacity="0.9333333333333333" d="M 23.5 114 L 27 116.5 L 24.5 115 L 23.5 114 Z " /><path fill="rgb(224,173,103)" stroke="rgb(224,173,103)" stroke-width="1" opacity="0.9333333333333333" d="M 119.5 120 L 118.5 122 L 119.5 120 Z " /><path fill="rgb(224,173,103)" stroke="rgb(224,173,103)" stroke-width="1" opacity="0.9333333333333333" d="M 40.5 122 L 52 126.5 L 50.5 127 L 40.5 123 L 40.5 122 Z " /><path fill="rgb(224,173,103)" stroke="rgb(224,173,103)" stroke-width="1" opacity="0.9333333333333333" d="M 54.5 127 L 63 128.5 L 58.5 129 L 54.5 128 L 54.5 127 Z " /><path fill="rgb(224,173,103)" stroke="rgb(224,173,103)" stroke-width="1" opacity="0.9333333333333333" d="M 68.5 127 L 79 127.5 L 68.5 128 L 68.5 127 Z " /><path fill="rgb(224,173,103)" stroke="rgb(224,173,103)" stroke-width="1" opacity="0.9333333333333333" d="M 92.5 127 L 95 127.5 Q 92.3 129.8 86.5 129 L 86.5 128 Q 91.3 129.3 92.5 127 Z " /><path fill="rgb(224,173,103)" stroke="rgb(224,173,103)" stroke-width="1" opacity="0.9333333333333333" d="M 74.5 129 L 85 129.5 L 74.5 130 L 74.5 129 Z " /><path fill="rgb(101,49,21)" stroke="rgb(101,49,21)" stroke-width="1" opacity="0.9725490196078431" d="M 135.5 29 L 139.5 29 L 145 32 L 144 36.5 L 145 39.5 L 124.5 62 L 122 63.5 L 120.5 66 L 114 71.5 Q 109 81.5 100.5 88 L 85 99.5 L 79.5 109 Q 72 116 57.5 116 L 48 113 L 49.5 110 L 53 107.5 Q 54 94 63.5 89 L 69.5 87 L 67.5 90 Q 62.8 90.3 61 93.5 L 56 100.5 L 55 107.5 L 56.5 107 L 63.5 105 L 75.5 96 L 82.5 93 L 81 95.5 Q 81.8 97.8 79.5 97 L 68.5 106 L 57 109.5 L 63.5 110 L 71.5 107 L 79 100.5 Q 78.2 97.9 81.5 99 L 87.5 93 L 101 84.5 L 102 82.5 L 101 80.5 L 102 80.5 L 102.5 82 Q 105.8 80.8 105 77 Q 110.4 76.4 113 71.5 L 113 69.5 L 116.5 65 L 119 64.5 L 118 62.5 L 122.5 58 L 123.5 59 L 133 49.5 L 135.5 45 L 137.5 44 Q 139.2 46.8 141 42.5 L 141 40.5 L 143 37.5 L 143 35.5 L 142 31 Q 132 28.8 129.5 35 L 130 33.5 L 131.5 31 L 135.5 29 Z " /><path fill="rgb(101,49,21)" stroke="rgb(101,49,21)" stroke-width="1" opacity="0.9725490196078431" d="M 125.5 35 L 128 35.5 L 96.5 64 L 95 64 L 98 69.5 L 97.5 72 L 95 71 Q 97.1 65.8 92.5 67 L 90 71 L 88.5 71 L 75 84.5 Q 74.2 87.1 77.5 86 L 84 90.5 L 83.5 92 L 82 89 L 71 86.5 L 80.5 76 Q 82.8 76.8 82 74.5 L 113.5 45 L 115.5 45 L 118 43.5 L 117.5 42 L 119.5 42 L 122 40.5 L 120 39.5 L 125.5 35 Z " /><path fill="rgb(101,49,21)" stroke="rgb(101,49,21)" stroke-width="1" opacity="0.9725490196078431" d="M 70.5 42 L 71 43.5 L 70 46.5 L 73.5 51 L 84.5 52 L 91 49 L 90 42.5 L 91 42.5 L 92 48.5 Q 88 54.5 76.5 53 L 69 47.5 L 70.5 42 Z " /><path fill="rgb(101,49,21)" stroke="rgb(101,49,21)" stroke-width="1" opacity="0.9725490196078431" d="M 31.5 44 L 30.5 46 L 31.5 44 Z " /><path fill="rgb(101,49,21)" stroke="rgb(101,49,21)" stroke-width="1" opacity="0.9725490196078431" d="M 22.5 49 L 23.5 51 L 25 50.5 L 21.5 54 L 20 52.5 L 22.5 49 Z " /><path fill="rgb(101,49,21)" stroke="rgb(101,49,21)" stroke-width="1" opacity="0.9725490196078431" d="M 41.5 49 L 39 52.5 L 38.5 54 L 38 52.5 L 41.5 49 Z " /><path fill="rgb(101,49,21)" stroke="rgb(101,49,21)" stroke-width="1" opacity="0.9725490196078431" d="M 57.5 50 L 58.5 52 L 57.5 50 Z " /><path fill="rgb(101,49,21)" stroke="rgb(101,49,21)" stroke-width="1" opacity="0.9725490196078431" d="M 59.5 53 L 61 56.5 L 60 56.5 L 59.5 53 Z " /><path fill="rgb(101,49,21)" stroke="rgb(101,49,21)" stroke-width="1" opacity="0.9725490196078431" d="M 38.5 55 L 41.5 60 Q 45.2 63.3 53.5 62 L 59.5 58 L 56.5 62 L 45.5 63 L 38 57.5 L 38.5 55 Z " /><path fill="rgb(101,49,21)" stroke="rgb(101,49,21)" stroke-width="1" opacity="0.9725490196078431" d="M 17.5 56 L 16 58.5 L 12.5 64 L 13 62.5 L 17.5 56 Z " /><path fill="rgb(101,49,21)" stroke="rgb(101,49,21)" stroke-width="1" opacity="0.9725490196078431" d="M 14.5 64 L 14 65.5 L 13.5 67 L 13 65.5 L 14.5 64 Z " /><path fill="rgb(101,49,21)" stroke="rgb(101,49,21)" stroke-width="1" opacity="0.9725490196078431" d="M 35.5 68 L 41 71.5 L 42 77.5 L 39 79.5 Q 42 78.5 41 73.5 L 38.5 70 Q 34.7 69.8 35.5 68 Z " /><path fill="rgb(101,49,21)" stroke="rgb(101,49,21)" stroke-width="1" opacity="0.9725490196078431" d="M 24.5 69 L 23.5 71 L 22 70.5 L 24.5 69 Z " /><path fill="rgb(101,49,21)" stroke="rgb(101,49,21)" stroke-width="1" opacity="0.9725490196078431" d="M 100.5 70 L 103 75 Q 100 76.3 101 72.5 L 100.5 70 Z " /><path fill="rgb(101,49,21)" stroke="rgb(101,49,21)" stroke-width="1" opacity="0.9725490196078431" d="M 21.5 74 L 25 79.5 L 21 76.5 L 21.5 74 Z " /><path fill="rgb(101,49,21)" stroke="rgb(101,49,21)" stroke-width="1" opacity="0.9725490196078431" d="M 102.5 76 L 103 78.5 L 102 78.5 L 102.5 76 Z " /><path fill="rgb(101,49,21)" stroke="rgb(101,49,21)" stroke-width="1" opacity="0.9725490196078431" d="M 8.5 77 L 9 81.5 L 8 81.5 L 8.5 77 Z " /><path fill="rgb(101,49,21)" stroke="rgb(101,49,21)" stroke-width="1" opacity="0.9725490196078431" d="M 10.5 78 L 11 82.5 L 10 82.5 L 10.5 78 Z " /><path fill="rgb(101,49,21)" stroke="rgb(101,49,21)" stroke-width="1" opacity="0.9725490196078431" d="M 29.5 81 L 35 81.5 L 29.5 82 L 29.5 81 Z " /><path fill="rgb(101,49,21)" stroke="rgb(101,49,21)" stroke-width="1" opacity="0.9725490196078431" d="M 10.5 84 Q 14 104.5 28.5 114 L 38 119.5 L 36.5 120 L 34.5 119 L 35.5 121 Q 46.5 127.5 61.5 130 L 87.5 130 L 106.5 125 L 118.5 119 L 131 107.5 L 135 99.5 L 135.5 94 L 137 98.5 Q 132.6 110.1 123.5 117 L 117.5 122 L 114.5 122 L 103.5 128 L 94.5 129 L 92.5 131 L 90.5 130 Q 89 133.5 87.5 131 L 71.5 132 Q 69.7 129.3 63.5 131 Q 62 133.5 60.5 130 L 55.5 129 L 53.5 130 L 31.5 120 L 20 110.5 L 17 105 Q 14.3 106.1 15 103.5 L 10 94.5 L 12 94.5 L 9 86.5 L 10.5 84 Z M 16 101 L 15 103 L 17 104 L 16 101 Z M 20 106 L 19 108 L 21 109 L 20 106 Z M 22 109 L 23 111 Q 24 108 22 109 Z M 25 112 L 26 114 L 27 114 L 25 112 Z M 29 115 L 33 119 L 34 119 L 29 115 Z " /><path fill="rgb(101,49,21)" stroke="rgb(101,49,21)" stroke-width="1" opacity="0.9725490196078431" d="M 37.5 90 L 44 90.5 L 37.5 91 L 37.5 90 Z " /><path fill="rgb(101,49,21)" stroke="rgb(101,49,21)" stroke-width="1" opacity="0.9725490196078431" d="M 47.5 92 Q 50.8 93.7 50 99.5 L 49 99.5 Q 49.5 93.7 47.5 92 Z " /><path fill="rgb(101,49,21)" stroke="rgb(101,49,21)" stroke-width="1" opacity="0.9725490196078431" d="M 106.5 94 Q 113.4 93.3 116 96 L 118 103.5 L 115.5 107 Q 111.5 110.5 102.5 109 L 95 103.5 L 95 100.5 L 97 97 L 99 97.5 Q 95.5 98 96 102.5 L 98.5 106 Q 102.2 109.3 110.5 108 L 116 104.5 L 117 102.5 L 113.5 97 L 104.5 96 L 99.5 100 L 100 98.5 L 101.5 96 L 106.5 94 Z " /><path fill="rgb(101,49,21)" stroke="rgb(101,49,21)" stroke-width="1" opacity="0.9725490196078431" d="M 32.5 100 L 37 102.5 L 34.5 103 L 32.5 100 Z " /><path fill="rgb(101,49,21)" stroke="rgb(101,49,21)" stroke-width="1" opacity="0.9725490196078431" d="M 41.5 121 L 44 122.5 L 42.5 122 L 41.5 121 Z " /><path fill="rgb(251,235,201)" stroke="rgb(251,235,201)" stroke-width="1" opacity="0.9882352941176471" d="M 69.5 31 L 73 31.5 L 69.5 32 L 69.5 31 Z " /><path fill="rgb(251,235,201)" stroke="rgb(251,235,201)" stroke-width="1" opacity="0.9882352941176471" d="M 81.5 31 L 86 31.5 L 81.5 32 L 81.5 31 Z " /><path fill="rgb(251,235,201)" stroke="rgb(251,235,201)" stroke-width="1" opacity="0.9882352941176471" d="M 137.5 32 L 139 32.5 L 136 34.5 Q 136.8 36.8 134.5 36 L 132 40 L 129 41.5 L 122.5 49 L 108.5 62 L 97 68 L 97 65.5 L 103.5 59 L 106 57.5 L 105.5 56 L 106.5 57 L 112.5 51 L 116 48.5 Q 113.7 47.3 116.5 46 L 116.5 48 L 121 44.5 Q 118.8 43.3 121.5 42 L 123.5 43 L 133 34.5 L 132.5 33 L 134.5 34 L 137.5 32 Z " /><path fill="rgb(251,235,201)" stroke="rgb(251,235,201)" stroke-width="1" opacity="0.9882352941176471" d="M 111.5 40 L 113.5 43 Q 111.3 42.3 112 44.5 L 106.5 52 L 106 49.5 L 111 42.5 Q 108.8 41.3 111.5 40 Z " /><path fill="rgb(251,235,201)" stroke="rgb(251,235,201)" stroke-width="1" opacity="0.9882352941176471" d="M 72.5 42 L 71.5 44 L 72.5 42 Z " /><path fill="rgb(251,235,201)" stroke="rgb(251,235,201)" stroke-width="1" opacity="0.9882352941176471" d="M 29.5 47 L 27.5 50 L 29.5 47 Z " /><path fill="rgb(251,235,201)" stroke="rgb(251,235,201)" stroke-width="1" opacity="0.9882352941176471" d="M 104.5 51 L 103.5 53 L 104.5 51 Z " /><path fill="rgb(251,235,201)" stroke="rgb(251,235,201)" stroke-width="1" opacity="0.9882352941176471" d="M 100.5 56 L 98.5 59 L 100.5 56 Z " /><path fill="rgb(251,235,201)" stroke="rgb(251,235,201)" stroke-width="1" opacity="0.9882352941176471" d="M 37.5 57 L 38.5 59 L 37.5 57 Z " /><path fill="rgb(251,235,201)" stroke="rgb(251,235,201)" stroke-width="1" opacity="0.9882352941176471" d="M 47.5 63 L 50 63.5 L 47.5 64 L 47.5 63 Z " /><path fill="rgb(251,235,201)" stroke="rgb(251,235,201)" stroke-width="1" opacity="0.9882352941176471" d="M 85.5 68 L 84.5 70 L 85.5 68 Z " /><path fill="rgb(251,235,201)" stroke="rgb(251,235,201)" stroke-width="1" opacity="0.9882352941176471" d="M 91.5 69 L 94 70 L 94.5 72 Q 96.3 69.2 98 73.5 L 86.5 83 L 82 85 L 81.5 87 L 81 85 L 77.5 86 L 78 84.5 L 79.5 82 Q 81.8 82.8 81 80.5 L 91 71.5 Q 88.8 70.3 91.5 69 Z " /><path fill="rgb(251,235,201)" stroke="rgb(251,235,201)" stroke-width="1" opacity="0.9882352941176471" d="M 80.5 75 L 78.5 78 L 80.5 75 Z " /><path fill="rgb(251,235,201)" stroke="rgb(251,235,201)" stroke-width="1" opacity="0.9882352941176471" d="M 23.5 76 L 25.5 79 L 23.5 76 Z " /><path fill="rgb(251,235,201)" stroke="rgb(251,235,201)" stroke-width="1" opacity="0.9882352941176471" d="M 11.5 78 L 12 81.5 L 11 81.5 L 11.5 78 Z " /><path fill="rgb(251,235,201)" stroke="rgb(251,235,201)" stroke-width="1" opacity="0.9882352941176471" d="M 41.5 78 L 40.5 80 L 41.5 78 Z " /><path fill="rgb(251,235,201)" stroke="rgb(251,235,201)" stroke-width="1" opacity="0.9882352941176471" d="M 116 78 L 122 78.5 L 120 79.5 Q 127.7 80.3 130.5 86 L 132 85.5 L 131 89.5 L 132 94.5 L 131 98.5 L 131.5 100 Q 129.3 99.3 130 101.5 L 119.5 113 L 112 117.5 L 112.5 119 L 110.5 118 L 107 119.5 L 107.5 121 L 105 120 L 104.5 122 L 102.5 121 L 102.5 123 L 99.5 122 L 99.5 124 L 96.5 123 L 96.5 125 L 93 124 L 92.5 126 L 88.5 124 L 88 126 L 82.5 127 L 80.5 127 L 67.5 126 L 64.5 127 L 63.5 126 L 57 126 Q 58.1 123.3 55.5 124 L 53.5 125 L 53.5 123 L 50.5 124 L 50.5 123 L 52 122.5 L 48.5 122 L 47 122.5 L 47.5 121 L 44.5 122 L 44.5 120 L 42.5 121 L 42.5 119 L 40.5 120 L 40 118 L 33.5 115 L 32 115.5 L 32.5 114 L 30.5 113 L 29 113.5 L 29.5 112 L 25.5 109 Q 24.3 111.2 23 108.5 Q 25.3 107.3 22.5 106 L 21 106.5 L 21 104.5 L 19.5 102 L 18 102.5 L 19 100.5 L 17 100.5 L 18 98.5 L 17 96.5 L 18 96.5 L 19.5 99 Q 22.5 98.2 21 102 L 23.5 102 L 27.5 105 L 28.5 104 L 32.5 106 L 37 105 Q 38.4 108.7 32.5 107 L 31 106.5 Q 30.3 108.8 32.5 108 L 35.5 110 L 38.5 108 L 46.5 107 L 48.5 107 L 50 107.5 L 46 110.5 Q 45.5 114.5 48.5 115 L 51.5 114 L 51.5 116 L 54.5 115 L 54.5 117 L 61.5 118 L 73.5 115 L 82 108.5 L 81.5 107 Q 82.8 109.3 84 106.5 L 85 102.5 L 92 95.5 L 91.5 94 L 93.5 95 L 94.5 92 L 96.5 93 L 97.5 90 L 99.5 90 L 102 88.5 L 101 87.5 L 108.5 80 L 109 81.5 L 106 85.5 L 112 81.5 L 111.5 83 L 115 80.5 L 114.5 79 L 116 79.5 L 116 78 Z M 104 92 L 97 95 L 94 99 L 95 101 L 93 101 Q 92 107 97 108 L 99 107 L 98 109 L 103 111 Q 111 112 116 109 Q 120 107 117 106 L 119 106 L 118 104 L 120 104 L 120 100 L 118 100 L 119 98 L 115 96 L 117 96 L 117 94 Q 113 91 104 92 Z M 93 96 L 90 99 L 93 99 L 93 96 Z M 36 114 L 37 116 Q 38 113 36 114 Z " /><path fill="rgb(251,235,201)" stroke="rgb(251,235,201)" stroke-width="1" opacity="0.9882352941176471" d="M 74.5 81 L 73.5 83 L 74.5 81 Z " /><path fill="rgb(251,235,201)" stroke="rgb(251,235,201)" stroke-width="1" opacity="0.9882352941176471" d="M 38.5 89 L 43 89.5 L 38.5 90 L 38.5 89 Z " /><path fill="rgb(251,235,201)" stroke="rgb(251,235,201)" stroke-width="1" opacity="0.9882352941176471" d="M 32.5 91 L 31.5 93 L 32.5 91 Z " /><path fill="rgb(251,235,201)" stroke="rgb(251,235,201)" stroke-width="1" opacity="0.9882352941176471" d="M 97.5 96 L 96.5 98 L 97.5 96 Z " /><path fill="rgb(251,235,201)" stroke="rgb(251,235,201)" stroke-width="1" opacity="0.9882352941176471" d="M 53.5 101 L 54 104.5 L 53 104.5 L 53.5 101 Z " /><path fill="rgb(251,235,201)" stroke="rgb(251,235,201)" stroke-width="1" opacity="0.9882352941176471" d="M 95.5 104 L 96.5 106 L 95.5 104 Z " /><path fill="rgb(244,216,150)" stroke="rgb(244,216,150)" stroke-width="1" opacity="0.8470588235294118" d="M 72.5 27 L 75 27.5 L 72.5 28 L 72.5 27 Z " /><path fill="rgb(244,216,150)" stroke="rgb(244,216,150)" stroke-width="1" opacity="0.8470588235294118" d="M 81.5 27 L 84 27.5 L 81.5 28 L 81.5 27 Z " /><path fill="rgb(244,216,150)" stroke="rgb(244,216,150)" stroke-width="1" opacity="0.8470588235294118" d="M 144.5 28 L 145 29.5 L 143 30.5 L 144.5 28 Z " /><path fill="rgb(244,216,150)" stroke="rgb(244,216,150)" stroke-width="1" opacity="0.8470588235294118" d="M 137.5 31 L 140 32.5 L 140 34 Q 136.3 32.5 137 35.5 L 113.5 60 L 102 68 L 101.5 70 L 98 68.5 L 108.5 62 L 129 42.5 L 130.5 40 Q 132.8 40.8 132 38.5 L 136 36 L 137.5 33 L 139 32.5 L 137.5 31 Z " /><path fill="rgb(244,216,150)" stroke="rgb(244,216,150)" stroke-width="1" opacity="0.8470588235294118" d="M 113.5 36 L 116.5 40 L 113.5 36 Z " /><path fill="rgb(244,216,150)" stroke="rgb(244,216,150)" stroke-width="1" opacity="0.8470588235294118" d="M 75.5 40 L 80 40.5 L 73.5 42 L 73.5 41 L 75.5 40 Z " /><path fill="rgb(244,216,150)" stroke="rgb(244,216,150)" stroke-width="1" opacity="0.8470588235294118" d="M 81.5 40 Q 85.3 39.3 86 41.5 L 84.5 41 Q 80.5 41.8 81.5 40 Z " /><path fill="rgb(244,216,150)" stroke="rgb(244,216,150)" stroke-width="1" opacity="0.8470588235294118" d="M 82.5 42 L 87 45.5 L 86.5 48 L 83 47.5 L 83.5 46 Q 79.8 46.8 79 44.5 Q 78.2 41.9 81.5 43 L 82.5 42 Z " /><path fill="rgb(244,216,150)" stroke="rgb(244,216,150)" stroke-width="1" opacity="0.8470588235294118" d="M 50 49 Q 56.1 49.3 59 53.5 L 58.5 55 Q 56.7 52.2 55 56.5 L 53.5 59 L 50.5 58 L 46.5 59 L 48.5 56 L 51 54.5 L 51 52.5 L 50 49 Z " /><path fill="rgb(244,216,150)" stroke="rgb(244,216,150)" stroke-width="1" opacity="0.8470588235294118" d="M 42.5 50 L 40.5 53 L 42.5 50 Z " /><path fill="rgb(244,216,150)" stroke="rgb(244,216,150)" stroke-width="1" opacity="0.8470588235294118" d="M 130.5 56 L 129.5 58 L 130.5 56 Z " /><path fill="rgb(244,216,150)" stroke="rgb(244,216,150)" stroke-width="1" opacity="0.8470588235294118" d="M 129.5 59 L 128 61.5 L 127.5 64 L 127 61.5 L 129.5 59 Z " /><path fill="rgb(244,216,150)" stroke="rgb(244,216,150)" stroke-width="1" opacity="0.8470588235294118" d="M 120.5 66 L 119.5 68 L 120.5 66 Z " /><path fill="rgb(244,216,150)" stroke="rgb(244,216,150)" stroke-width="1" opacity="0.8470588235294118" d="M 30.5 69 Q 38.1 67.9 40 72.5 L 39.5 74 L 37.5 71 L 34.5 70 L 31.5 71 L 30.5 69 Z " /><path fill="rgb(244,216,150)" stroke="rgb(244,216,150)" stroke-width="1" opacity="0.8470588235294118" d="M 22 72 L 24 72.5 L 22 73.5 L 22 72 Z " /><path fill="rgb(244,216,150)" stroke="rgb(244,216,150)" stroke-width="1" opacity="0.8470588235294118" d="M 97.5 74 L 99 74.5 L 94 77 L 91.5 81 L 82.5 87 L 82 85 L 97.5 74 Z " /><path fill="rgb(244,216,150)" stroke="rgb(244,216,150)" stroke-width="1" opacity="0.8470588235294118" d="M 127.5 74 L 129 77.5 L 127 76.5 L 127.5 74 Z " /><path fill="rgb(244,216,150)" stroke="rgb(244,216,150)" stroke-width="1" opacity="0.8470588235294118" d="M 39.5 77 L 38.5 79 L 39.5 77 Z " /><path fill="rgb(244,216,150)" stroke="rgb(244,216,150)" stroke-width="1" opacity="0.8470588235294118" d="M 110.5 78 L 110 79.5 L 109.5 81 L 109 79.5 L 110.5 78 Z " /><path fill="rgb(244,216,150)" stroke="rgb(244,216,150)" stroke-width="1" opacity="0.8470588235294118" d="M 43.5 92 L 48 94.5 L 46.5 94 Q 42.8 93.8 43.5 92 Z " /><path fill="rgb(244,216,150)" stroke="rgb(244,216,150)" stroke-width="1" opacity="0.8470588235294118" d="M 33.5 93 L 33 94.5 L 32.5 96 L 32 94.5 L 33.5 93 Z " /><path fill="rgb(244,216,150)" stroke="rgb(244,216,150)" stroke-width="1" opacity="0.8470588235294118" d="M 106.5 93 L 110 93.5 L 106.5 94 L 106.5 93 Z " /><path fill="rgb(244,216,150)" stroke="rgb(244,216,150)" stroke-width="1" opacity="0.8470588235294118" d="M 106.5 96 Q 112.9 95.6 115 99.5 L 113 99.5 L 111.5 103 L 109 102.5 L 108.5 100 L 108 103.5 L 108.5 105 L 107 105.5 L 111 106.5 L 102 107 L 101 103.5 L 101 101.5 L 101 99 Q 103.7 100.1 103 97.5 Q 104.8 99.1 106.5 96 Z M 110 98 L 110 99 L 112 99 L 110 98 Z " /><path fill="rgb(244,216,150)" stroke="rgb(244,216,150)" stroke-width="1" opacity="0.8470588235294118" d="M 12.5 103 L 13.5 105 L 15 104.5 L 14.5 106 L 17 107.5 L 15.5 107 L 12 104.5 L 12.5 103 Z " /><path fill="rgb(244,216,150)" stroke="rgb(244,216,150)" stroke-width="1" opacity="0.8470588235294118" d="M 124.5 109 L 121.5 113 L 124.5 109 Z " /><path fill="rgb(244,216,150)" stroke="rgb(244,216,150)" stroke-width="1" opacity="0.8470588235294118" d="M 130.5 110 L 129.5 112 L 130.5 110 Z " /><path fill="rgb(244,216,150)" stroke="rgb(244,216,150)" stroke-width="1" opacity="0.8470588235294118" d="M 19.5 112 L 20.5 114 L 19.5 112 Z " /><path fill="rgb(244,216,150)" stroke="rgb(244,216,150)" stroke-width="1" opacity="0.8470588235294118" d="M 24.5 115 L 23.5 117 L 24.5 115 Z " /><path fill="rgb(244,216,150)" stroke="rgb(244,216,150)" stroke-width="1" opacity="0.8470588235294118" d="M 27.5 117 Q 30.5 118.5 27.5 120 Q 24.5 118.5 27.5 117 Z " /><path fill="rgb(244,216,150)" stroke="rgb(244,216,150)" stroke-width="1" opacity="0.8470588235294118" d="M 58 131 L 60 131.5 L 58 132.5 L 58 131 Z " /><path fill="rgb(244,216,150)" stroke="rgb(244,216,150)" stroke-width="1" opacity="0.8470588235294118" d="M 65.5 132 L 69 133.5 L 67.5 134 L 65.5 132 Z " /><path fill="rgb(244,216,150)" stroke="rgb(244,216,150)" stroke-width="1" opacity="0.8470588235294118" d="M 83.5 132 L 85 132.5 L 82.5 134 L 83.5 132 Z " /></svg>