<?xml version="1.0" encoding="UTF-8"?>
<svg version="1.1" xmlns="http://www.w3.org/2000/svg" width="632" height="586">
<path d="M0 0 C1.39386451 1.00274245 2.78973409 2.00270307 4.1875 3 C7.74460259 5.65736488 10.27885649 8.50138691 13 12 C13.598125 12.5775 14.19625 13.155 14.8125 13.75 C16 15 16 15 16 17 C16.57234375 17.21785156 17.1446875 17.43570313 17.734375 17.66015625 C20.73587034 19.43517849 22.22393049 21.61225863 24.25 24.4375 C25.30960937 25.88962891 25.30960937 25.88962891 26.390625 27.37109375 C28 30 28 30 28 33 C28.66 33 29.32 33 30 33 C33.61808319 37.41362558 36.3340367 42.53926388 39 47.5625 C41.25267179 51.78995493 43.75280771 55.53992847 46.69921875 59.30859375 C48.33377306 61.43400521 49.64598498 63.68689101 51 66 C52.58660076 68.34505332 54.18377525 70.68210772 55.79296875 73.01171875 C57 75 57 75 57 77 C57.99 77.33 58.98 77.66 60 78 C60 78.99 60 79.98 60 81 C60.99 81.33 61.98 81.66 63 82 C64.71875 84.1796875 64.71875 84.1796875 66.5 86.875 C68.87472493 90.47735882 68.87472493 90.47735882 71.71875 93.6953125 C73 95 73 95 73 97 C73.99 97.33 74.98 97.66 76 98 C78.1875 99.875 78.1875 99.875 80 102 C80 102.99 80 103.98 80 105 C80.59554688 105.26167969 81.19109375 105.52335937 81.8046875 105.79296875 C85.74617048 107.96008306 88.18745002 111.55529593 91 115 C91.79019531 115.94230469 92.58039063 116.88460937 93.39453125 117.85546875 C109.92280661 138.04531402 118.09455049 163.94864884 116 190 C113.67848786 211.38287417 104.396816 229.10113644 88 243 C87.05125 243.86625 86.1025 244.7325 85.125 245.625 C67.12717655 259.30334582 43.84560488 261.92482506 22 260 C14.83488757 258.94848447 7.9189638 257.10508805 1 255 C-0.71896484 254.49919922 -0.71896484 254.49919922 -2.47265625 253.98828125 C-7.71222921 252.35220906 -12.67213334 250.28650874 -17.6875 248.0625 C-43.06192915 237.00829324 -69.81961963 233.17596499 -96.2734375 243.24609375 C-98.0721823 243.97869511 -99.87083773 244.71154491 -101.66650391 245.45166016 C-130.97970632 257.45903776 -163.06135433 267.49031171 -194 255 C-195.35738281 254.48179687 -195.35738281 254.48179687 -196.7421875 253.953125 C-216.06143956 246.01727062 -229.99456782 230.74193409 -238.23828125 211.8671875 C-247.07960236 190.19461575 -244.32774177 163.34935093 -235.49609375 142.109375 C-232.14474053 135.14416048 -228.28734063 128.43101095 -224 122 C-223.34 122 -222.68 122 -222 122 C-221.87625 121.360625 -221.7525 120.72125 -221.625 120.0625 C-221.41875 119.381875 -221.2125 118.70125 -221 118 C-220.34 117.67 -219.68 117.34 -219 117 C-218.67 116.01 -218.34 115.02 -218 114 C-215.5625 111.3125 -215.5625 111.3125 -213 109 C-212.34 109 -211.68 109 -211 109 C-210.731875 108.360625 -210.46375 107.72125 -210.1875 107.0625 C-209 105 -209 105 -206 104 C-204.89163577 102.11683841 -204.89163577 102.11683841 -204 100 C-203.01 98.515 -203.01 98.515 -202 97 C-201.34 97 -200.68 97 -200 97 C-199.731875 96.42765625 -199.46375 95.8553125 -199.1875 95.265625 C-197.95867364 92.92115366 -196.57477824 90.87595062 -195 88.75 C-194.484375 88.04359375 -193.96875 87.3371875 -193.4375 86.609375 C-192.963125 86.07828125 -192.48875 85.5471875 -192 85 C-191.34 85 -190.68 85 -190 85 C-189.505 83.02 -189.505 83.02 -189 81 C-188.34 81 -187.68 81 -187 81 C-186.505 79.02 -186.505 79.02 -186 77 C-185.34 77 -184.68 77 -184 77 C-183.71125 76.236875 -183.4225 75.47375 -183.125 74.6875 C-182 72 -182 72 -180 69 C-179.34 69 -178.68 69 -178 69 C-177.87939209 68.4131543 -177.75878418 67.82630859 -177.63452148 67.22167969 C-176.9830379 64.9406098 -176.15588473 63.42044249 -174.84765625 61.453125 C-174.18503784 60.44499756 -174.18503784 60.44499756 -173.5090332 59.41650391 C-173.03167725 58.70155762 -172.55432129 57.98661133 -172.0625 57.25 C-171.05607348 55.72215592 -170.05089353 54.19349006 -169.046875 52.6640625 C-168.53705078 51.88836914 -168.02722656 51.11267578 -167.50195312 50.31347656 C-165.64367156 47.45114299 -163.84708487 44.55392307 -162.05810547 41.64794922 C-155.25582872 30.60058247 -147.93815976 20.44941545 -139 11 C-138.45988281 10.4121875 -137.91976562 9.824375 -137.36328125 9.21875 C-136 8 -136 8 -134 8 C-133.34 6.68 -132.68 5.36 -132 4 C-131.34 4 -130.68 4 -130 4 C-130 3.34 -130 2.68 -130 2 C-120.3554324 -7.17477491 -106.42782048 -12.69448167 -94 -17 C-93.22914063 -17.26941406 -92.45828125 -17.53882813 -91.6640625 -17.81640625 C-61.82298583 -27.55947071 -24.06457945 -19.88179702 0 0 Z " fill="#4A311F" transform="translate(379,282)"/>
<path d="M0 0 C16.15814271 13.70174444 25.4329768 34.3538092 27.3190918 55.23339844 C28.80410386 77.43042081 27.50312887 99.6940139 17.5 119.9375 C17.20480469 120.576875 16.90960938 121.21625 16.60546875 121.875 C9.811815 136.21394578 -0.23813083 149.07616015 -13.5 157.9375 C-14.1703125 158.45054687 -14.840625 158.96359375 -15.53125 159.4921875 C-25.60935568 166.89079683 -41.3529827 169.00423548 -53.41308594 167.23364258 C-61.31729734 165.87527962 -67.77919682 163.43627868 -74.5 158.9375 C-75.25023437 158.43863281 -76.00046875 157.93976563 -76.7734375 157.42578125 C-81.05784318 154.39165753 -84.40989513 151.1863942 -87.5 146.9375 C-87.5 146.2775 -87.5 145.6175 -87.5 144.9375 C-88.49 144.6075 -89.48 144.2775 -90.5 143.9375 C-92.81498306 140.45237523 -94.58955408 136.65682383 -96.5 132.9375 C-96.93699219 132.18339844 -97.37398438 131.42929688 -97.82421875 130.65234375 C-105.85576713 116.28676668 -106.99058262 101.45326797 -107.0625 85.375 C-107.07117096 84.59965912 -107.07984192 83.82431824 -107.08877563 83.02548218 C-107.20634208 67.85300154 -105.10204728 52.76269308 -98.5 38.9375 C-98.05785156 37.98746094 -97.61570312 37.03742188 -97.16015625 36.05859375 C-92.30396632 25.97266081 -86.47904292 14.93514209 -78.5 6.9375 C-77.46939453 6.69386719 -77.46939453 6.69386719 -76.41796875 6.4453125 C-75.78503906 6.27773437 -75.15210938 6.11015625 -74.5 5.9375 C-74.2009375 5.339375 -73.901875 4.74125 -73.59375 4.125 C-70.2512041 -2.5600918 -59.79490674 -6.86688768 -52.98828125 -9.3203125 C-33.72671046 -15.065522 -15.89729982 -12.17618671 0 0 Z " fill="#4A301E" transform="translate(444.5,58.0625)"/>
<path d="M0 0 C4.83046858 3.9177994 8.77459261 8.38647988 12.54296875 13.3125 C13.19761108 14.16521484 13.19761108 14.16521484 13.86547852 15.03515625 C16.76514782 18.87609366 19.30480357 22.77375257 21.5078125 27.0625 C22.29301238 28.57956544 23.15524701 30.05705562 24.05078125 31.51171875 C31.00339605 43.39668593 34.16622381 59.46692165 34.54296875 73.0625 C34.56343262 73.72475586 34.58389648 74.38701172 34.60498047 75.06933594 C35.30856845 100.94509221 30.589926 126.6061513 13.54296875 147.0625 C11.02231357 149.60811217 8.37459818 151.87135818 5.54296875 154.0625 C4.66125 154.75472656 4.66125 154.75472656 3.76171875 155.4609375 C-7.46662117 163.88219244 -20.5622136 167.11663204 -34.45703125 165.4375 C-53.04674492 162.16618052 -68.077671 152.11795122 -79.45703125 137.0625 C-79.45703125 136.0725 -79.45703125 135.0825 -79.45703125 134.0625 C-80.11703125 134.0625 -80.77703125 134.0625 -81.45703125 134.0625 C-82.82421875 132.15625 -82.82421875 132.15625 -84.33203125 129.5625 C-84.82445312 128.7271875 -85.316875 127.891875 -85.82421875 127.03125 C-89.48767525 120.37042001 -92.36059763 113.90636574 -94.58203125 106.625 C-94.95908203 105.43293945 -94.95908203 105.43293945 -95.34375 104.21679688 C-97.90171133 95.98712547 -99.76446208 88.14968965 -99.828125 79.50390625 C-99.83715347 78.7158812 -99.84618195 77.92785614 -99.85548401 77.11595154 C-99.86988971 75.45632662 -99.87884891 73.79664616 -99.88256836 72.13696289 C-99.8943587 69.66123259 -99.94354578 67.18808924 -99.99414062 64.71289062 C-100.20601712 43.54895901 -93.12365494 25.56243554 -81.45703125 8.0625 C-80.79703125 8.0625 -80.13703125 8.0625 -79.45703125 8.0625 C-79.36679688 7.47339844 -79.2765625 6.88429688 -79.18359375 6.27734375 C-77.80500516 2.07487208 -73.81895952 -0.25761463 -70.45703125 -2.9375 C-69.87308594 -3.40671875 -69.28914063 -3.8759375 -68.6875 -4.359375 C-47.27728482 -20.60506521 -20.25370961 -14.83875918 0 0 Z " fill="#49301E" transform="translate(260.45703125,59.9375)"/>
<path d="M0 0 C1.010625 0.598125 2.02125 1.19625 3.0625 1.8125 C11.22437947 7.89049535 18.49988626 14.15022063 25 22 C25.70125 22.78375 26.4025 23.5675 27.125 24.375 C44.61575628 48.8620588 49.84479279 78.51951019 46.4375 108 C44.31366922 119.20245951 38.69361034 131.55529841 31 140 C30.34 140 29.68 140 29 140 C29 140.99 29 141.98 29 143 C28.38125 143.0825 27.7625 143.165 27.125 143.25 C24.84696322 143.77341441 24.84696322 143.77341441 24.125 145.8125 C21.48144222 150.95275124 14.24293946 153.86887712 9 156 C-5.9598416 160.78930181 -22.91435649 158.82198028 -36.6875 151.875 C-39.1382405 150.60578824 -41.57090399 149.31055368 -44 148 C-44 147.34 -44 146.68 -44 146 C-44.680625 145.79375 -45.36125 145.5875 -46.0625 145.375 C-49.91639375 143.57104973 -53.07787764 141.0989655 -56 138 C-56 137.34 -56 136.68 -56 136 C-56.57363281 135.77054688 -57.14726563 135.54109375 -57.73828125 135.3046875 C-60.589972 133.65967073 -62.1491943 131.70251978 -64.1875 129.125 C-64.88230469 128.26132812 -65.57710937 127.39765625 -66.29296875 126.5078125 C-67.85244234 124.21677807 -68.5789823 122.70205392 -69 120 C-69.66 120 -70.32 120 -71 120 C-85.22390376 92.50515873 -94.47155577 62.99140383 -84.77148438 32.12158203 C-82.46922535 25.7903697 -79.29081631 19.86276497 -76 14 C-75.34 14 -74.68 14 -74 14 C-73.7525 13.443125 -73.505 12.88625 -73.25 12.3125 C-71.77075182 9.57589087 -70.06532561 7.32349131 -68 5 C-67.34 5 -66.68 5 -66 5 C-66 4.34 -66 3.68 -66 3 C-46.82986268 -12.76211291 -20.74206525 -12.29402917 0 0 Z " fill="#4A301E" transform="translate(128,200)"/>
<path d="M0 0 C1.16789063 0.70189453 1.16789063 0.70189453 2.359375 1.41796875 C13.36708173 8.41469738 20.75805074 18.16209246 26 30 C26.29777344 30.64453125 26.59554687 31.2890625 26.90234375 31.953125 C34.42079534 49.75801534 32.25819978 72.64502011 28 91 C27.74863281 92.093125 27.49726562 93.18625 27.23828125 94.3125 C26.04702004 99.05233295 24.72951464 102.90572804 22 107 C21.5875 108.010625 21.175 109.02125 20.75 110.0625 C15.0213826 123.59489722 5.63704711 135.00445784 -5 145 C-5.66 145 -6.32 145 -7 145 C-7 145.66 -7 146.32 -7 147 C-9.1640625 148.4375 -9.1640625 148.4375 -12 150 C-13.31097656 150.7425 -13.31097656 150.7425 -14.6484375 151.5 C-30.53141222 160.23791159 -46.30376198 164.07793152 -64.25390625 158.9765625 C-68.51473524 157.46133171 -72.22321791 155.47052663 -76 153 C-76.99773437 152.38898438 -76.99773437 152.38898438 -78.015625 151.765625 C-91.01316784 143.06648215 -99.17448616 126.74811333 -102.1875 111.75 C-106.51658544 84.57725834 -102.20308871 56.77150663 -86.26953125 33.98046875 C-84.83955537 31.92824389 -84.83955537 31.92824389 -84 29 C-83.34 29 -82.68 29 -82 29 C-81.690625 27.9790625 -81.690625 27.9790625 -81.375 26.9375 C-79.57104973 23.08360625 -77.0989655 19.92212236 -74 17 C-73.34 17 -72.68 17 -72 17 C-71.505 15.515 -71.505 15.515 -71 14 C-53.10032017 -2.81578918 -22.95096557 -13.86997329 0 0 Z " fill="#4A311F" transform="translate(559,197)"/>
<path d="M0 0 C0.66 0.33 1.32 0.66 2 1 C1.01 1 0.02 1 -1 1 C-0.67 0.67 -0.34 0.34 0 0 Z M-1 2 C-2.39347376 5.15204981 -4.02485079 7.26171773 -6.4765625 9.671875 C-7.48203125 10.66767578 -7.48203125 10.66767578 -8.5078125 11.68359375 C-9.20648438 12.36550781 -9.90515625 13.04742187 -10.625 13.75 C-11.33140625 14.44738281 -12.0378125 15.14476562 -12.765625 15.86328125 C-14.50598703 17.58012488 -16.25084981 19.29211832 -18 21 C-18.66 20.67 -19.32 20.34 -20 20 C-18.71580959 18.32756598 -17.42242815 16.66218553 -16.125 15 C-15.04605469 13.6078125 -15.04605469 13.6078125 -13.9453125 12.1875 C-13.30335938 11.465625 -12.66140625 10.74375 -12 10 C-11.34 10 -10.68 10 -10 10 C-9.67 9.01 -9.34 8.02 -9 7 C-3.53488372 2 -3.53488372 2 -1 2 Z " fill="#452A19" transform="translate(497,204)"/>
<path d="M0 0 C0.99 0.33 1.98 0.66 3 1 C-1.75 5 -1.75 5 -4 5 C-4.2475 5.5775 -4.495 6.155 -4.75 6.75 C-6.16683317 9.3002997 -7.87627537 11.01785701 -10 13 C-10.99 12.67 -11.98 12.34 -13 12 C-11.37660195 10.29115995 -9.70680947 8.62553283 -8 7 C-7.34 7 -6.68 7 -6 7 C-5.34 5.68 -4.68 4.36 -4 3 C-3.34 3 -2.68 3 -2 3 C-2 2.34 -2 1.68 -2 1 C-1.34 0.67 -0.68 0.34 0 0 Z " fill="#412817" transform="translate(251,283)"/>
<path d="M0 0 C-2.6802822 1.43473929 -5.14749077 2.39715699 -8.109375 3.0703125 C-9.24052734 3.33134766 -9.24052734 3.33134766 -10.39453125 3.59765625 C-11.17183594 3.77167969 -11.94914062 3.94570313 -12.75 4.125 C-13.93916016 4.39763672 -13.93916016 4.39763672 -15.15234375 4.67578125 C-17.10052366 5.12175014 -19.05012731 5.56149151 -21 6 C-21 5.34 -21 4.68 -21 4 C-13.75880117 1.25545087 -7.76751234 -0.51783416 0 0 Z " fill="#442815" transform="translate(304,262)"/>
<path d="M0 0 C6.0509304 1.16554807 12.03466226 2.45343096 18 4 C15 6 15 6 11.42578125 5.3203125 C10.05091752 4.93508498 8.67985079 4.53609893 7.3125 4.125 C6.61060547 3.92519531 5.90871094 3.72539063 5.18554688 3.51953125 C3.45365057 3.02470374 1.72634252 2.51386825 0 2 C0 1.34 0 0.68 0 0 Z " fill="#402414" transform="translate(187,536)"/>
<path d="M0 0 C9.41002278 -0.3690205 9.41002278 -0.3690205 14 2 C14 2.33 14 2.66 14 3 C11.8535247 2.88655624 9.70779408 2.75893655 7.5625 2.625 C6.36753906 2.55539063 5.17257813 2.48578125 3.94140625 2.4140625 C2.97074219 2.27742187 2.00007813 2.14078125 1 2 C0.67 1.34 0.34 0.68 0 0 Z " fill="#432817" transform="translate(91,191)"/>
<path d="M0 0 C3.19199167 2.41556126 5.74716687 4.68003538 8 8 C4.21479387 7.45925627 2.40822445 5.92427254 0 3 C0 2.01 0 1.02 0 0 Z " fill="#3B1D11" transform="translate(386,288)"/>
</svg>
