<svg width="152" height="152" version="1.1" xmlns="http://www.w3.org/2000/svg" desc="Created with imagetracer.js version 1.2.6" ><path fill="rgb(63,20,6)" stroke="rgb(63,20,6)" stroke-width="1" opacity="0.9607843137254902" d="M 76.5 20 L 85 22.5 L 83.5 23 L 76.5 21 L 76.5 20 Z " /><path fill="rgb(63,20,6)" stroke="rgb(63,20,6)" stroke-width="1" opacity="0.9607843137254902" d="M 68.5 21 L 71.5 22 L 73.5 21 L 73.5 22 L 68 24.5 Q 68.8 26.8 66.5 26 L 65 25.5 L 64.5 27 L 64 25.5 L 66.5 22 L 68.5 21 Z " /><path fill="rgb(63,20,6)" stroke="rgb(63,20,6)" stroke-width="1" opacity="0.9607843137254902" d="M 78.5 23 L 84 24.5 L 82.5 25 L 78.5 24 L 78.5 23 Z " /><path fill="rgb(63,20,6)" stroke="rgb(63,20,6)" stroke-width="1" opacity="0.9607843137254902" d="M 86.5 23 Q 89.9 25.6 89 32.5 L 88 32.5 L 88 27.5 L 86.5 23 Z " /><path fill="rgb(63,20,6)" stroke="rgb(63,20,6)" stroke-width="1" opacity="0.9607843137254902" d="M 63.5 28 L 64 32.5 L 61.5 36 L 62 34.5 L 63.5 28 Z " /><path fill="rgb(63,20,6)" stroke="rgb(63,20,6)" stroke-width="1" opacity="0.9607843137254902" d="M 86.5 29 Q 86.1 37.4 91.5 40 L 100.5 41 L 102.5 38 L 98.5 40 L 99.5 38 L 103 37 Q 101.9 34.3 104.5 35 Q 106 31.5 112.5 33 Q 120.6 36.9 122 47.5 L 117 55.5 L 117 59.5 L 118 62 L 120 62.5 L 118.5 63 L 115 59.5 L 116 58.5 L 115 56.5 L 118 50.5 L 119 42.5 L 114.5 36 Q 112 32.8 106 34 Q 104.9 36.7 107.5 36 L 107.5 37 Q 103.7 41.7 96.5 43 L 88 38.5 Q 84.4 35.7 86.5 29 Z M 120 44 L 119 49 L 120 49 L 120 44 Z " /><path fill="rgb(63,20,6)" stroke="rgb(63,20,6)" stroke-width="1" opacity="0.9607843137254902" d="M 65.5 30 L 66 34.5 L 63.5 38 Q 59.8 41.3 51.5 40 L 43.5 36 L 35 43.5 L 35 46.5 L 41 55.5 L 41 60.5 L 37.5 65 Q 33.8 68.3 25.5 67 L 24 68.5 L 23 70.5 L 23 81.5 L 26.5 85 L 35.5 86 L 39 88.5 L 37.5 88 L 28.5 87 L 23 83.5 L 22 81.5 L 22 70.5 L 23 67.5 L 22 67.5 L 21 69.5 L 21 82.5 L 24.5 87 Q 27.4 89.6 33.5 89 L 37 91 L 38.5 98 L 39 92.5 L 38 90.5 L 39 90.5 L 41 95.5 L 35 104.5 L 35 107.5 L 35.5 109 L 34 108.5 Q 33.2 111.1 36.5 110 L 41.5 116 L 45.5 117 Q 48.9 110.9 57.5 110 L 62.5 111 L 65 113.5 L 62.5 112 Q 51.8 110.3 48 115.5 L 50.5 117 Q 53.3 113.3 59.5 113 L 65 119.5 Q 64.3 125.6 66 128 L 68 127.5 L 67 124.5 L 68 124.5 L 70 127.5 L 68 128 Q 66.7 131.3 71.5 130 L 78 131 L 77.5 133 L 70.5 133 L 65 130 L 63 118.5 L 59.5 115 L 56.5 115 L 46.5 121 L 42.5 121 L 36 116.5 L 35 113 Q 32.3 114.1 33 111.5 Q 30.4 110.1 31 105.5 Q 35.7 101.7 37 94.5 L 33.5 91 Q 24.3 91.2 21 85.5 L 20 83.5 L 20 69.5 L 24.5 64 L 34.5 63 L 37 60.5 L 36 55.5 L 31 49.5 L 31 43.5 L 37 35 L 43.5 32 L 47.5 32 L 48.5 34 L 43.5 33 Q 37.4 34.4 35 39.5 L 35.5 41 Q 38.6 35.6 46.5 35 L 52.5 39 L 56.5 39 Q 58 35.5 59.5 38 Q 64.5 38.5 65 34.5 L 65.5 30 Z M 33 41 L 32 45 L 33 51 L 36 52 L 38 56 L 38 61 L 35 64 L 25 65 L 25 66 Q 37 68 40 61 L 40 56 L 34 47 L 35 43 Q 36 40 33 41 Z M 39 116 L 40 118 Q 41 115 39 116 Z M 48 117 L 44 118 L 45 120 L 49 118 L 48 117 Z " /><path fill="rgb(63,20,6)" stroke="rgb(63,20,6)" stroke-width="1" opacity="0.9607843137254902" d="M 50.5 34 L 51.5 36 L 50.5 34 Z " /><path fill="rgb(63,20,6)" stroke="rgb(63,20,6)" stroke-width="1" opacity="0.9607843137254902" d="M 89.5 34 L 90.5 36 L 89.5 34 Z " /><path fill="rgb(63,20,6)" stroke="rgb(63,20,6)" stroke-width="1" opacity="0.9607843137254902" d="M 91.5 37 L 95 38.5 L 93.5 39 L 91.5 37 Z " /><path fill="rgb(63,20,6)" stroke="rgb(63,20,6)" stroke-width="1" opacity="0.9607843137254902" d="M 112.5 37 L 113.5 39 L 112.5 37 Z " /><path fill="rgb(63,20,6)" stroke="rgb(63,20,6)" stroke-width="1" opacity="0.9607843137254902" d="M 115.5 41 L 116.5 43 L 115.5 41 Z " /><path fill="rgb(63,20,6)" stroke="rgb(63,20,6)" stroke-width="1" opacity="0.9607843137254902" d="M 115.5 49 L 116 51.5 L 113.5 55 L 113 53.5 L 115.5 49 Z " /><path fill="rgb(63,20,6)" stroke="rgb(63,20,6)" stroke-width="1" opacity="0.9607843137254902" d="M 73.5 56 L 83.5 57 L 93 64.5 Q 97.7 69.3 96 80.5 Q 94.2 87.7 88.5 91 Q 83.3 95.8 71.5 94 L 61 87.5 Q 55.5 82.5 57 70.5 Q 59.3 63.8 64.5 60 L 73.5 56 Z M 76 57 Q 74 59 70 58 L 64 62 L 58 72 Q 57 87 67 91 L 69 91 L 67 89 Q 61 86 60 79 L 60 72 L 64 63 L 67 64 L 74 60 Q 83 59 87 64 Q 89 63 88 66 L 90 68 Q 86 62 79 61 Q 70 61 66 66 L 61 74 L 61 79 L 63 85 Q 67 90 76 92 L 73 92 L 73 93 L 82 93 L 78 92 L 86 89 L 92 81 L 92 74 L 93 74 Q 95 84 89 88 L 91 88 L 95 79 Q 96 68 91 65 Q 92 62 90 63 L 88 63 L 88 62 Q 84 57 76 57 Z M 88 88 L 86 91 L 89 89 L 88 88 Z M 70 91 L 70 92 L 72 92 L 70 91 Z M 83 91 L 83 92 L 85 92 L 83 91 Z " /><path fill="rgb(63,20,6)" stroke="rgb(63,20,6)" stroke-width="1" opacity="0.9607843137254902" d="M 113.5 60 L 116.5 64 L 127.5 66 L 127.5 65 L 122 63.5 L 124.5 63 L 129 65.5 Q 126.5 67 130 68.5 L 130.5 70 L 131 67.5 L 130.5 66 L 133 69.5 L 133 84.5 L 128.5 89 L 119.5 91 L 117 93.5 L 117 96.5 L 122 104.5 L 122 109.5 L 116.5 118 L 109.5 121 L 109.5 120 L 111 119.5 L 106.5 119 L 104.5 119 L 97.5 114 L 92.5 114 Q 87.5 116.5 89 125.5 L 83.5 132 L 79.5 133 L 80.5 131 L 86 127.5 L 89 114 L 92 113.5 L 89.5 112 L 87 116.5 Q 87.8 122.3 85.5 125 L 85 122.5 Q 87.5 121 86 115.5 L 88 111 L 92.5 109 L 92.5 110 L 90 111.5 L 91.5 112 Q 93 109.5 98.5 111 L 107.5 118 L 110.5 118 L 120 110.5 L 121 104.5 L 120 104.5 L 117.5 111 L 117 109.5 L 119 106.5 Q 117.6 100.4 113 97.5 L 113 90.5 L 114 88 L 125.5 85 L 129 82.5 Q 131.7 78.7 130 70.5 L 129 68 L 118.5 66 L 114 63.5 L 113.5 60 Z M 132 70 L 131 81 L 130 82 L 131 84 L 132 82 L 132 70 Z M 130 84 L 116 89 L 114 93 L 115 96 L 116 93 L 123 88 Q 128 89 130 86 L 130 84 Z M 116 96 L 116 100 L 118 101 L 116 96 Z M 94 112 L 94 113 L 98 113 L 94 112 Z " /><path fill="rgb(63,20,6)" stroke="rgb(63,20,6)" stroke-width="1" opacity="0.9607843137254902" d="M 104.5 112 L 109 115.5 L 107.5 115 L 104.5 112 Z " /><path fill="rgb(63,20,6)" stroke="rgb(63,20,6)" stroke-width="1" opacity="0.9607843137254902" d="M 65.5 115 L 67 122.5 L 66 122.5 L 65.5 115 Z " /><path fill="rgb(63,20,6)" stroke="rgb(63,20,6)" stroke-width="1" opacity="0.9607843137254902" d="M 83.5 127 L 82.5 129 L 74.5 130 L 74.5 129 Q 80.8 129.8 83.5 127 Z " /><path fill="rgb(0,0,0)" stroke="rgb(0,0,0)" stroke-width="1" opacity="0" d="M 0 0 L 152 0 L 152 152 L 0 152 L 0 0 Z M 75 18 Q 73 20 69 19 L 63 27 L 63 29 L 61 34 Q 62 36 60 35 L 58 35 L 56 36 L 45 30 L 34 36 L 34 39 L 30 45 L 28 46 L 30 46 L 29 48 L 32 53 Q 35 54 33 56 L 35 56 L 36 60 L 34 62 L 27 63 L 27 62 Q 29 63 28 61 L 27 61 L 24 60 L 25 63 L 20 66 L 18 74 L 18 76 Q 18 85 23 89 L 22 91 L 24 90 L 35 93 L 36 96 L 30 107 L 31 109 L 30 113 L 33 114 L 35 117 Q 38 118 36 120 L 44 122 L 47 122 L 57 117 L 58 117 Q 57 119 60 118 Q 58 120 61 122 Q 60 124 63 123 L 62 129 L 68 133 L 76 135 L 77 136 Q 76 132 81 134 L 81 136 Q 83 137 82 133 L 84 133 L 90 127 L 90 125 L 90 123 L 92 115 L 98 115 L 98 119 L 101 118 L 105 120 L 106 124 L 107 121 L 108 124 L 108 122 L 110 122 L 117 119 L 123 110 L 123 104 L 119 98 L 119 96 L 118 94 Q 119 91 121 93 Q 122 90 128 91 L 134 84 L 134 70 L 132 66 L 125 62 Q 121 63 122 60 L 120 61 L 118 59 L 118 56 L 121 53 L 123 46 L 118 37 L 115 35 L 113 31 L 108 32 L 104 35 L 104 33 Q 101 32 102 36 L 97 38 L 95 38 L 92 37 L 89 25 L 82 19 Q 76 21 75 18 Z M 44 28 L 43 30 L 45 29 L 44 28 Z M 106 31 L 104 33 L 106 33 L 106 31 Z M 30 50 Q 28 53 31 52 L 30 50 Z M 60 124 Q 57 126 60 127 L 61 125 L 60 124 Z " /><path fill="rgb(0,0,0)" stroke="rgb(0,0,0)" stroke-width="1" opacity="0" d="M 72.5 63 L 76.5 65 L 77 63 L 84.5 64 L 86 65.5 L 84.5 68 L 87.5 67 Q 92.6 70.4 91 80.5 L 86.5 87 L 77.5 91 L 69.5 89 L 65 85.5 L 65.5 84 Q 63.3 84.8 64 82.5 Q 60.6 79.9 62 72.5 L 66.5 66 L 72.5 63 Z M 69 66 L 67 68 L 69 68 L 69 66 Z " /><path fill="rgb(254,237,187)" stroke="rgb(254,237,187)" stroke-width="1" opacity="0.9921568627450981" d="M 74.5 24 L 76.5 26 L 82.5 27 L 84 26.5 L 83 28.5 L 84 30.5 L 84 32.5 Q 82.5 36.9 85.5 36 L 85.5 38 L 87 38.5 L 86.5 40 Q 89.8 45.2 98.5 45 L 101 43.5 L 100.5 42 L 102.5 43 Q 104.3 37.5 112 39 L 114 42.5 L 114.5 47 L 115.5 44 L 116 46.5 L 114.5 49 L 113.5 47 L 112 51.5 L 112 53.5 L 111 60.5 L 114.5 66 L 116.5 66 Q 118.8 65.3 118 67.5 L 121.5 70 L 122 68 L 126.5 69 L 128 68.5 L 127 70.5 L 127.5 72 L 126 72 Q 127.5 75.8 124.5 75 L 122.5 75 L 119.5 74 L 117 74.5 L 115.5 78 L 114 78.5 L 114.5 80 Q 113 76.5 111.5 79 L 110 78.5 L 110.5 77 Q 108.3 76.3 109 78.5 L 106 80.5 L 106.5 82 L 104.5 82 L 98 84.5 L 94.5 89 L 94 87.5 Q 97.4 85.4 97.5 80 L 98.5 82 L 99 79.5 L 98 76.5 L 98 74.5 L 97.5 71 L 96 71.5 L 98 68 Q 95.3 69.1 96 66.5 L 89.5 59 Q 88.3 61.3 87 58.5 L 87.5 57 L 85.5 58 L 85.5 56 L 81.5 55 Q 80 57.5 78.5 54 Q 73.2 53.2 71.5 56 Q 70 53.5 68.5 57 L 63 59 Q 64.1 61.7 61.5 61 L 58 64.5 L 54 72.5 L 55 75.5 L 54 80 L 56 80.5 L 55 83.5 Q 56.3 86.3 57.5 84 L 59 84.5 L 57 85 L 57.5 87 L 59.5 87 L 62 88.5 L 60.5 89 L 55 85.5 L 54.5 84 L 52.5 85 L 48.5 82 L 47 82.5 L 47.5 81 L 42.5 80 L 41 80.5 L 41.5 79 L 34.5 80 L 33 77 L 29.5 76 L 27 77 L 25 71.5 L 26 69 L 36.5 68 L 41 63.5 L 40.5 62 L 42 62.5 L 43 55.5 L 41 55.5 L 42 53.5 L 37 44 L 39 43.5 Q 36.2 41.7 40.5 40 L 44.5 38 L 48.5 40 L 50 39.5 L 49.5 41 L 51.5 40 L 51.5 42 L 54.5 43 L 57.5 41 L 60.5 42 L 66 38.5 L 65 36.5 L 67 36.5 L 69 27 L 74.5 24 Z M 114 75 L 113 78 L 114 78 L 114 75 Z " /><path fill="rgb(254,237,187)" stroke="rgb(254,237,187)" stroke-width="1" opacity="0.9921568627450981" d="M 25.5 77 L 26.5 79 Q 23.7 79.7 25.5 77 Z " /><path fill="rgb(254,237,187)" stroke="rgb(254,237,187)" stroke-width="1" opacity="0.9921568627450981" d="M 28 83 L 37.5 84 L 40 86.5 Q 42.6 87.9 42 92.5 L 41 92.5 Q 40.6 87 36.5 85 L 29.5 84 L 28 84.5 L 28 83 Z " /><path fill="rgb(254,237,187)" stroke="rgb(254,237,187)" stroke-width="1" opacity="0.9921568627450981" d="M 115.5 85 L 112.5 89 L 115.5 85 Z " /><path fill="rgb(254,237,187)" stroke="rgb(254,237,187)" stroke-width="1" opacity="0.9921568627450981" d="M 111.5 90 L 113 100 L 116 101.5 L 114.5 102 L 111 98.5 L 110 92.5 L 111.5 90 Z " /><path fill="rgb(254,237,187)" stroke="rgb(254,237,187)" stroke-width="1" opacity="0.9921568627450981" d="M 88.5 91 L 91 91.5 Q 88.9 94.8 88.5 91 Z " /><path fill="rgb(254,237,187)" stroke="rgb(254,237,187)" stroke-width="1" opacity="0.9921568627450981" d="M 84.5 93 L 85.5 95 L 84.5 93 Z " /><path fill="rgb(254,237,187)" stroke="rgb(254,237,187)" stroke-width="1" opacity="0.9921568627450981" d="M 40 98 Q 42.7 96.9 42 99.5 L 39 101.5 L 40 98 Z " /><path fill="rgb(254,237,187)" stroke="rgb(254,237,187)" stroke-width="1" opacity="0.9921568627450981" d="M 35.5 105 Q 38.1 104.2 37 107.5 L 37.5 109 L 35.5 105 Z " /><path fill="rgb(254,237,187)" stroke="rgb(254,237,187)" stroke-width="1" opacity="0.9921568627450981" d="M 88.5 109 L 86.5 112 L 88.5 109 Z " /><path fill="rgb(254,237,187)" stroke="rgb(254,237,187)" stroke-width="1" opacity="0.9921568627450981" d="M 115.5 109 L 114.5 111 L 115.5 109 Z " /><path fill="rgb(254,237,187)" stroke="rgb(254,237,187)" stroke-width="1" opacity="0.9921568627450981" d="M 42.5 112 L 43.5 114 L 42.5 112 Z " /><path fill="rgb(254,237,187)" stroke="rgb(254,237,187)" stroke-width="1" opacity="0.9921568627450981" d="M 65.5 112 L 68 115.5 L 67 115.5 L 65.5 112 Z " /><path fill="rgb(254,237,187)" stroke="rgb(254,237,187)" stroke-width="1" opacity="0.9921568627450981" d="M 113.5 112 L 112.5 114 L 113.5 112 Z " /><path fill="rgb(254,237,187)" stroke="rgb(254,237,187)" stroke-width="1" opacity="0.9921568627450981" d="M 67.5 117 L 69 123.5 L 68 123.5 L 67.5 117 Z " /><path fill="rgb(254,237,187)" stroke="rgb(254,237,187)" stroke-width="1" opacity="0.9921568627450981" d="M 69.5 125 L 70.5 127 L 69.5 125 Z " /><path fill="rgb(252,250,226)" stroke="rgb(252,250,226)" stroke-width="1" opacity="0.9921568627450981" d="M 72.5 23 Q 75.1 22.3 74 25 L 69 27 Q 67.4 29.1 68 34.5 L 64.5 40 L 56.5 43 L 56.5 42 L 66 36.5 L 67 28.5 L 69.5 24 L 72.5 23 Z " /><path fill="rgb(252,250,226)" stroke="rgb(252,250,226)" stroke-width="1" opacity="0.9921568627450981" d="M 75.5 24 L 81.5 25 L 85 28.5 L 84.5 36 L 83 27 L 76.5 26 L 75.5 24 Z " /><path fill="rgb(252,250,226)" stroke="rgb(252,250,226)" stroke-width="1" opacity="0.9921568627450981" d="M 43.5 37 L 55 42.5 L 53.5 43 L 44.5 38 L 38 42.5 L 37 45.5 L 43 55.5 L 43 59.5 Q 41.6 65.6 36.5 68 L 26 69 L 25 71.5 L 24.5 81 L 24 70.5 L 25 68 L 28.5 67 L 31.5 68 Q 38.1 67.1 41 62.5 L 42 55.5 L 37 48.5 L 36 43.5 L 39.5 39 L 43.5 37 Z " /><path fill="rgb(252,250,226)" stroke="rgb(252,250,226)" stroke-width="1" opacity="0.9921568627450981" d="M 108.5 37 L 114 40.5 L 115 43.5 L 114 43.5 L 112 39 L 106.5 39 Q 103.4 44.4 95.5 45 Q 88.9 44.1 86 39.5 L 87.5 39 L 92.5 43 L 100.5 43 L 108.5 37 Z " /><path fill="rgb(252,250,226)" stroke="rgb(252,250,226)" stroke-width="1" opacity="0.9921568627450981" d="M 74.5 54 L 79 54.5 L 74.5 55 L 74.5 54 Z " /><path fill="rgb(252,250,226)" stroke="rgb(252,250,226)" stroke-width="1" opacity="0.9921568627450981" d="M 81.5 55 Q 91.1 56.9 95 64.5 Q 99.2 69.3 98 79.5 L 97 83.5 L 91.5 91 L 81.5 96 L 72.5 96 L 61 89.5 L 63.5 91 L 72.5 95 L 80.5 95 Q 89.8 93.3 94 86.5 L 97 78.5 L 97 71.5 Q 94.2 62.8 87.5 58 L 81.5 56 L 81.5 55 Z " /><path fill="rgb(252,250,226)" stroke="rgb(252,250,226)" stroke-width="1" opacity="0.9921568627450981" d="M 61.5 61 L 59 64.5 Q 54.8 69.3 56 79.5 L 58 83.5 L 57 83.5 Q 53.7 79.8 55 71.5 Q 56.5 64.5 61.5 61 Z " /><path fill="rgb(252,250,226)" stroke="rgb(252,250,226)" stroke-width="1" opacity="0.9921568627450981" d="M 118.5 67 Q 125.8 65.8 128 69.5 L 126.5 69 L 118.5 68 L 118.5 67 Z " /><path fill="rgb(252,250,226)" stroke="rgb(252,250,226)" stroke-width="1" opacity="0.9921568627450981" d="M 58.5 85 L 59.5 87 L 58.5 85 Z " /><path fill="rgb(252,250,226)" stroke="rgb(252,250,226)" stroke-width="1" opacity="0.9921568627450981" d="M 41.5 93 L 42 97.5 L 41 97.5 L 41.5 93 Z " /><path fill="rgb(252,250,226)" stroke="rgb(252,250,226)" stroke-width="1" opacity="0.9921568627450981" d="M 39.5 100 L 39 101.5 L 36.5 105 L 38 102.5 L 39.5 100 Z " /><path fill="rgb(250,220,162)" stroke="rgb(250,220,162)" stroke-width="1" opacity="0.9921568627450981" d="M 85.5 34 L 90 40.5 L 86 37.5 L 85.5 34 Z " /><path fill="rgb(250,220,162)" stroke="rgb(250,220,162)" stroke-width="1" opacity="0.9921568627450981" d="M 64.5 37 L 63.5 39 L 64.5 37 Z " /><path fill="rgb(250,220,162)" stroke="rgb(250,220,162)" stroke-width="1" opacity="0.9921568627450981" d="M 105.5 38 L 103.5 41 L 105.5 38 Z " /><path fill="rgb(250,220,162)" stroke="rgb(250,220,162)" stroke-width="1" opacity="0.9921568627450981" d="M 56.5 40 L 59 40.5 L 54.5 42 L 54.5 41 L 56.5 40 Z " /><path fill="rgb(250,220,162)" stroke="rgb(250,220,162)" stroke-width="1" opacity="0.9921568627450981" d="M 115.5 43 L 117 46.5 L 114.5 50 L 113 50.5 L 113.5 52 L 112 52.5 L 112.5 54 Q 109.7 52.8 112 51.5 L 115.5 43 Z M 116 44 L 115 47 L 116 47 L 116 44 Z " /><path fill="rgb(250,220,162)" stroke="rgb(250,220,162)" stroke-width="1" opacity="0.9921568627450981" d="M 73.5 55 L 80 55.5 L 73.5 56 L 73.5 55 Z " /><path fill="rgb(250,220,162)" stroke="rgb(250,220,162)" stroke-width="1" opacity="0.9921568627450981" d="M 111.5 56 L 113 61.5 L 111 60.5 L 111.5 56 Z " /><path fill="rgb(250,220,162)" stroke="rgb(250,220,162)" stroke-width="1" opacity="0.9921568627450981" d="M 64.5 59 L 59.5 65 L 64.5 59 Z " /><path fill="rgb(250,220,162)" stroke="rgb(250,220,162)" stroke-width="1" opacity="0.9921568627450981" d="M 89.5 60 L 92.5 64 L 89.5 60 Z " /><path fill="rgb(250,220,162)" stroke="rgb(250,220,162)" stroke-width="1" opacity="0.9921568627450981" d="M 39.5 63 L 38.5 65 L 39.5 63 Z " /><path fill="rgb(250,220,162)" stroke="rgb(250,220,162)" stroke-width="1" opacity="0.9921568627450981" d="M 113.5 63 L 114.5 65 L 113.5 63 Z " /><path fill="rgb(250,220,162)" stroke="rgb(250,220,162)" stroke-width="1" opacity="0.9921568627450981" d="M 119.5 68 Q 122.8 66.9 122 69.5 L 120.5 69 L 119.5 68 Z " /><path fill="rgb(250,220,162)" stroke="rgb(250,220,162)" stroke-width="1" opacity="0.9921568627450981" d="M 128.5 69 L 130 77.5 L 127.5 83 L 122.5 85 L 121 84.5 Q 121.9 87.9 116.5 86 Q 114.3 90.3 112 88.5 L 113 90.5 L 111 90.5 L 110 94.5 L 112.5 100 L 114 99.5 Q 111.5 101 115 102.5 Q 114.2 105.5 118 104 L 118 107.5 L 115 109.5 Q 117.3 110.8 114.5 112 L 113 112.5 L 113.5 114 L 112 113.5 Q 112.7 116.5 109 115 L 108.5 113 L 106.5 113 L 99 109 L 98.5 107 L 93.5 108 L 92 107.5 Q 92.8 109.8 90.5 109 L 86.5 114 L 85 113.5 L 86 115.5 L 84 120.5 L 85 124.5 L 80.5 128 L 71 128 L 70.5 126 L 69 126.5 L 69.5 125 L 68 124.5 L 69 120.5 L 68 120.5 L 67.5 122 L 67 120.5 Q 69.2 119.2 68 114.5 L 67 114.5 L 66.5 116 L 66 114.5 Q 68.3 113.3 65.5 112 Q 61.8 108.7 53.5 110 L 43.5 115 L 41.5 115 L 38 111.5 L 36 108.5 L 37 104.5 L 35 104.5 Q 36.3 101.8 37.5 104 L 42 99.5 L 42 89.5 L 40.5 88 L 39 88.5 L 40 86.5 Q 38.5 82.5 31.5 84 L 29.5 85 L 29.5 84 L 31 83.5 L 28 83 L 27.5 85 L 26.5 83 Q 25.3 85.3 24 82.5 L 26 82.5 L 25 79 L 27 78.5 Q 24.3 77.8 25 73.5 L 26 73.5 L 27 77 L 30.5 76 L 33 77 L 34.5 80 L 41.5 79 L 53.5 85 L 55.5 81 L 61.5 90 L 63 89.5 Q 60.3 91.3 64.5 93 Q 70.4 97.7 82.5 96 Q 92.4 92.9 98 85.5 L 99.5 83 L 102.5 83 L 109 78.5 Q 108.3 76.3 110.5 77 L 110.5 79 L 113 77.5 L 112 73.5 L 113 73.5 L 114 78 L 117 76.5 L 117.5 74 L 120.5 75 L 123.5 76 L 126 75 Q 124.5 71.2 127.5 72 L 128.5 69 Z M 56 84 L 55 86 L 57 87 L 56 84 Z " /><path fill="rgb(250,220,162)" stroke="rgb(250,220,162)" stroke-width="1" opacity="0.9921568627450981" d="M 96.5 72 L 97 77.5 L 96 77.5 L 96.5 72 Z " /><path fill="rgb(250,220,162)" stroke="rgb(250,220,162)" stroke-width="1" opacity="0.9921568627450981" d="M 54.5 76 L 55 79.5 L 54 79.5 L 54.5 76 Z " /><path fill="rgb(250,220,162)" stroke="rgb(250,220,162)" stroke-width="1" opacity="0.9921568627450981" d="M 98.5 79 L 99 81.5 L 98 81.5 L 98.5 79 Z " /><path fill="rgb(250,220,162)" stroke="rgb(250,220,162)" stroke-width="1" opacity="0.9921568627450981" d="M 34.5 85 L 38 86.5 L 36.5 86 Q 33.5 86.5 34.5 85 Z " /><path fill="rgb(250,220,162)" stroke="rgb(250,220,162)" stroke-width="1" opacity="0.9921568627450981" d="M 93.5 86 L 92.5 88 L 93.5 86 Z " /><path fill="rgb(250,220,162)" stroke="rgb(250,220,162)" stroke-width="1" opacity="0.9921568627450981" d="M 103.5 113 L 104.5 115 L 103.5 113 Z " /><path fill="rgb(137,87,47)" stroke="rgb(137,87,47)" stroke-width="1" opacity="0.9490196078431372" d="M 76.5 19 L 76.5 21 L 81.5 20 L 81.5 21 L 78 21.5 L 82.5 22 L 84 21.5 L 83.5 23 L 85.5 22 L 86.5 25 L 88 24.5 L 87 26.5 L 89 26.5 Q 86.8 27.8 88 32.5 L 89 32.5 L 89.5 30 L 91 34.5 L 90.5 36 L 92 36.5 L 91.5 38 L 94.5 39 L 98.5 38 L 100.5 39 L 100.5 37 L 102.5 38 L 102.5 36 L 104.5 36 L 106 36 L 106.5 34 L 111.5 34 L 114.5 36 Q 116.2 33.2 118 37.5 L 116 37.5 L 120 44.5 L 120 48.5 L 119 48.5 L 118.5 44 Q 118.8 52.3 115 56.5 L 116 58.5 Q 113.3 60.3 117.5 62 L 119 61.5 L 118.5 63 L 122 62 Q 120.9 64.7 123.5 64 L 127.5 65 L 129.5 65 L 132 66.5 L 131 69.5 L 132 70.5 L 132 81.5 L 128.5 87 L 122.5 88 L 116 92.5 L 115 95.5 L 118 96.5 L 117 98.5 L 119 98.5 L 116.5 102 L 113.5 98 L 116 99.5 L 114 92.5 L 115 91.5 L 113.5 89 L 115.5 89 L 126.5 86 L 130 83.5 L 129 78.5 L 130 78.5 L 130.5 81 L 131 70.5 L 130 70.5 L 129.5 73 L 129 70.5 L 130 68.5 L 128 68.5 Q 130.3 67.3 127.5 66 Q 118.8 66.2 114.5 62 L 113 62.5 L 114 60.5 L 112 60.5 L 113 56.5 L 112 54.5 L 115 53.5 L 117 44.5 Q 113.9 42.8 115.5 41 L 111 37.5 Q 111.8 35.3 109.5 36 L 107.5 36 L 106 36.5 L 106.5 38 L 104.5 37 Q 99.7 39.5 101.5 42 Q 99.8 39.2 93.5 41 L 92 41.5 L 92.5 40 L 90.5 41 Q 92.2 39 88.5 37 L 87 37.5 L 88 35.5 L 86.5 29 L 85.5 34 L 85 28.5 L 85.5 27 L 83 25.5 L 83.5 24 L 81.5 25 L 81.5 23 L 75.5 24 L 69.5 22 L 68.5 25 L 67.5 22 L 66 21.5 L 67.5 21 L 69 21.5 L 69.5 20 L 71.5 20 L 76.5 19 Z " /><path fill="rgb(137,87,47)" stroke="rgb(137,87,47)" stroke-width="1" opacity="0.9490196078431372" d="M 64.5 24 Q 68 25 67 30.5 L 65 30.5 L 66 35.5 Q 64 33.8 62 37.5 L 62.5 39 L 59 38 L 61.5 34 L 63 34.5 L 62 32.5 L 64 32.5 L 63 26.5 L 65 26.5 L 64.5 24 Z " /><path fill="rgb(137,87,47)" stroke="rgb(137,87,47)" stroke-width="1" opacity="0.9490196078431372" d="M 43.5 31 L 46 31.5 L 43 32.5 L 48.5 34 L 50 33.5 L 50.5 35 L 51.5 34 L 54.5 37 L 58 37.5 Q 57 40 52.5 39 L 50.5 38 L 49 38.5 Q 51.3 37.3 48.5 36 L 43.5 35 L 43.5 37 L 41.5 36 L 41.5 38 L 39.5 37 L 35 42.5 L 36 44.5 L 35 44.5 L 34.5 43 L 34 46.5 L 36 46.5 L 35 49.5 L 40 52.5 L 38 52.5 L 39.5 55 L 41 54.5 Q 38.8 55.7 40 60.5 L 40.5 62 L 39.5 61 L 36 64.5 L 36.5 66 L 33.5 65 L 32.5 66 L 24.5 66 L 23 67.5 L 24 74.5 L 23 74.5 L 22.5 70 L 22 81.5 L 23 81.5 L 23.5 76 L 24 81.5 L 23 83.5 L 25.5 85 L 27 84.5 L 26.5 86 L 35.5 87 L 37 86.5 L 36.5 88 L 38.5 87 L 38.5 89 Q 41.1 88.2 40 91.5 L 41 93.5 L 40 93.5 L 39.5 92 L 38 99.5 L 38.5 101 L 37.5 100 L 34 102.5 L 34.5 100 Q 35.8 102.3 37 99.5 L 38 93.5 L 37 91 L 33.5 89 L 26.5 88 L 22 84.5 L 20 67.5 L 22.5 65 L 24.5 65 L 28 64.5 L 26 63.5 L 27.5 63 Q 29 65.5 34.5 64 L 34.5 63 L 32 62.5 L 36 60.5 L 36.5 57 L 37.5 61 L 38 55.5 L 36 52 L 33 50.5 L 32 44.5 L 33 41.5 L 32 40.5 L 36.5 36 Q 37.8 38.3 39 35.5 Q 36.8 34.3 39.5 33 L 42.5 34 L 42.5 33 L 41 32.5 L 43.5 31 Z M 35 39 L 33 41 L 35 41 L 35 39 Z " /><path fill="rgb(137,87,47)" stroke="rgb(137,87,47)" stroke-width="1" opacity="0.9490196078431372" d="M 52.5 40 L 56 40.5 L 52.5 41 L 52.5 40 Z " /><path fill="rgb(137,87,47)" stroke="rgb(137,87,47)" stroke-width="1" opacity="0.9490196078431372" d="M 120.5 41 L 122 43.5 L 120 42.5 L 120.5 41 Z " /><path fill="rgb(137,87,47)" stroke="rgb(137,87,47)" stroke-width="1" opacity="0.9490196078431372" d="M 30.5 44 L 31 47.5 L 30 47.5 L 30.5 44 Z " /><path fill="rgb(137,87,47)" stroke="rgb(137,87,47)" stroke-width="1" opacity="0.9490196078431372" d="M 36.5 48 L 37.5 50 L 36.5 48 Z " /><path fill="rgb(137,87,47)" stroke="rgb(137,87,47)" stroke-width="1" opacity="0.9490196078431372" d="M 119.5 51 L 120 52.5 L 118 53.5 L 119.5 51 Z " /><path fill="rgb(137,87,47)" stroke="rgb(137,87,47)" stroke-width="1" opacity="0.9490196078431372" d="M 33.5 53 L 35.5 56 L 33.5 53 Z " /><path fill="rgb(137,87,47)" stroke="rgb(137,87,47)" stroke-width="1" opacity="0.9490196078431372" d="M 68.5 57 Q 69.8 59.3 74.5 58 L 79.5 57 L 86.5 60 L 86.5 58 L 89.5 63 Q 91.8 62.3 91 64.5 L 94 65.5 L 93 67.5 L 95 67.5 L 94 70.5 Q 96.8 72.2 95 78.5 L 91 87.5 Q 93.3 88.7 90.5 90 L 90.5 88 L 87 90.5 L 87.5 92 L 85.5 91 L 85.5 93 L 82.5 92 L 81.5 93 L 72.5 93 L 65.5 90 L 64 90.5 L 65 89.5 L 61.5 86 Q 60.3 88.3 59 85.5 L 60 83.5 L 58 83.5 L 59 80.5 L 57 80.5 L 58 79.5 L 59 68.5 L 58.5 67 L 60 67.5 L 59 65.5 L 62 64.5 L 63.5 62 L 66 60.5 Q 63.8 59.3 66.5 58 L 68.5 59 L 68.5 57 Z M 74 60 L 72 61 L 72 63 L 70 62 L 70 64 L 69 63 L 67 64 L 64 63 L 60 72 L 60 79 L 62 78 L 61 80 L 63 85 L 64 83 L 64 85 Q 68 87 67 89 L 69 88 L 70 91 L 73 90 L 73 92 L 77 91 L 82 92 L 82 90 L 85 91 Q 87 90 85 89 L 90 84 L 91 85 L 93 82 L 93 74 L 92 73 L 92 72 Q 93 69 91 70 Q 86 68 89 67 L 88 64 L 85 62 L 83 63 L 81 63 L 83 62 Q 80 59 74 60 Z M 90 85 L 88 88 L 90 87 L 90 85 Z " /><path fill="rgb(137,87,47)" stroke="rgb(137,87,47)" stroke-width="1" opacity="0.9490196078431372" d="M 74.5 61 L 79 61.5 L 74.5 62 L 74.5 61 Z " /><path fill="rgb(137,87,47)" stroke="rgb(137,87,47)" stroke-width="1" opacity="0.9490196078431372" d="M 65.5 66 L 63.5 69 L 65.5 66 Z " /><path fill="rgb(137,87,47)" stroke="rgb(137,87,47)" stroke-width="1" opacity="0.9490196078431372" d="M 25.5 67 L 24.5 69 L 25.5 67 Z " /><path fill="rgb(137,87,47)" stroke="rgb(137,87,47)" stroke-width="1" opacity="0.9490196078431372" d="M 19.5 70 L 20 81.5 L 19 81.5 L 19.5 70 Z " /><path fill="rgb(137,87,47)" stroke="rgb(137,87,47)" stroke-width="1" opacity="0.9490196078431372" d="M 56.5 73 L 57 77.5 L 56 77.5 L 56.5 73 Z " /><path fill="rgb(137,87,47)" stroke="rgb(137,87,47)" stroke-width="1" opacity="0.9490196078431372" d="M 133.5 73 L 134 80.5 L 133 80.5 L 133.5 73 Z " /><path fill="rgb(137,87,47)" stroke="rgb(137,87,47)" stroke-width="1" opacity="0.9490196078431372" d="M 128.5 82 L 127.5 84 L 124.5 85 L 124.5 84 L 128.5 82 Z " /><path fill="rgb(137,87,47)" stroke="rgb(137,87,47)" stroke-width="1" opacity="0.9490196078431372" d="M 29.5 85 L 34 85.5 L 29.5 86 L 29.5 85 Z " /><path fill="rgb(137,87,47)" stroke="rgb(137,87,47)" stroke-width="1" opacity="0.9490196078431372" d="M 116.5 86 L 119 86.5 L 115.5 88 L 116.5 86 Z " /><path fill="rgb(137,87,47)" stroke="rgb(137,87,47)" stroke-width="1" opacity="0.9490196078431372" d="M 131.5 86 L 130.5 88 L 131.5 86 Z " /><path fill="rgb(137,87,47)" stroke="rgb(137,87,47)" stroke-width="1" opacity="0.9490196078431372" d="M 31.5 91 L 35 92.5 L 33.5 92 Q 30.5 92.5 31.5 91 Z " /><path fill="rgb(137,87,47)" stroke="rgb(137,87,47)" stroke-width="1" opacity="0.9490196078431372" d="M 112.5 91 L 113 96.5 L 112 96.5 L 112.5 91 Z " /><path fill="rgb(137,87,47)" stroke="rgb(137,87,47)" stroke-width="1" opacity="0.9490196078431372" d="M 36.5 94 L 37 96.5 L 36 96.5 L 36.5 94 Z " /><path fill="rgb(137,87,47)" stroke="rgb(137,87,47)" stroke-width="1" opacity="0.9490196078431372" d="M 74.5 94 L 80 94.5 L 74.5 95 L 74.5 94 Z " /><path fill="rgb(137,87,47)" stroke="rgb(137,87,47)" stroke-width="1" opacity="0.9490196078431372" d="M 119.5 100 L 120.5 102 L 119.5 100 Z " /><path fill="rgb(137,87,47)" stroke="rgb(137,87,47)" stroke-width="1" opacity="0.9490196078431372" d="M 32.5 103 L 33.5 105 L 32.5 103 Z " /><path fill="rgb(137,87,47)" stroke="rgb(137,87,47)" stroke-width="1" opacity="0.9490196078431372" d="M 119.5 103 L 122 103.5 L 120 110.5 L 116 114.5 L 116.5 116 L 114.5 116 L 113 116.5 L 113.5 120 L 111.5 119 L 111.5 121 L 109.5 120 L 107.5 121 L 106.5 119 L 111 118.5 Q 106.3 118.7 105 115.5 L 104.5 114 L 103.5 115 L 100.5 112 L 93.5 110 L 90 112.5 L 93 114.5 L 91.5 114 Q 87.8 112.8 89 116.5 L 87 125.5 L 83.5 130 L 79 132.5 L 80.5 133 L 82.5 132 L 82.5 133 L 74.5 134 L 74.5 133 Q 79.3 134.3 78 131 L 68 130 L 68 128 Q 65.3 129.1 66 126.5 Q 63.5 125 65 119.5 L 59.5 113 L 54.5 114 L 44.5 120 L 43.5 118 L 49 116.5 Q 47.3 113.3 45.5 117 Q 40.8 116.8 39 113.5 L 41.5 113 L 43.5 115 L 49.5 112 L 49.5 114 L 53.5 112 L 62.5 112 L 63.5 111 L 66 114.5 L 65 117.5 L 66 117.5 L 66.5 116 L 67 117.5 L 66 122.5 L 68 122.5 L 67 126.5 L 69.5 128 L 71 127.5 Q 70.3 129.8 72.5 129 Q 74 126.5 79.5 128 L 82.5 129 L 82.5 128 L 81 127.5 L 86 125 L 85 116.5 L 86 116.5 L 86.5 122 L 88 113.5 L 87.5 112 Q 88.7 114.3 90 111.5 Q 87.8 110.2 90.5 109 L 92.5 110 L 92.5 108 L 94.5 109 L 98.5 108 L 104 111.5 L 105.5 114 L 107 113.5 L 106.5 115 L 108.5 114 L 111.5 115 L 114 114 L 117.5 108 L 119 108.5 L 118 106.5 L 120 106.5 L 119.5 103 Z M 75 129 L 75 130 L 80 130 L 75 129 Z " /><path fill="rgb(137,87,47)" stroke="rgb(137,87,47)" stroke-width="1" opacity="0.9490196078431372" d="M 35.5 107 L 35.5 109 L 38 110.5 L 36.5 110 Q 33.2 111.1 34 108.5 L 35.5 107 Z " /><path fill="rgb(137,87,47)" stroke="rgb(137,87,47)" stroke-width="1" opacity="0.9490196078431372" d="M 58.5 110 L 62 110.5 L 58.5 111 L 58.5 110 Z " /><path fill="rgb(137,87,47)" stroke="rgb(137,87,47)" stroke-width="1" opacity="0.9490196078431372" d="M 93.5 112 Q 100.4 111.1 102 115.5 L 101.5 118 Q 97.8 116 99.5 114 L 93.5 113 L 93.5 112 Z " /><path fill="rgb(137,87,47)" stroke="rgb(137,87,47)" stroke-width="1" opacity="0.9490196078431372" d="M 38.5 116 Q 40.8 115.3 40 117.5 L 39.5 120 L 38 118.5 L 38.5 116 Z " /><path fill="rgb(137,87,47)" stroke="rgb(137,87,47)" stroke-width="1" opacity="0.9490196078431372" d="M 103.5 116 L 104.5 118 L 103.5 116 Z " /><path fill="rgb(137,87,47)" stroke="rgb(137,87,47)" stroke-width="1" opacity="0.9490196078431372" d="M 50.5 118 L 49.5 120 L 50.5 118 Z " /><path fill="rgb(137,87,47)" stroke="rgb(137,87,47)" stroke-width="1" opacity="0.9490196078431372" d="M 63.5 121 L 64 124.5 L 63 124.5 L 63.5 121 Z " /><path fill="rgb(137,87,47)" stroke="rgb(137,87,47)" stroke-width="1" opacity="0.9490196078431372" d="M 87.5 128 L 86.5 130 L 87.5 128 Z " /><path fill="rgb(137,87,47)" stroke="rgb(137,87,47)" stroke-width="1" opacity="0.9490196078431372" d="M 66.5 130 L 67.5 132 L 66.5 130 Z " /><path fill="rgb(237,199,132)" stroke="rgb(237,199,132)" stroke-width="1" opacity="0.08235294117647059" d="M 74.5 18 L 75.5 20 L 67.5 21 L 68.5 19 Q 73.3 20.3 74.5 18 Z " /><path fill="rgb(237,199,132)" stroke="rgb(237,199,132)" stroke-width="1" opacity="0.08235294117647059" d="M 77.5 19 Q 83.3 18.2 85 21.5 L 83.5 21 L 77.5 20 L 77.5 19 Z " /><path fill="rgb(237,199,132)" stroke="rgb(237,199,132)" stroke-width="1" opacity="0.08235294117647059" d="M 87.5 21 Q 85.9 22.8 89 24.5 L 88.5 26 L 86 22.5 L 87.5 21 Z " /><path fill="rgb(237,199,132)" stroke="rgb(237,199,132)" stroke-width="1" opacity="0.08235294117647059" d="M 65.5 22 L 64.5 24 L 65.5 22 Z " /><path fill="rgb(237,199,132)" stroke="rgb(237,199,132)" stroke-width="1" opacity="0.08235294117647059" d="M 61.5 25 L 63 27.5 L 61 26.5 L 61.5 25 Z " /><path fill="rgb(237,199,132)" stroke="rgb(237,199,132)" stroke-width="1" opacity="0.08235294117647059" d="M 89.5 27 L 90 29.5 L 89 29.5 L 89.5 27 Z " /><path fill="rgb(237,199,132)" stroke="rgb(237,199,132)" stroke-width="1" opacity="0.08235294117647059" d="M 43.5 28 L 45 28.5 L 44.5 31 L 42 29.5 L 43.5 28 Z " /><path fill="rgb(237,199,132)" stroke="rgb(237,199,132)" stroke-width="1" opacity="0.08235294117647059" d="M 62.5 29 L 63 31.5 L 62 31.5 L 62.5 29 Z " /><path fill="rgb(237,199,132)" stroke="rgb(237,199,132)" stroke-width="1" opacity="0.08235294117647059" d="M 106.5 30 L 106 31.5 Q 106.8 33.8 104.5 33 L 104.5 35 L 103 34.5 L 101.5 37 L 102 35.5 Q 100.9 32.2 103.5 33 L 106.5 30 Z " /><path fill="rgb(237,199,132)" stroke="rgb(237,199,132)" stroke-width="1" opacity="0.08235294117647059" d="M 46.5 31 L 48.5 32 L 50.5 31 L 50.5 32 L 48.5 33 L 46.5 31 Z " /><path fill="rgb(237,199,132)" stroke="rgb(237,199,132)" stroke-width="1" opacity="0.08235294117647059" d="M 90.5 31 L 91 33.5 L 90 33.5 L 90.5 31 Z " /><path fill="rgb(237,199,132)" stroke="rgb(237,199,132)" stroke-width="1" opacity="0.08235294117647059" d="M 112.5 31 L 115 34.5 L 112.5 33 L 111 32.5 L 112.5 31 Z " /><path fill="rgb(237,199,132)" stroke="rgb(237,199,132)" stroke-width="1" opacity="0.08235294117647059" d="M 52.5 34 L 54.5 34 L 58.5 36 L 60 35.5 Q 59 38 54.5 37 L 52.5 34 Z " /><path fill="rgb(237,199,132)" stroke="rgb(237,199,132)" stroke-width="1" opacity="0.08235294117647059" d="M 36.5 35 L 34.5 38 L 34 36 L 36.5 35 Z " /><path fill="rgb(237,199,132)" stroke="rgb(237,199,132)" stroke-width="1" opacity="0.08235294117647059" d="M 116.5 35 L 117.5 37 L 116.5 35 Z " /><path fill="rgb(237,199,132)" stroke="rgb(237,199,132)" stroke-width="1" opacity="0.08235294117647059" d="M 98.5 36 L 99.5 38 L 98.5 36 Z " /><path fill="rgb(237,199,132)" stroke="rgb(237,199,132)" stroke-width="1" opacity="0.08235294117647059" d="M 118.5 38 L 120.5 41 L 118.5 38 Z " /><path fill="rgb(237,199,132)" stroke="rgb(237,199,132)" stroke-width="1" opacity="0.08235294117647059" d="M 27.5 44 L 30 45.5 L 27.5 47 L 27.5 44 Z " /><path fill="rgb(237,199,132)" stroke="rgb(237,199,132)" stroke-width="1" opacity="0.08235294117647059" d="M 29.5 47 L 30.5 49 L 29.5 47 Z " /><path fill="rgb(237,199,132)" stroke="rgb(237,199,132)" stroke-width="1" opacity="0.08235294117647059" d="M 121.5 49 L 121 50.5 Q 121.5 54.5 118.5 55 L 120 52.5 L 121.5 49 Z " /><path fill="rgb(237,199,132)" stroke="rgb(237,199,132)" stroke-width="1" opacity="0.08235294117647059" d="M 29.5 50 L 32 50.5 L 29 52 L 29.5 50 Z " /><path fill="rgb(237,199,132)" stroke="rgb(237,199,132)" stroke-width="1" opacity="0.08235294117647059" d="M 33.5 55 L 36 56.5 L 34.5 56 L 33.5 55 Z " /><path fill="rgb(237,199,132)" stroke="rgb(237,199,132)" stroke-width="1" opacity="0.08235294117647059" d="M 117.5 57 L 119.5 61 L 122 60 Q 120.8 63 124.5 62 L 124.5 63 L 118 60.5 L 117.5 57 Z " /><path fill="rgb(237,199,132)" stroke="rgb(237,199,132)" stroke-width="1" opacity="0.08235294117647059" d="M 34.5 59 Q 37.5 60.5 34.5 62 L 32 60.5 L 34.5 59 Z " /><path fill="rgb(237,199,132)" stroke="rgb(237,199,132)" stroke-width="1" opacity="0.08235294117647059" d="M 23.5 60 L 26.5 61 L 28 60.5 Q 28.7 63.1 26 62 L 26 64 L 24.5 64 Q 23.3 66.3 22 63.5 L 22.5 62 L 23.5 64 L 25 62.5 L 23.5 60 Z " /><path fill="rgb(237,199,132)" stroke="rgb(237,199,132)" stroke-width="1" opacity="0.08235294117647059" d="M 29.5 62 L 32 62.5 L 29.5 63 L 29.5 62 Z " /><path fill="rgb(237,199,132)" stroke="rgb(237,199,132)" stroke-width="1" opacity="0.08235294117647059" d="M 72.5 62 Q 80.2 60.8 84 63.5 L 79.5 65 L 79.5 64 L 81 63.5 L 77 63 L 75.5 67 L 75 65.5 L 75.5 64 L 72.5 65 L 70 63.5 L 72.5 62 Z " /><path fill="rgb(237,199,132)" stroke="rgb(237,199,132)" stroke-width="1" opacity="0.08235294117647059" d="M 127.5 63 L 132 65.5 L 130.5 65 Q 126.7 64.8 127.5 63 Z " /><path fill="rgb(237,199,132)" stroke="rgb(237,199,132)" stroke-width="1" opacity="0.08235294117647059" d="M 68.5 64 Q 71.3 65.3 69 66.5 Q 69.8 68.8 67.5 68 L 67 65.5 L 68.5 64 Z " /><path fill="rgb(237,199,132)" stroke="rgb(237,199,132)" stroke-width="1" opacity="0.08235294117647059" d="M 85.5 64 Q 90 66 86.5 68 L 84 67.5 Q 87.1 65.8 85.5 64 Z " /><path fill="rgb(237,199,132)" stroke="rgb(237,199,132)" stroke-width="1" opacity="0.08235294117647059" d="M 89.5 69 L 91 71.5 L 90 71.5 L 89.5 69 Z " /><path fill="rgb(237,199,132)" stroke="rgb(237,199,132)" stroke-width="1" opacity="0.08235294117647059" d="M 133.5 69 L 134 72.5 L 133 72.5 L 133.5 69 Z " /><path fill="rgb(237,199,132)" stroke="rgb(237,199,132)" stroke-width="1" opacity="0.08235294117647059" d="M 18.5 71 L 19 73.5 L 18 73.5 L 18.5 71 Z " /><path fill="rgb(237,199,132)" stroke="rgb(237,199,132)" stroke-width="1" opacity="0.08235294117647059" d="M 91.5 73 L 92 78.5 L 91 78.5 L 91.5 73 Z " /><path fill="rgb(237,199,132)" stroke="rgb(237,199,132)" stroke-width="1" opacity="0.08235294117647059" d="M 18.5 75 L 19 79.5 L 18 79.5 L 18.5 75 Z " /><path fill="rgb(237,199,132)" stroke="rgb(237,199,132)" stroke-width="1" opacity="0.08235294117647059" d="M 61.5 75 L 62 77.5 L 61 77.5 L 61.5 75 Z " /><path fill="rgb(237,199,132)" stroke="rgb(237,199,132)" stroke-width="1" opacity="0.08235294117647059" d="M 133.5 81 L 134 83.5 L 133 83.5 L 133.5 81 Z " /><path fill="rgb(237,199,132)" stroke="rgb(237,199,132)" stroke-width="1" opacity="0.08235294117647059" d="M 20.5 85 L 22.5 89 Q 24 86.5 25.5 90 L 31 91.5 L 27.5 92 L 25.5 91 L 24 91.5 L 24.5 90 L 22.5 91 L 21.5 89 L 20 89.5 L 20.5 85 Z " /><path fill="rgb(237,199,132)" stroke="rgb(237,199,132)" stroke-width="1" opacity="0.08235294117647059" d="M 66.5 86 L 68.5 86 L 70 86.5 L 67.5 88 L 66.5 86 Z " /><path fill="rgb(237,199,132)" stroke="rgb(237,199,132)" stroke-width="1" opacity="0.08235294117647059" d="M 72.5 87 L 73 88.5 L 70.5 90 L 70.5 89 Q 73 89.7 72.5 87 Z " /><path fill="rgb(237,199,132)" stroke="rgb(237,199,132)" stroke-width="1" opacity="0.08235294117647059" d="M 82.5 87 L 84.5 88 L 86 87.5 Q 84.8 90.2 83.5 88 L 82.5 87 Z " /><path fill="rgb(237,199,132)" stroke="rgb(237,199,132)" stroke-width="1" opacity="0.08235294117647059" d="M 129.5 88 L 127.5 91 L 123 90.5 Q 128.1 91 129.5 88 Z " /><path fill="rgb(237,199,132)" stroke="rgb(237,199,132)" stroke-width="1" opacity="0.08235294117647059" d="M 81.5 89 L 83 89.5 L 78.5 91 L 78.5 90 L 81.5 89 Z " /><path fill="rgb(237,199,132)" stroke="rgb(237,199,132)" stroke-width="1" opacity="0.08235294117647059" d="M 73.5 90 L 77 90.5 L 73.5 91 L 73.5 90 Z " /><path fill="rgb(237,199,132)" stroke="rgb(237,199,132)" stroke-width="1" opacity="0.08235294117647059" d="M 120 91 L 122 91.5 L 120 92.5 L 120 91 Z " /><path fill="rgb(237,199,132)" stroke="rgb(237,199,132)" stroke-width="1" opacity="0.08235294117647059" d="M 118.5 92 L 118 93.5 L 120 96.5 L 118 97.5 L 118.5 96 Q 115.9 96.8 117 93.5 L 118.5 92 Z " /><path fill="rgb(237,199,132)" stroke="rgb(237,199,132)" stroke-width="1" opacity="0.08235294117647059" d="M 35.5 96 L 36 98.5 L 34 99.5 L 35.5 96 Z " /><path fill="rgb(237,199,132)" stroke="rgb(237,199,132)" stroke-width="1" opacity="0.08235294117647059" d="M 119.5 99 L 120.5 101 L 119.5 99 Z " /><path fill="rgb(237,199,132)" stroke="rgb(237,199,132)" stroke-width="1" opacity="0.08235294117647059" d="M 33.5 101 L 32.5 103 L 33.5 101 Z " /><path fill="rgb(237,199,132)" stroke="rgb(237,199,132)" stroke-width="1" opacity="0.08235294117647059" d="M 121.5 102 L 123 105.5 L 122 105.5 L 121.5 102 Z " /><path fill="rgb(237,199,132)" stroke="rgb(237,199,132)" stroke-width="1" opacity="0.08235294117647059" d="M 31.5 110 L 35 114.5 L 31.5 116 L 30.5 114 L 33 115 L 31.5 112 L 30 112.5 L 31.5 110 Z " /><path fill="rgb(237,199,132)" stroke="rgb(237,199,132)" stroke-width="1" opacity="0.08235294117647059" d="M 120.5 113 L 119.5 115 L 120.5 113 Z " /><path fill="rgb(237,199,132)" stroke="rgb(237,199,132)" stroke-width="1" opacity="0.08235294117647059" d="M 93.5 114 L 98 114.5 L 93.5 115 L 93.5 114 Z " /><path fill="rgb(237,199,132)" stroke="rgb(237,199,132)" stroke-width="1" opacity="0.08235294117647059" d="M 57.5 115 L 63 118.5 Q 64.7 124.3 61 123 L 59 119.5 L 59.5 118 Q 57.3 118.8 58 116.5 L 56.5 117 L 50.5 120 L 52.5 117 L 57.5 115 Z " /><path fill="rgb(237,199,132)" stroke="rgb(237,199,132)" stroke-width="1" opacity="0.08235294117647059" d="M 91.5 115 L 92.5 117 L 94 116.5 L 91 117.5 L 90 122.5 L 90 124.5 L 88.5 128 L 89 126.5 Q 88.1 118.6 91.5 115 Z " /><path fill="rgb(237,199,132)" stroke="rgb(237,199,132)" stroke-width="1" opacity="0.08235294117647059" d="M 35.5 116 L 41 120.5 L 38.5 121 L 36 119.5 Q 38.3 118.3 35.5 117 L 34 117.5 L 35.5 116 Z " /><path fill="rgb(237,199,132)" stroke="rgb(237,199,132)" stroke-width="1" opacity="0.08235294117647059" d="M 98 116 L 104 119.5 L 102 120.5 L 102.5 119 L 100.5 120 L 98 119 L 98 116 Z " /><path fill="rgb(237,199,132)" stroke="rgb(237,199,132)" stroke-width="1" opacity="0.08235294117647059" d="M 118.5 116 L 116.5 119 L 118.5 116 Z " /><path fill="rgb(237,199,132)" stroke="rgb(237,199,132)" stroke-width="1" opacity="0.08235294117647059" d="M 105 120 L 108 121.5 L 107.5 124 L 106.5 121 L 105.5 124 L 105 120 Z " /><path fill="rgb(237,199,132)" stroke="rgb(237,199,132)" stroke-width="1" opacity="0.08235294117647059" d="M 43.5 121 L 47 121.5 L 43.5 122 L 43.5 121 Z " /><path fill="rgb(237,199,132)" stroke="rgb(237,199,132)" stroke-width="1" opacity="0.08235294117647059" d="M 109.5 121 L 112 122.5 L 110.5 122 L 109.5 121 Z " /><path fill="rgb(237,199,132)" stroke="rgb(237,199,132)" stroke-width="1" opacity="0.08235294117647059" d="M 59.5 124 L 61 124.5 L 59 128.5 L 59.5 130 L 58 127.5 L 59.5 124 Z " /><path fill="rgb(237,199,132)" stroke="rgb(237,199,132)" stroke-width="1" opacity="0.08235294117647059" d="M 63.5 125 L 67.5 132 L 69 132.5 L 67.5 133 Q 65.8 129.9 64 131.5 Q 66.3 130.3 63.5 129 Q 60.9 129.8 62 126.5 L 63.5 125 Z " /><path fill="rgb(237,199,132)" stroke="rgb(237,199,132)" stroke-width="1" opacity="0.08235294117647059" d="M 85.5 130 L 83.5 133 L 85.5 130 Z " /><path fill="rgb(237,199,132)" stroke="rgb(237,199,132)" stroke-width="1" opacity="0.08235294117647059" d="M 70.5 133 L 77 134 L 76.5 136 L 74.5 135 L 72.5 136 L 72.5 135 L 74 134.5 Q 69.6 134.9 70.5 133 Z " /><path fill="rgb(237,199,132)" stroke="rgb(237,199,132)" stroke-width="1" opacity="0.08235294117647059" d="M 81.5 133 L 82 136 L 80 135.5 L 81.5 133 Z " /></svg>