<svg width="152" height="152" version="1.1" xmlns="http://www.w3.org/2000/svg" desc="Created with imagetracer.js version 1.2.6" ><path fill="rgb(74,27,8)" stroke="rgb(74,27,8)" stroke-width="1" opacity="0.9803921568627451" d="M 22.5 25 L 34 25.5 L 22.5 26 L 22.5 25 Z " /><path fill="rgb(74,27,8)" stroke="rgb(74,27,8)" stroke-width="1" opacity="0.9803921568627451" d="M 124.5 25 L 127 25.5 L 124.5 26 L 124.5 25 Z " /><path fill="rgb(74,27,8)" stroke="rgb(74,27,8)" stroke-width="1" opacity="0.9803921568627451" d="M 27.5 30 L 31 31.5 L 28.5 32 L 27.5 30 Z " /><path fill="rgb(74,27,8)" stroke="rgb(74,27,8)" stroke-width="1" opacity="0.9803921568627451" d="M 32 30 L 41.5 30 L 42.5 31 L 43.5 30 L 52.5 30 L 56.5 31 L 58 30.5 L 57.5 32 L 42.5 32 L 37.5 31 L 34.5 32 L 32 31.5 L 32 30 Z " /><path fill="rgb(74,27,8)" stroke="rgb(74,27,8)" stroke-width="1" opacity="0.9803921568627451" d="M 82 30 L 88.5 31 L 89.5 30 L 97.5 30 L 100 31.5 L 98.5 32 L 95.5 31 L 93.5 32 L 90.5 31 L 89.5 32 L 82 32 L 82 30 Z " /><path fill="rgb(74,27,8)" stroke="rgb(74,27,8)" stroke-width="1" opacity="0.9803921568627451" d="M 105.5 30 L 108 31.5 L 101.5 32 L 101.5 31 L 105.5 30 Z " /><path fill="rgb(74,27,8)" stroke="rgb(74,27,8)" stroke-width="1" opacity="0.9803921568627451" d="M 138.5 30 L 139.5 32 L 138.5 30 Z " /><path fill="rgb(74,27,8)" stroke="rgb(74,27,8)" stroke-width="1" opacity="0.9803921568627451" d="M 67.5 31 L 73 31.5 L 67.5 32 L 67.5 31 Z " /><path fill="rgb(74,27,8)" stroke="rgb(74,27,8)" stroke-width="1" opacity="0.9803921568627451" d="M 77.5 31 L 81 31.5 L 77.5 32 L 77.5 31 Z " /><path fill="rgb(74,27,8)" stroke="rgb(74,27,8)" stroke-width="1" opacity="0.9803921568627451" d="M 109.5 31 L 113 31.5 L 109.5 32 L 109.5 31 Z " /><path fill="rgb(74,27,8)" stroke="rgb(74,27,8)" stroke-width="1" opacity="0.9803921568627451" d="M 22.5 58 L 23 67.5 L 22 67.5 L 22.5 58 Z " /><path fill="rgb(74,27,8)" stroke="rgb(74,27,8)" stroke-width="1" opacity="0.9803921568627451" d="M 23.5 79 L 24 89.5 L 22 90.5 L 23 89.5 L 23.5 79 Z " /><path fill="rgb(74,27,8)" stroke="rgb(74,27,8)" stroke-width="1" opacity="0.9803921568627451" d="M 29.5 91 L 34 91.5 L 29.5 92 L 29.5 91 Z " /><path fill="rgb(74,27,8)" stroke="rgb(74,27,8)" stroke-width="1" opacity="0.9803921568627451" d="M 21.5 95 Q 27.4 93.3 26 97 Q 20.8 97.3 21.5 95 Z " /><path fill="rgb(74,27,8)" stroke="rgb(74,27,8)" stroke-width="1" opacity="0.9803921568627451" d="M 35.5 95 L 41 95.5 L 35.5 96 L 35.5 95 Z " /><path fill="rgb(74,27,8)" stroke="rgb(74,27,8)" stroke-width="1" opacity="0.9803921568627451" d="M 66.5 95 L 73 95.5 L 66.5 96 L 66.5 95 Z " /><path fill="rgb(74,27,8)" stroke="rgb(74,27,8)" stroke-width="1" opacity="0.9803921568627451" d="M 77.5 95 L 80 95.5 L 77.5 96 L 77.5 95 Z " /><path fill="rgb(74,27,8)" stroke="rgb(74,27,8)" stroke-width="1" opacity="0.9803921568627451" d="M 104.5 95 L 134 95.5 L 104.5 96 L 104.5 95 Z " /><path fill="rgb(74,27,8)" stroke="rgb(74,27,8)" stroke-width="1" opacity="0.9803921568627451" d="M 140.5 96 L 141 100.5 L 141 102.5 L 139.5 106 L 139 100.5 L 140.5 96 Z " /><path fill="rgb(74,27,8)" stroke="rgb(74,27,8)" stroke-width="1" opacity="0.9803921568627451" d="M 16.5 102 L 18 108 L 16 108 L 16.5 102 Z " /><path fill="rgb(74,27,8)" stroke="rgb(74,27,8)" stroke-width="1" opacity="0.9803921568627451" d="M 136.5 108 L 137.5 110 L 136.5 108 Z " /><path fill="rgb(74,27,8)" stroke="rgb(74,27,8)" stroke-width="1" opacity="0.9803921568627451" d="M 21.5 109 L 22.5 111 L 21.5 109 Z " /><path fill="rgb(74,27,8)" stroke="rgb(74,27,8)" stroke-width="1" opacity="0.9803921568627451" d="M 27.5 109 L 37 109.5 L 27.5 110 L 27.5 109 Z " /><path fill="rgb(74,27,8)" stroke="rgb(74,27,8)" stroke-width="1" opacity="0.9803921568627451" d="M 39.5 109 L 43 109.5 L 39.5 110 L 39.5 109 Z " /><path fill="rgb(74,27,8)" stroke="rgb(74,27,8)" stroke-width="1" opacity="0.9803921568627451" d="M 50.5 109 L 58 109.5 L 50.5 110 L 50.5 109 Z " /><path fill="rgb(74,27,8)" stroke="rgb(74,27,8)" stroke-width="1" opacity="0.9803921568627451" d="M 74.5 109 L 82 109.5 L 74.5 110 L 74.5 109 Z " /><path fill="rgb(74,27,8)" stroke="rgb(74,27,8)" stroke-width="1" opacity="0.9803921568627451" d="M 98.5 109 L 121 109.5 L 98.5 110 L 98.5 109 Z " /><path fill="rgb(74,27,8)" stroke="rgb(74,27,8)" stroke-width="1" opacity="0.9803921568627451" d="M 122.5 109 L 130 109.5 L 122.5 110 L 122.5 109 Z " /><path fill="rgb(74,27,8)" stroke="rgb(74,27,8)" stroke-width="1" opacity="0.9803921568627451" d="M 132.5 109 L 131.5 111 L 132.5 109 Z " /><path fill="rgb(74,27,8)" stroke="rgb(74,27,8)" stroke-width="1" opacity="0.9803921568627451" d="M 39.5 112 L 48 113.5 L 34.5 114 L 34.5 113 L 39.5 112 Z " /><path fill="rgb(74,27,8)" stroke="rgb(74,27,8)" stroke-width="1" opacity="0.9803921568627451" d="M 57.5 112 Q 60.1 111.3 59 114 L 55 113.5 L 57.5 112 Z " /><path fill="rgb(74,27,8)" stroke="rgb(74,27,8)" stroke-width="1" opacity="0.9803921568627451" d="M 60.5 112 Q 62.8 111.3 62 113.5 L 60.5 112 Z " /><path fill="rgb(74,27,8)" stroke="rgb(74,27,8)" stroke-width="1" opacity="0.9803921568627451" d="M 94 112 L 105.5 113 L 107.5 113 L 114 112 L 113.5 114 L 94 114 L 94 112 Z " /><path fill="rgb(74,27,8)" stroke="rgb(74,27,8)" stroke-width="1" opacity="0.9803921568627451" d="M 130.5 112 L 133 112.5 L 129.5 114 L 121 113.5 L 129.5 113 L 130.5 112 Z " /><path fill="rgb(74,27,8)" stroke="rgb(74,27,8)" stroke-width="1" opacity="0.9803921568627451" d="M 49.5 113 L 54 113.5 L 49.5 114 L 49.5 113 Z " /><path fill="rgb(74,27,8)" stroke="rgb(74,27,8)" stroke-width="1" opacity="0.9803921568627451" d="M 67.5 113 L 73 113.5 L 67.5 114 L 67.5 113 Z " /><path fill="rgb(74,27,8)" stroke="rgb(74,27,8)" stroke-width="1" opacity="0.9803921568627451" d="M 74.5 113 L 89 113.5 L 74.5 114 L 74.5 113 Z " /><path fill="rgb(74,27,8)" stroke="rgb(74,27,8)" stroke-width="1" opacity="0.9803921568627451" d="M 94.5 121 L 95.5 123 Q 92.7 123.7 94.5 121 Z " /><path fill="rgb(74,27,8)" stroke="rgb(74,27,8)" stroke-width="1" opacity="0.9803921568627451" d="M 66.5 130 Q 71.1 129.4 72.5 132 L 83 132.5 L 62.5 133 L 63.5 131 L 66.5 130 Z " /><path fill="rgb(74,27,8)" stroke="rgb(74,27,8)" stroke-width="1" opacity="0.9803921568627451" d="M 73.5 130 L 76 130.5 L 73.5 131 L 73.5 130 Z " /><path fill="rgb(74,27,8)" stroke="rgb(74,27,8)" stroke-width="1" opacity="0.9803921568627451" d="M 82.5 130 L 91.5 131 Q 93.2 128.3 99.5 130 L 99.5 131 L 90.5 133 L 90 131 L 82.5 131 L 82.5 130 Z " /><path fill="rgb(74,27,8)" stroke="rgb(74,27,8)" stroke-width="1" opacity="0.9803921568627451" d="M 49 131 L 52 131.5 L 49 133 L 49 131 Z " /><path fill="rgb(74,27,8)" stroke="rgb(74,27,8)" stroke-width="1" opacity="0.9803921568627451" d="M 55.5 132 L 60 132.5 L 55.5 133 L 55.5 132 Z " /><path fill="rgb(74,27,8)" stroke="rgb(74,27,8)" stroke-width="1" opacity="0.9803921568627451" d="M 86.5 132 L 89 132.5 L 86.5 133 L 86.5 132 Z " /><path fill="rgb(74,27,8)" stroke="rgb(74,27,8)" stroke-width="1" opacity="0.9803921568627451" d="M 99.5 132 L 104 132.5 L 99.5 133 L 99.5 132 Z " /><path fill="rgb(89,39,15)" stroke="rgb(89,39,15)" stroke-width="1" opacity="0.9686274509803922" d="M 16.5 29 L 17.5 31 L 16.5 29 Z " /><path fill="rgb(89,39,15)" stroke="rgb(89,39,15)" stroke-width="1" opacity="0.9686274509803922" d="M 53.5 30 L 57 30.5 L 53.5 31 L 53.5 30 Z " /><path fill="rgb(89,39,15)" stroke="rgb(89,39,15)" stroke-width="1" opacity="0.9686274509803922" d="M 58.5 30 L 65 30.5 L 58.5 31 L 58.5 30 Z " /><path fill="rgb(89,39,15)" stroke="rgb(89,39,15)" stroke-width="1" opacity="0.9686274509803922" d="M 66.5 30 L 82 30.5 L 66.5 31 L 66.5 30 Z " /><path fill="rgb(89,39,15)" stroke="rgb(89,39,15)" stroke-width="1" opacity="0.9686274509803922" d="M 98.5 30 L 105 30.5 L 98.5 31 L 98.5 30 Z " /><path fill="rgb(89,39,15)" stroke="rgb(89,39,15)" stroke-width="1" opacity="0.9686274509803922" d="M 106.5 30 L 122 30.5 L 106.5 31 L 106.5 30 Z " /><path fill="rgb(89,39,15)" stroke="rgb(89,39,15)" stroke-width="1" opacity="0.9686274509803922" d="M 22.5 51 L 23 57.5 L 22 57.5 L 22.5 51 Z " /><path fill="rgb(89,39,15)" stroke="rgb(89,39,15)" stroke-width="1" opacity="0.9686274509803922" d="M 140.5 87 L 141 91.5 L 140 91.5 L 140.5 87 Z " /><path fill="rgb(89,39,15)" stroke="rgb(89,39,15)" stroke-width="1" opacity="0.9686274509803922" d="M 23.5 90 L 22.5 92 L 23.5 90 Z " /><path fill="rgb(89,39,15)" stroke="rgb(89,39,15)" stroke-width="1" opacity="0.9686274509803922" d="M 26.5 91 L 29 91.5 L 26.5 92 L 26.5 91 Z " /><path fill="rgb(89,39,15)" stroke="rgb(89,39,15)" stroke-width="1" opacity="0.9686274509803922" d="M 38.5 91 L 46 91.5 L 38.5 92 L 38.5 91 Z " /><path fill="rgb(89,39,15)" stroke="rgb(89,39,15)" stroke-width="1" opacity="0.9686274509803922" d="M 43.5 109 L 47 109.5 L 43.5 110 L 43.5 109 Z " /><path fill="rgb(89,39,15)" stroke="rgb(89,39,15)" stroke-width="1" opacity="0.9686274509803922" d="M 82.5 109 L 92 109.5 L 82.5 110 L 82.5 109 Z " /><path fill="rgb(89,39,15)" stroke="rgb(89,39,15)" stroke-width="1" opacity="0.9686274509803922" d="M 24 112 L 39 112.5 Q 32.9 115.1 24 114 L 24 112 Z " /><path fill="rgb(89,39,15)" stroke="rgb(89,39,15)" stroke-width="1" opacity="0.9686274509803922" d="M 40.5 112 L 57 112.5 L 54.5 114 L 53.5 113 L 40.5 113 L 40.5 112 Z " /><path fill="rgb(89,39,15)" stroke="rgb(89,39,15)" stroke-width="1" opacity="0.9686274509803922" d="M 62.5 112 L 65 113.5 L 63.5 113 L 62.5 112 Z " /><path fill="rgb(89,39,15)" stroke="rgb(89,39,15)" stroke-width="1" opacity="0.9686274509803922" d="M 93.5 112 L 94 113.5 L 91.5 118 L 91 115.5 L 93 113.5 L 93.5 112 Z " /><path fill="rgb(89,39,15)" stroke="rgb(89,39,15)" stroke-width="1" opacity="0.9686274509803922" d="M 98.5 112 L 106 112.5 L 98.5 113 L 98.5 112 Z " /><path fill="rgb(89,39,15)" stroke="rgb(89,39,15)" stroke-width="1" opacity="0.9686274509803922" d="M 107.5 112 L 111 112.5 L 107.5 113 L 107.5 112 Z " /><path fill="rgb(89,39,15)" stroke="rgb(89,39,15)" stroke-width="1" opacity="0.9686274509803922" d="M 114.5 112 L 117 112.5 L 114.5 113 L 114.5 112 Z " /><path fill="rgb(89,39,15)" stroke="rgb(89,39,15)" stroke-width="1" opacity="0.9686274509803922" d="M 120.5 112 L 130 112.5 L 120.5 113 L 120.5 112 Z " /><path fill="rgb(89,39,15)" stroke="rgb(89,39,15)" stroke-width="1" opacity="0.9686274509803922" d="M 63.5 115 L 62.5 117 L 63.5 115 Z " /><path fill="rgb(89,39,15)" stroke="rgb(89,39,15)" stroke-width="1" opacity="0.9686274509803922" d="M 93.5 118 L 92.5 120 L 93.5 118 Z " /><path fill="rgb(89,39,15)" stroke="rgb(89,39,15)" stroke-width="1" opacity="0.9686274509803922" d="M 54.5 122 L 56 122.5 L 53.5 124 L 54.5 122 Z " /><path fill="rgb(89,39,15)" stroke="rgb(89,39,15)" stroke-width="1" opacity="0.9686274509803922" d="M 47.5 128 L 48.5 130 Q 45.7 130.7 47.5 128 Z " /><path fill="rgb(89,39,15)" stroke="rgb(89,39,15)" stroke-width="1" opacity="0.9686274509803922" d="M 52 130 L 54 130.5 L 53.5 132 L 55 132.5 L 51.5 133 L 52 131.5 L 52 130 Z " /><path fill="rgb(89,39,15)" stroke="rgb(89,39,15)" stroke-width="1" opacity="0.9686274509803922" d="M 62 130 L 68 131.5 L 66.5 132 L 63.5 131 L 60.5 133 L 60.5 132 Q 63.1 132.7 62 130 Z " /><path fill="rgb(89,39,15)" stroke="rgb(89,39,15)" stroke-width="1" opacity="0.9686274509803922" d="M 104.5 130 L 107 131.5 L 105.5 132 L 104.5 130 Z " /><path fill="rgb(89,39,15)" stroke="rgb(89,39,15)" stroke-width="1" opacity="0.9686274509803922" d="M 80.5 131 L 89.5 131 L 90 132.5 L 88.5 132 L 83.5 133 L 80.5 132 L 80.5 131 Z " /><path fill="rgb(89,39,15)" stroke="rgb(89,39,15)" stroke-width="1" opacity="0.9686274509803922" d="M 97.5 131 L 103 131.5 L 91.5 133 L 91.5 132 Q 96.3 133.3 97.5 131 Z " /><path fill="rgb(0,0,0)" stroke="rgb(0,0,0)" stroke-width="1" opacity="0" d="M 0 0 L 152 0 L 152 152 L 0 152 L 0 0 Z M 61 23 L 60 24 L 22 24 L 16 28 L 16 30 L 15 31 L 15 91 L 14 90 L 13 90 L 14 96 L 14 93 L 15 93 Q 16 101 13 106 L 15 110 L 21 114 Q 22 117 24 115 L 38 115 L 39 116 Q 40 114 46 115 L 48 115 L 48 117 L 49 117 L 50 115 L 56 115 L 57 117 L 57 116 L 59 116 L 61 115 L 60 117 Q 61 121 57 119 Q 55 117 54 120 Q 55 122 53 121 L 51 121 Q 52 123 50 122 L 48 122 L 45 123 L 47 126 L 45 128 L 46 129 L 45 131 L 47 130 L 50 136 L 52 135 L 54 135 L 62 135 L 63 134 L 66 135 L 94 135 L 95 134 L 98 135 L 107 134 L 108 133 Q 109 126 107 123 L 100 121 L 100 119 L 98 120 Q 95 119 97 118 Q 98 115 95 116 L 95 115 L 98 116 L 99 115 L 131 115 L 138 112 Q 140 113 139 111 L 142 110 L 141 108 L 141 101 L 143 100 L 141 98 L 141 33 L 142 31 L 141 31 L 140 30 L 141 28 Q 138 29 139 26 L 135 24 L 62 24 L 61 23 Z M 143 33 L 142 36 L 143 36 L 143 33 Z M 14 44 L 13 48 L 14 48 L 14 44 Z M 14 49 L 13 52 L 14 52 L 14 49 Z M 14 53 L 13 56 L 14 56 L 14 53 Z M 14 57 L 13 64 L 14 64 L 14 57 Z M 14 65 L 13 72 L 14 72 L 14 65 Z M 143 65 L 142 68 L 143 68 L 143 65 Z M 14 76 L 13 80 L 14 80 L 14 76 Z M 14 85 L 13 88 L 14 88 L 14 85 Z M 42 116 L 43 118 L 45 117 L 42 116 Z M 110 126 Q 108 129 111 128 L 110 126 Z " /><path fill="rgb(46,8,2)" stroke="rgb(46,8,2)" stroke-width="1" opacity="0.984313725490196" d="M 21.5 25 L 20.5 27 Q 18.3 26.3 19 28.5 L 17 30.5 L 16.5 102 L 16 30.5 L 19.5 26 L 21.5 25 Z " /><path fill="rgb(46,8,2)" stroke="rgb(46,8,2)" stroke-width="1" opacity="0.984313725490196" d="M 42.5 25 L 68 25.5 L 42.5 26 L 42.5 25 Z " /><path fill="rgb(46,8,2)" stroke="rgb(46,8,2)" stroke-width="1" opacity="0.984313725490196" d="M 71.5 25 L 86 25.5 L 71.5 26 L 71.5 25 Z " /><path fill="rgb(46,8,2)" stroke="rgb(46,8,2)" stroke-width="1" opacity="0.984313725490196" d="M 87.5 25 L 102 25.5 L 87.5 26 L 87.5 25 Z " /><path fill="rgb(46,8,2)" stroke="rgb(46,8,2)" stroke-width="1" opacity="0.984313725490196" d="M 103.5 25 L 124 25.5 L 103.5 26 L 103.5 25 Z " /><path fill="rgb(46,8,2)" stroke="rgb(46,8,2)" stroke-width="1" opacity="0.984313725490196" d="M 130.5 25 L 135 25.5 L 130.5 26 L 130.5 25 Z " /><path fill="rgb(46,8,2)" stroke="rgb(46,8,2)" stroke-width="1" opacity="0.984313725490196" d="M 136.5 26 L 139 29.5 L 138 29.5 L 136.5 26 Z " /><path fill="rgb(46,8,2)" stroke="rgb(46,8,2)" stroke-width="1" opacity="0.984313725490196" d="M 24.5 31 L 28 31.5 L 24 32 L 24 71.5 L 23 72.5 L 24 74.5 L 24 76.5 L 22.5 90 L 22 68.5 L 23 67.5 L 23 32.5 L 24.5 31 Z " /><path fill="rgb(46,8,2)" stroke="rgb(46,8,2)" stroke-width="1" opacity="0.984313725490196" d="M 58.5 31 L 67 31.5 L 58.5 32 L 58.5 31 Z " /><path fill="rgb(46,8,2)" stroke="rgb(46,8,2)" stroke-width="1" opacity="0.984313725490196" d="M 90.5 31 L 93 31.5 L 90.5 32 L 90.5 31 Z " /><path fill="rgb(46,8,2)" stroke="rgb(46,8,2)" stroke-width="1" opacity="0.984313725490196" d="M 95.5 31 L 98 31.5 L 95.5 32 L 95.5 31 Z " /><path fill="rgb(46,8,2)" stroke="rgb(46,8,2)" stroke-width="1" opacity="0.984313725490196" d="M 113.5 31 L 128 31.5 L 113.5 32 L 113.5 31 Z " /><path fill="rgb(46,8,2)" stroke="rgb(46,8,2)" stroke-width="1" opacity="0.984313725490196" d="M 130.5 31 Q 133.8 29.9 133 32.5 L 134 33.5 L 134 90.5 L 133 90.5 L 133 33.5 L 131.5 32 L 130.5 31 Z " /><path fill="rgb(46,8,2)" stroke="rgb(46,8,2)" stroke-width="1" opacity="0.984313725490196" d="M 139.5 32 L 140 99.5 L 139 99.5 L 139.5 32 Z " /><path fill="rgb(46,8,2)" stroke="rgb(46,8,2)" stroke-width="1" opacity="0.984313725490196" d="M 26.5 92 L 133 92.5 L 26.5 93 L 26.5 92 Z " /><path fill="rgb(46,8,2)" stroke="rgb(46,8,2)" stroke-width="1" opacity="0.984313725490196" d="M 26 95 L 33.5 96 L 35.5 96 Q 40.3 97.3 41.5 95 L 65.5 95 Q 67 97.5 72.5 96 L 74.5 95 L 77.5 96 L 80.5 95 L 103.5 95 L 104.5 96 L 135.5 96 L 137 97.5 L 136.5 100 L 136 97 L 26.5 97 L 26 95 Z " /><path fill="rgb(46,8,2)" stroke="rgb(46,8,2)" stroke-width="1" opacity="0.984313725490196" d="M 139.5 106 L 140 108.5 L 139 111 L 133.5 113 L 133.5 112 Q 138.5 112.5 139 108.5 L 139.5 106 Z " /><path fill="rgb(46,8,2)" stroke="rgb(46,8,2)" stroke-width="1" opacity="0.984313725490196" d="M 16.5 108 L 18.5 108 L 21 109.5 L 19.5 109 L 18 109.5 L 23 112.5 L 21.5 113 L 17 111 L 16.5 108 Z " /><path fill="rgb(46,8,2)" stroke="rgb(46,8,2)" stroke-width="1" opacity="0.984313725490196" d="M 135.5 108 L 134.5 110 L 133 109.5 L 135.5 108 Z " /><path fill="rgb(46,8,2)" stroke="rgb(46,8,2)" stroke-width="1" opacity="0.984313725490196" d="M 130.5 109 L 132 109.5 L 130.5 111 L 23.5 111 L 23.5 110 L 129.5 110 L 130.5 109 Z " /><path fill="rgb(46,8,2)" stroke="rgb(46,8,2)" stroke-width="1" opacity="0.984313725490196" d="M 114.5 113 L 118 113.5 L 114.5 114 L 114.5 113 Z " /><path fill="rgb(46,8,2)" stroke="rgb(46,8,2)" stroke-width="1" opacity="0.984313725490196" d="M 92.5 115 L 93 117.5 L 94 120.5 L 93 120.5 L 91 116.5 L 92.5 115 Z " /><path fill="rgb(46,8,2)" stroke="rgb(46,8,2)" stroke-width="1" opacity="0.984313725490196" d="M 102.5 123 L 106 124.5 L 104.5 125 L 102.5 123 Z " /><path fill="rgb(46,8,2)" stroke="rgb(46,8,2)" stroke-width="1" opacity="0.984313725490196" d="M 70.5 130 L 73 130.5 L 70.5 131 L 70.5 130 Z " /><path fill="rgb(46,8,2)" stroke="rgb(46,8,2)" stroke-width="1" opacity="0.984313725490196" d="M 76.5 130 L 82 130.5 L 76.5 131 L 76.5 130 Z " /><path fill="rgb(239,210,131)" stroke="rgb(239,210,131)" stroke-width="1" opacity="0.7058823529411765" d="M 66.5 29 L 74 29.5 L 66.5 30 L 66.5 29 Z " /><path fill="rgb(239,210,131)" stroke="rgb(239,210,131)" stroke-width="1" opacity="0.7058823529411765" d="M 81.5 29 L 84 29.5 L 81.5 30 L 81.5 29 Z " /><path fill="rgb(239,210,131)" stroke="rgb(239,210,131)" stroke-width="1" opacity="0.7058823529411765" d="M 15.5 30 L 16 46.5 L 15 46.5 L 15.5 30 Z " /><path fill="rgb(239,210,131)" stroke="rgb(239,210,131)" stroke-width="1" opacity="0.7058823529411765" d="M 141.5 30 L 142 31.5 L 140.5 34 L 140 31.5 L 141.5 30 Z " /><path fill="rgb(239,210,131)" stroke="rgb(239,210,131)" stroke-width="1" opacity="0.7058823529411765" d="M 142.5 33 L 143 35.5 L 142 35.5 L 142.5 33 Z " /><path fill="rgb(239,210,131)" stroke="rgb(239,210,131)" stroke-width="1" opacity="0.7058823529411765" d="M 132.5 39 L 133 51.5 L 132 51.5 L 132.5 39 Z " /><path fill="rgb(239,210,131)" stroke="rgb(239,210,131)" stroke-width="1" opacity="0.7058823529411765" d="M 13.5 44 L 14 47.5 L 13 47.5 L 13.5 44 Z " /><path fill="rgb(239,210,131)" stroke="rgb(239,210,131)" stroke-width="1" opacity="0.7058823529411765" d="M 13.5 49 L 14 51.5 L 13 51.5 L 13.5 49 Z " /><path fill="rgb(239,210,131)" stroke="rgb(239,210,131)" stroke-width="1" opacity="0.7058823529411765" d="M 15.5 50 L 16 63.5 L 15 63.5 L 15.5 50 Z " /><path fill="rgb(239,210,131)" stroke="rgb(239,210,131)" stroke-width="1" opacity="0.7058823529411765" d="M 13.5 53 L 14 55.5 L 13 55.5 L 13.5 53 Z " /><path fill="rgb(239,210,131)" stroke="rgb(239,210,131)" stroke-width="1" opacity="0.7058823529411765" d="M 13.5 57 L 14 63.5 L 13 63.5 L 13.5 57 Z " /><path fill="rgb(239,210,131)" stroke="rgb(239,210,131)" stroke-width="1" opacity="0.7058823529411765" d="M 13.5 65 L 14 70.5 L 13 70.5 L 13.5 65 Z " /><path fill="rgb(239,210,131)" stroke="rgb(239,210,131)" stroke-width="1" opacity="0.7058823529411765" d="M 142.5 65 L 143 67.5 L 142 67.5 L 142.5 65 Z " /><path fill="rgb(239,210,131)" stroke="rgb(239,210,131)" stroke-width="1" opacity="0.7058823529411765" d="M 15.5 68 L 16 71.5 L 15 71.5 L 15.5 68 Z " /><path fill="rgb(239,210,131)" stroke="rgb(239,210,131)" stroke-width="1" opacity="0.7058823529411765" d="M 13.5 76 L 14 79.5 L 13 79.5 L 13.5 76 Z " /><path fill="rgb(239,210,131)" stroke="rgb(239,210,131)" stroke-width="1" opacity="0.7058823529411765" d="M 13.5 85 L 14 87.5 L 13 87.5 L 13.5 85 Z " /><path fill="rgb(239,210,131)" stroke="rgb(239,210,131)" stroke-width="1" opacity="0.7058823529411765" d="M 13.5 89 L 15 91.5 L 13.5 96 L 13.5 89 Z " /><path fill="rgb(239,210,131)" stroke="rgb(239,210,131)" stroke-width="1" opacity="0.7058823529411765" d="M 142.5 97 L 142.5 100 Q 139.5 98.5 142.5 97 Z " /><path fill="rgb(239,210,131)" stroke="rgb(239,210,131)" stroke-width="1" opacity="0.7058823529411765" d="M 14.5 101 L 15 107.5 L 13.5 110 L 13 108.5 L 14 106.5 L 14 104.5 L 14.5 101 Z " /><path fill="rgb(239,210,131)" stroke="rgb(239,210,131)" stroke-width="1" opacity="0.7058823529411765" d="M 135.5 102 L 136 104.5 L 135 104.5 L 135.5 102 Z " /><path fill="rgb(239,210,131)" stroke="rgb(239,210,131)" stroke-width="1" opacity="0.7058823529411765" d="M 142.5 107 L 142 108.5 L 141.5 110 L 140.5 108 L 142.5 107 Z " /><path fill="rgb(239,210,131)" stroke="rgb(239,210,131)" stroke-width="1" opacity="0.7058823529411765" d="M 15.5 109 L 21.5 114 L 60.5 114 L 62 115.5 L 60.5 118 L 60 116.5 L 60.5 115 L 58.5 116 L 57 115.5 L 56.5 117 L 56 115 L 49.5 115 L 49 116.5 L 48 116.5 L 47.5 115 L 45.5 115 Q 40 113.5 38.5 116 L 37.5 115 L 23.5 115 Q 22 117.5 20.5 114 L 17.5 116 L 19 113.5 L 17.5 112 L 15.5 112 L 14 111.5 L 16 110.5 L 15.5 109 Z " /><path fill="rgb(239,210,131)" stroke="rgb(239,210,131)" stroke-width="1" opacity="0.7058823529411765" d="M 93 114 L 131 114.5 L 98 115.5 L 99 117.5 L 98 117.5 L 96.5 115 L 94 115.5 L 97 117.5 Q 94.8 118.8 97.5 120 L 99.5 119 L 98.5 121 L 95 121 L 95 117 Q 91.7 118.1 93 114 Z " /><path fill="rgb(239,210,131)" stroke="rgb(239,210,131)" stroke-width="1" opacity="0.7058823529411765" d="M 42 116 L 45 116.5 L 42.5 118 L 42 116 Z " /><path fill="rgb(239,210,131)" stroke="rgb(239,210,131)" stroke-width="1" opacity="0.7058823529411765" d="M 68 117 L 77.5 117 L 90.5 121 L 92 120.5 L 91.5 122 Q 94.5 121.2 93 125 L 91 125.5 L 93.5 126 L 99 124 L 99.5 126 L 103.5 125 L 102.5 129 L 101.5 128 L 87 128 L 88 125.5 L 85.5 124 L 77.5 124 L 76.5 123 L 71.5 124 L 70 121 Q 66.3 122.2 68 117 Z " /><path fill="rgb(239,210,131)" stroke="rgb(239,210,131)" stroke-width="1" opacity="0.7058823529411765" d="M 55.5 118 L 59 119 Q 60.4 122.7 54.5 121 L 51 122 L 51.5 120 L 54 121 L 55.5 118 Z " /><path fill="rgb(239,210,131)" stroke="rgb(239,210,131)" stroke-width="1" opacity="0.7058823529411765" d="M 49.5 120 L 50 122.5 L 47.5 125 L 45.5 122 L 49.5 120 Z " /><path fill="rgb(239,210,131)" stroke="rgb(239,210,131)" stroke-width="1" opacity="0.7058823529411765" d="M 102.5 120 L 101.5 122 L 102.5 120 Z " /><path fill="rgb(239,210,131)" stroke="rgb(239,210,131)" stroke-width="1" opacity="0.7058823529411765" d="M 64.5 121 L 66 122.5 L 62.5 126 L 65 122.5 L 64.5 121 Z " /><path fill="rgb(239,210,131)" stroke="rgb(239,210,131)" stroke-width="1" opacity="0.7058823529411765" d="M 105.5 123 Q 107.8 122.3 107 124.5 L 105.5 123 Z " /><path fill="rgb(239,210,131)" stroke="rgb(239,210,131)" stroke-width="1" opacity="0.7058823529411765" d="M 44.5 125 L 45.5 127 L 47 126.5 L 46 131 L 44 130.5 L 44 126.5 L 44.5 125 Z " /><path fill="rgb(239,210,131)" stroke="rgb(239,210,131)" stroke-width="1" opacity="0.7058823529411765" d="M 55.5 125 L 59 125.5 L 55.5 126 L 55.5 125 Z " /><path fill="rgb(239,210,131)" stroke="rgb(239,210,131)" stroke-width="1" opacity="0.7058823529411765" d="M 51.5 126 L 52.5 128 L 51 127.5 L 50.5 129 L 49.5 127 L 51.5 126 Z " /><path fill="rgb(239,210,131)" stroke="rgb(239,210,131)" stroke-width="1" opacity="0.7058823529411765" d="M 109.5 126 L 110.5 128 Q 107.7 128.7 109.5 126 Z " /><path fill="rgb(239,210,131)" stroke="rgb(239,210,131)" stroke-width="1" opacity="0.7058823529411765" d="M 109.5 129 L 111 131.5 L 109 130.5 L 109.5 129 Z " /><path fill="rgb(239,210,131)" stroke="rgb(239,210,131)" stroke-width="1" opacity="0.7058823529411765" d="M 47.5 132 L 52 134.5 L 50.5 135 L 48 134.5 L 47.5 132 Z " /><path fill="rgb(239,210,131)" stroke="rgb(239,210,131)" stroke-width="1" opacity="0.7058823529411765" d="M 53.5 134 L 62 134.5 L 53.5 135 L 53.5 134 Z " /><path fill="rgb(239,210,131)" stroke="rgb(239,210,131)" stroke-width="1" opacity="0.7058823529411765" d="M 65.5 134 L 71 134.5 L 65.5 135 L 65.5 134 Z " /><path fill="rgb(239,210,131)" stroke="rgb(239,210,131)" stroke-width="1" opacity="0.7058823529411765" d="M 72.5 134 L 76 134.5 L 72.5 135 L 72.5 134 Z " /><path fill="rgb(239,210,131)" stroke="rgb(239,210,131)" stroke-width="1" opacity="0.7058823529411765" d="M 81.5 134 L 93 134.5 L 81.5 135 L 81.5 134 Z " /><path fill="rgb(252,249,223)" stroke="rgb(252,249,223)" stroke-width="1" opacity="0.9803921568627451" d="M 25.5 32 L 130.5 32 L 132 33.5 L 132 89.5 L 133 90.5 L 24 91 L 24 33.5 L 25.5 32 Z M 28 33 L 26 35 Q 28 42 25 46 L 25 48 L 26 50 L 25 89 L 27 90 L 131 90 L 131 34 L 106 34 L 104 34 L 35 34 Q 33 32 28 33 Z " /><path fill="rgb(252,249,223)" stroke="rgb(252,249,223)" stroke-width="1" opacity="0.9803921568627451" d="M 19.5 97 L 134.5 97 L 135 99 L 114.5 99 L 113.5 98 L 112.5 99 L 24.5 99 L 20.5 98 L 18.5 99 L 19.5 97 Z " /><path fill="rgb(252,249,223)" stroke="rgb(252,249,223)" stroke-width="1" opacity="0.9803921568627451" d="M 19.5 100 L 20 107 L 25.5 108 L 27.5 108 L 55.5 108 L 56.5 107 L 58.5 108 L 60.5 108 L 81.5 108 L 85.5 107 L 86.5 108 L 102.5 108 L 104.5 108 L 133 108.5 L 21.5 109 Q 17.1 107.1 19.5 100 Z " /><path fill="rgb(252,249,223)" stroke="rgb(252,249,223)" stroke-width="1" opacity="0.9803921568627451" d="M 66.5 128 L 73.5 128 L 74 130 L 59 129.5 L 66.5 128 Z " /><path fill="rgb(252,249,223)" stroke="rgb(252,249,223)" stroke-width="1" opacity="0.9803921568627451" d="M 82.5 128 L 84 128.5 L 81.5 130 L 82.5 128 Z " /><path fill="rgb(254,236,191)" stroke="rgb(254,236,191)" stroke-width="1" opacity="0.9921568627450981" d="M 27.5 33 Q 33 31.5 34.5 34 L 103.5 34 L 105.5 34 L 131 34 L 131 90 L 26.5 90 L 25 88.5 L 26 49.5 L 25 47.5 L 25 45.5 Q 27.5 42 26 34.5 L 27.5 33 Z " /><path fill="rgb(254,236,191)" stroke="rgb(254,236,191)" stroke-width="1" opacity="0.9921568627450981" d="M 132.5 34 L 133 38.5 L 132 38.5 L 132.5 34 Z " /><path fill="rgb(254,236,191)" stroke="rgb(254,236,191)" stroke-width="1" opacity="0.9921568627450981" d="M 132.5 52 L 133 54.5 L 132 54.5 L 132.5 52 Z " /><path fill="rgb(254,236,191)" stroke="rgb(254,236,191)" stroke-width="1" opacity="0.9921568627450981" d="M 132.5 56 L 133 89.5 L 132 89.5 L 132.5 56 Z " /><path fill="rgb(254,236,191)" stroke="rgb(254,236,191)" stroke-width="1" opacity="0.9921568627450981" d="M 20.5 98 L 24.5 99 L 112.5 99 L 114.5 99 L 134.5 99 L 135.5 98 L 136 102 Q 133.3 100.9 134 103.5 L 135 105.5 L 133.5 109 L 132.5 108 L 104.5 108 L 103.5 107 L 102.5 108 L 86.5 108 L 82.5 107 L 81.5 108 L 60.5 108 L 58.5 108 L 56.5 107 L 55.5 108 L 27.5 108 L 25.5 108 L 20.5 107 L 19 107.5 Q 21.5 106 20 100.5 L 19 100.5 L 18.5 106 L 18 99 L 20.5 98 Z " /><path fill="rgb(254,236,191)" stroke="rgb(254,236,191)" stroke-width="1" opacity="0.9921568627450981" d="M 67.5 116 L 68 121 Q 70.7 119.9 70 122.5 Q 71 125 75.5 124 L 77.5 124 Q 85 122.5 88 125.5 L 87 128 L 101.5 128 L 103 129.5 L 98.5 130 L 96.5 130 L 93.5 129 L 92.5 130 L 82.5 130 L 80.5 130 L 77.5 129 L 74 130 L 73.5 128 L 66.5 128 L 58.5 130 L 50.5 130 L 51 128.5 L 52.5 126 L 58.5 126 L 67 119.5 L 67.5 116 Z " /><path fill="rgb(254,236,191)" stroke="rgb(254,236,191)" stroke-width="1" opacity="0.9921568627450981" d="M 93.5 123 L 96 124.5 L 91.5 126 L 91.5 125 Q 94 125.7 93.5 123 Z " /><path fill="rgb(102,51,21)" stroke="rgb(102,51,21)" stroke-width="1" opacity="0.9882352941176471" d="M 122.5 30 L 129 30.5 L 122.5 31 L 122.5 30 Z " /><path fill="rgb(102,51,21)" stroke="rgb(102,51,21)" stroke-width="1" opacity="0.9882352941176471" d="M 22.5 34 L 23 36.5 L 22 36.5 L 22.5 34 Z " /><path fill="rgb(102,51,21)" stroke="rgb(102,51,21)" stroke-width="1" opacity="0.9882352941176471" d="M 22.5 39 L 23 50.5 L 22 50.5 L 22.5 39 Z " /><path fill="rgb(102,51,21)" stroke="rgb(102,51,21)" stroke-width="1" opacity="0.9882352941176471" d="M 17.5 41 L 18 48.5 L 17 48.5 L 17.5 41 Z " /><path fill="rgb(102,51,21)" stroke="rgb(102,51,21)" stroke-width="1" opacity="0.9882352941176471" d="M 17.5 52 L 18 59.5 L 17 59.5 L 17.5 52 Z " /><path fill="rgb(102,51,21)" stroke="rgb(102,51,21)" stroke-width="1" opacity="0.9882352941176471" d="M 134.5 72 L 135 87.5 L 134 87.5 L 134.5 72 Z " /><path fill="rgb(102,51,21)" stroke="rgb(102,51,21)" stroke-width="1" opacity="0.9882352941176471" d="M 34.5 91 L 38 91.5 L 34.5 92 L 34.5 91 Z " /><path fill="rgb(102,51,21)" stroke="rgb(102,51,21)" stroke-width="1" opacity="0.9882352941176471" d="M 46.5 91 L 65 91.5 L 46.5 92 L 46.5 91 Z " /><path fill="rgb(102,51,21)" stroke="rgb(102,51,21)" stroke-width="1" opacity="0.9882352941176471" d="M 66.5 91 L 81 91.5 L 66.5 92 L 66.5 91 Z " /><path fill="rgb(102,51,21)" stroke="rgb(102,51,21)" stroke-width="1" opacity="0.9882352941176471" d="M 82.5 91 L 97 91.5 L 82.5 92 L 82.5 91 Z " /><path fill="rgb(102,51,21)" stroke="rgb(102,51,21)" stroke-width="1" opacity="0.9882352941176471" d="M 19.5 95 L 20 97 L 18 96.5 L 19.5 95 Z " /><path fill="rgb(102,51,21)" stroke="rgb(102,51,21)" stroke-width="1" opacity="0.9882352941176471" d="M 136.5 104 L 137.5 107 L 139 106.5 L 138.5 109 Q 134.8 107.8 136.5 104 Z " /><path fill="rgb(102,51,21)" stroke="rgb(102,51,21)" stroke-width="1" opacity="0.9882352941176471" d="M 58.5 109 L 62 109.5 L 58.5 110 L 58.5 109 Z " /><path fill="rgb(102,51,21)" stroke="rgb(102,51,21)" stroke-width="1" opacity="0.9882352941176471" d="M 66.5 109 L 74 109.5 L 66.5 110 L 66.5 109 Z " /><path fill="rgb(102,51,21)" stroke="rgb(102,51,21)" stroke-width="1" opacity="0.9882352941176471" d="M 92.5 109 L 98 109.5 L 92.5 110 L 92.5 109 Z " /><path fill="rgb(102,51,21)" stroke="rgb(102,51,21)" stroke-width="1" opacity="0.9882352941176471" d="M 64.5 112 L 92.5 112 L 93 114 L 90.5 113 L 64.5 113 L 64.5 114 L 66 114.5 L 64.5 115 L 62 113.5 L 64.5 112 Z " /><path fill="rgb(102,51,21)" stroke="rgb(102,51,21)" stroke-width="1" opacity="0.9882352941176471" d="M 117.5 112 L 120 112.5 L 117.5 113 L 117.5 112 Z " /><path fill="rgb(102,51,21)" stroke="rgb(102,51,21)" stroke-width="1" opacity="0.9882352941176471" d="M 58.5 121 L 62 122.5 L 60.5 123 L 58.5 121 Z " /><path fill="rgb(102,51,21)" stroke="rgb(102,51,21)" stroke-width="1" opacity="0.9882352941176471" d="M 53.5 122 L 54.5 124 L 53.5 122 Z " /><path fill="rgb(102,51,21)" stroke="rgb(102,51,21)" stroke-width="1" opacity="0.9882352941176471" d="M 50.5 123 L 52 123.5 L 50 124.5 L 50.5 126 Q 47.5 124.5 50.5 123 Z " /><path fill="rgb(102,51,21)" stroke="rgb(102,51,21)" stroke-width="1" opacity="0.9882352941176471" d="M 58.5 130 Q 63.3 128.7 62 132 L 58.5 131 L 57 131.5 L 58.5 130 Z " /><path fill="rgb(102,51,21)" stroke="rgb(102,51,21)" stroke-width="1" opacity="0.9882352941176471" d="M 53.5 131 L 56 131.5 L 53.5 132 L 53.5 131 Z " /><path fill="rgb(102,51,21)" stroke="rgb(102,51,21)" stroke-width="1" opacity="0.9882352941176471" d="M 74.5 131 L 80 131.5 L 74.5 132 L 74.5 131 Z " /><path fill="rgb(131,81,43)" stroke="rgb(131,81,43)" stroke-width="1" opacity="0.9490196078431372" d="M 23.5 24 L 48 24.5 L 23.5 25 L 23.5 24 Z " /><path fill="rgb(131,81,43)" stroke="rgb(131,81,43)" stroke-width="1" opacity="0.9490196078431372" d="M 50.5 24 L 54 24.5 L 50.5 25 L 50.5 24 Z " /><path fill="rgb(131,81,43)" stroke="rgb(131,81,43)" stroke-width="1" opacity="0.9490196078431372" d="M 57.5 24 L 70 24.5 L 57.5 25 L 57.5 24 Z " /><path fill="rgb(131,81,43)" stroke="rgb(131,81,43)" stroke-width="1" opacity="0.9490196078431372" d="M 80.5 24 L 90 24.5 L 80.5 25 L 80.5 24 Z " /><path fill="rgb(131,81,43)" stroke="rgb(131,81,43)" stroke-width="1" opacity="0.9490196078431372" d="M 91.5 24 L 118 24.5 L 91.5 25 L 91.5 24 Z " /><path fill="rgb(131,81,43)" stroke="rgb(131,81,43)" stroke-width="1" opacity="0.9490196078431372" d="M 121.5 24 L 128 24.5 L 121.5 25 L 121.5 24 Z " /><path fill="rgb(131,81,43)" stroke="rgb(131,81,43)" stroke-width="1" opacity="0.9490196078431372" d="M 22 26 L 24 26.5 L 22 27.5 L 22 26 Z " /><path fill="rgb(131,81,43)" stroke="rgb(131,81,43)" stroke-width="1" opacity="0.9490196078431372" d="M 26.5 26 L 27.5 28 Q 24.7 28.7 26.5 26 Z " /><path fill="rgb(131,81,43)" stroke="rgb(131,81,43)" stroke-width="1" opacity="0.9490196078431372" d="M 134.5 29 L 136 31.5 L 135 31.5 L 134.5 29 Z " /><path fill="rgb(131,81,43)" stroke="rgb(131,81,43)" stroke-width="1" opacity="0.9490196078431372" d="M 18.5 30 L 19.5 36 L 21.5 31 Q 24.5 30.2 23 34 L 21 34.5 L 21 87.5 L 23 94 L 25.5 93 L 49.5 93 L 50.5 94 L 81.5 94 L 82.5 93 L 101.5 93 L 103.5 93 L 129.5 93 L 134 94 L 135 91.5 L 136 75.5 L 135 74.5 L 135 60.5 L 134 59.5 L 134 33.5 L 135 33.5 L 135.5 37 L 136.5 33 L 137 86.5 L 139 92.5 L 137 93.5 L 137.5 92 Q 134.9 91.2 136 94.5 L 139 95.5 Q 140.9 100.9 137.5 100 L 137 97.5 Q 137.8 95.3 135.5 96 L 134.5 95 L 19.5 95 L 17 96.5 L 18 93.5 Q 15.7 92.2 17 87.5 L 19 85.5 L 19 68.5 L 19 66.5 L 18 61.5 L 18 59.5 Q 16.5 54 19 52.5 L 18 47.5 L 19 44.5 L 18 40.5 L 19 38.5 L 18 37.5 L 18.5 30 Z " /><path fill="rgb(131,81,43)" stroke="rgb(131,81,43)" stroke-width="1" opacity="0.9490196078431372" d="M 138.5 35 L 139 84.5 L 138 84.5 L 138.5 35 Z " /><path fill="rgb(131,81,43)" stroke="rgb(131,81,43)" stroke-width="1" opacity="0.9490196078431372" d="M 140.5 57 L 141 68.5 L 140 68.5 L 140.5 57 Z " /><path fill="rgb(131,81,43)" stroke="rgb(131,81,43)" stroke-width="1" opacity="0.9490196078431372" d="M 103.5 91 L 116 91.5 L 103.5 92 L 103.5 91 Z " /><path fill="rgb(131,81,43)" stroke="rgb(131,81,43)" stroke-width="1" opacity="0.9490196078431372" d="M 15.5 100 L 16 106.5 L 15 106.5 L 15.5 100 Z " /><path fill="rgb(131,81,43)" stroke="rgb(131,81,43)" stroke-width="1" opacity="0.9490196078431372" d="M 138.5 102 L 139 103.5 L 137.5 107 L 137 103.5 L 138.5 102 Z " /><path fill="rgb(131,81,43)" stroke="rgb(131,81,43)" stroke-width="1" opacity="0.9490196078431372" d="M 137.5 108 L 134.5 112 L 133.5 110 L 137.5 108 Z " /><path fill="rgb(131,81,43)" stroke="rgb(131,81,43)" stroke-width="1" opacity="0.9490196078431372" d="M 20.5 110 L 21.5 112 L 20.5 110 Z " /><path fill="rgb(131,81,43)" stroke="rgb(131,81,43)" stroke-width="1" opacity="0.9490196078431372" d="M 98.5 111 L 105 111.5 L 98.5 112 L 98.5 111 Z " /><path fill="rgb(131,81,43)" stroke="rgb(131,81,43)" stroke-width="1" opacity="0.9490196078431372" d="M 106.5 111 L 111 111.5 L 106.5 112 L 106.5 111 Z " /><path fill="rgb(131,81,43)" stroke="rgb(131,81,43)" stroke-width="1" opacity="0.9490196078431372" d="M 115.5 111 L 122 111.5 L 115.5 112 L 115.5 111 Z " /><path fill="rgb(131,81,43)" stroke="rgb(131,81,43)" stroke-width="1" opacity="0.9490196078431372" d="M 63.5 116 L 64 118 Q 66.7 116.9 66 119.5 L 64 120.5 L 64.5 119 L 59.5 121 L 59.5 120 L 63 117.5 L 63.5 116 Z " /><path fill="rgb(131,81,43)" stroke="rgb(131,81,43)" stroke-width="1" opacity="0.9490196078431372" d="M 58.5 122 Q 61.5 121.2 60 125 L 56.5 124 L 51.5 126 L 49 125.5 L 58.5 122 Z " /><path fill="rgb(131,81,43)" stroke="rgb(131,81,43)" stroke-width="1" opacity="0.9490196078431372" d="M 95.5 123 L 99 123.5 L 95.5 124 L 95.5 123 Z " /><path fill="rgb(131,81,43)" stroke="rgb(131,81,43)" stroke-width="1" opacity="0.9490196078431372" d="M 105.5 127 L 108 127.5 Q 105.9 130.8 105.5 127 Z " /><path fill="rgb(131,81,43)" stroke="rgb(131,81,43)" stroke-width="1" opacity="0.9490196078431372" d="M 51.5 133 L 54 133.5 L 51.5 134 L 51.5 133 Z " /><path fill="rgb(131,81,43)" stroke="rgb(131,81,43)" stroke-width="1" opacity="0.9490196078431372" d="M 55.5 133 L 66 133.5 L 55.5 134 L 55.5 133 Z " /><path fill="rgb(131,81,43)" stroke="rgb(131,81,43)" stroke-width="1" opacity="0.9490196078431372" d="M 67.5 133 L 72 133.5 L 67.5 134 L 67.5 133 Z " /><path fill="rgb(185,130,75)" stroke="rgb(185,130,75)" stroke-width="1" opacity="0.8313725490196079" d="M 70.5 24 L 75 24.5 L 70.5 25 L 70.5 24 Z " /><path fill="rgb(185,130,75)" stroke="rgb(185,130,75)" stroke-width="1" opacity="0.8313725490196079" d="M 76.5 24 L 80 24.5 L 76.5 25 L 76.5 24 Z " /><path fill="rgb(185,130,75)" stroke="rgb(185,130,75)" stroke-width="1" opacity="0.8313725490196079" d="M 118.5 24 L 121 24.5 L 118.5 25 L 118.5 24 Z " /><path fill="rgb(185,130,75)" stroke="rgb(185,130,75)" stroke-width="1" opacity="0.8313725490196079" d="M 128.5 24 L 134 24.5 L 128.5 25 L 128.5 24 Z " /><path fill="rgb(185,130,75)" stroke="rgb(185,130,75)" stroke-width="1" opacity="0.8313725490196079" d="M 24.5 26 L 27.5 28 L 27.5 26 L 128.5 26 L 129.5 27 L 133.5 26 L 137 28.5 L 138 30.5 L 138 86.5 L 137 86.5 L 136.5 33 L 135.5 37 L 134 31 L 131.5 30 L 116.5 30 L 115.5 29 Q 113.8 31.8 107.5 30 L 105.5 30 L 98.5 29 Q 97.3 31.2 92.5 30 L 90.5 29 Q 89.2 31.2 84.5 30 L 81.5 29 Q 80 31.5 74.5 30 Q 72.8 27.3 66.5 29 L 65.5 30 L 51.5 30 L 49.5 30 L 25.5 30 L 20 32.5 L 19.5 36 L 19 29.5 L 20 27 L 22.5 28 L 24.5 26 Z " /><path fill="rgb(185,130,75)" stroke="rgb(185,130,75)" stroke-width="1" opacity="0.8313725490196079" d="M 137.5 26 L 138.5 28 L 137.5 26 Z " /><path fill="rgb(185,130,75)" stroke="rgb(185,130,75)" stroke-width="1" opacity="0.8313725490196079" d="M 21.5 34 L 22 87.5 L 21 87.5 L 21.5 34 Z " /><path fill="rgb(185,130,75)" stroke="rgb(185,130,75)" stroke-width="1" opacity="0.8313725490196079" d="M 140.5 34 L 141 39.5 L 140 39.5 L 140.5 34 Z " /><path fill="rgb(185,130,75)" stroke="rgb(185,130,75)" stroke-width="1" opacity="0.8313725490196079" d="M 140.5 41 L 141 56.5 L 140 56.5 L 140.5 41 Z " /><path fill="rgb(185,130,75)" stroke="rgb(185,130,75)" stroke-width="1" opacity="0.8313725490196079" d="M 18.5 44 L 19 46.5 L 18 46.5 L 18.5 44 Z " /><path fill="rgb(185,130,75)" stroke="rgb(185,130,75)" stroke-width="1" opacity="0.8313725490196079" d="M 15.5 47 L 16 49.5 L 15 49.5 L 15.5 47 Z " /><path fill="rgb(185,130,75)" stroke="rgb(185,130,75)" stroke-width="1" opacity="0.8313725490196079" d="M 18.5 62 L 19 66.5 L 18 66.5 L 18.5 62 Z " /><path fill="rgb(185,130,75)" stroke="rgb(185,130,75)" stroke-width="1" opacity="0.8313725490196079" d="M 18.5 68 L 19 85.5 L 18 85.5 L 18.5 68 Z " /><path fill="rgb(185,130,75)" stroke="rgb(185,130,75)" stroke-width="1" opacity="0.8313725490196079" d="M 135.5 75 L 136 78.5 L 135 78.5 L 135.5 75 Z " /><path fill="rgb(185,130,75)" stroke="rgb(185,130,75)" stroke-width="1" opacity="0.8313725490196079" d="M 15.5 76 L 16 99.5 L 15 99.5 L 15.5 76 Z " /><path fill="rgb(185,130,75)" stroke="rgb(185,130,75)" stroke-width="1" opacity="0.8313725490196079" d="M 116.5 91 L 120 91.5 L 116.5 92 L 116.5 91 Z " /><path fill="rgb(185,130,75)" stroke="rgb(185,130,75)" stroke-width="1" opacity="0.8313725490196079" d="M 124.5 91 L 131 91.5 L 124.5 92 L 124.5 91 Z " /><path fill="rgb(185,130,75)" stroke="rgb(185,130,75)" stroke-width="1" opacity="0.8313725490196079" d="M 22.5 111 L 25 111.5 L 22.5 112 L 22.5 111 Z " /><path fill="rgb(185,130,75)" stroke="rgb(185,130,75)" stroke-width="1" opacity="0.8313725490196079" d="M 26.5 111 L 98 111.5 L 26.5 112 L 26.5 111 Z " /><path fill="rgb(185,130,75)" stroke="rgb(185,130,75)" stroke-width="1" opacity="0.8313725490196079" d="M 122.5 111 L 134 111.5 L 122.5 112 L 122.5 111 Z " /><path fill="rgb(185,130,75)" stroke="rgb(185,130,75)" stroke-width="1" opacity="0.8313725490196079" d="M 68 114 L 90.5 114 L 91 115.5 Q 88.5 117 92 118.5 L 91 120.5 L 95 123.5 L 92.5 122 L 89.5 120 L 77.5 117 L 68 117 L 68 114 Z " /><path fill="rgb(185,130,75)" stroke="rgb(185,130,75)" stroke-width="1" opacity="0.8313725490196079" d="M 63.5 121 L 62.5 123 L 63.5 121 Z " /><path fill="rgb(185,130,75)" stroke="rgb(185,130,75)" stroke-width="1" opacity="0.8313725490196079" d="M 99 123 L 102 124.5 L 99 125 L 99 123 Z " /><path fill="rgb(185,130,75)" stroke="rgb(185,130,75)" stroke-width="1" opacity="0.8313725490196079" d="M 52.5 125 L 55 125.5 L 52.5 126 L 52.5 125 Z " /><path fill="rgb(185,130,75)" stroke="rgb(185,130,75)" stroke-width="1" opacity="0.8313725490196079" d="M 104.5 125 L 106 129.5 L 105 129.5 L 104.5 128 L 103.5 130 L 102 127.5 L 104.5 125 Z " /><path fill="rgb(185,130,75)" stroke="rgb(185,130,75)" stroke-width="1" opacity="0.8313725490196079" d="M 49.5 128 L 50 130.5 L 49 130.5 L 49.5 128 Z " /><path fill="rgb(107,60,32)" stroke="rgb(107,60,32)" stroke-width="1" opacity="0.9215686274509803" d="M 17.5 32 L 18 35.5 L 17 35.5 L 17.5 32 Z " /><path fill="rgb(107,60,32)" stroke="rgb(107,60,32)" stroke-width="1" opacity="0.9215686274509803" d="M 138.5 32 L 139 34.5 L 138 34.5 L 138.5 32 Z " /><path fill="rgb(107,60,32)" stroke="rgb(107,60,32)" stroke-width="1" opacity="0.9215686274509803" d="M 17.5 49 L 18 51.5 L 17 51.5 L 17.5 49 Z " /><path fill="rgb(107,60,32)" stroke="rgb(107,60,32)" stroke-width="1" opacity="0.9215686274509803" d="M 17.5 60 L 18 75.5 L 17 75.5 L 17.5 60 Z " /><path fill="rgb(107,60,32)" stroke="rgb(107,60,32)" stroke-width="1" opacity="0.9215686274509803" d="M 134.5 60 L 135 71.5 L 134 71.5 L 134.5 60 Z " /><path fill="rgb(107,60,32)" stroke="rgb(107,60,32)" stroke-width="1" opacity="0.9215686274509803" d="M 140.5 71 L 141 75.5 L 140 75.5 L 140.5 71 Z " /><path fill="rgb(107,60,32)" stroke="rgb(107,60,32)" stroke-width="1" opacity="0.9215686274509803" d="M 17.5 77 L 18 80.5 L 17 80.5 L 17.5 77 Z " /><path fill="rgb(107,60,32)" stroke="rgb(107,60,32)" stroke-width="1" opacity="0.9215686274509803" d="M 140.5 77 L 141 86.5 L 140 86.5 L 140.5 77 Z " /><path fill="rgb(107,60,32)" stroke="rgb(107,60,32)" stroke-width="1" opacity="0.9215686274509803" d="M 17.5 83 L 18 86.5 L 17 86.5 L 17.5 83 Z " /><path fill="rgb(107,60,32)" stroke="rgb(107,60,32)" stroke-width="1" opacity="0.9215686274509803" d="M 138.5 85 L 139 91.5 L 139 93.5 L 137.5 96 L 136 93.5 L 138 91.5 L 138.5 85 Z " /><path fill="rgb(107,60,32)" stroke="rgb(107,60,32)" stroke-width="1" opacity="0.9215686274509803" d="M 140.5 92 L 141 94.5 L 140 94.5 L 140.5 92 Z " /><path fill="rgb(107,60,32)" stroke="rgb(107,60,32)" stroke-width="1" opacity="0.9215686274509803" d="M 50.5 93 L 82 93.5 L 50.5 94 L 50.5 93 Z " /><path fill="rgb(107,60,32)" stroke="rgb(107,60,32)" stroke-width="1" opacity="0.9215686274509803" d="M 137 100 Q 139.7 98.9 139 101.5 L 136 103.5 L 137 100 Z " /><path fill="rgb(107,60,32)" stroke="rgb(107,60,32)" stroke-width="1" opacity="0.9215686274509803" d="M 63.5 119 L 65 119.5 L 62.5 121 L 63.5 119 Z " /><path fill="rgb(107,60,32)" stroke="rgb(107,60,32)" stroke-width="1" opacity="0.9215686274509803" d="M 48.5 124 L 49 126.5 L 48.5 128 L 47 125.5 L 48.5 124 Z " /><path fill="rgb(107,60,32)" stroke="rgb(107,60,32)" stroke-width="1" opacity="0.9215686274509803" d="M 72.5 133 L 97 133.5 L 72.5 134 L 72.5 133 Z " /><path fill="rgb(107,60,32)" stroke="rgb(107,60,32)" stroke-width="1" opacity="0.9215686274509803" d="M 98.5 133 L 103 133.5 L 98.5 134 L 98.5 133 Z " /></svg>